/* XPM */
static char *_d2bf20f29d542df97805d820d565dfdWLDrBsmWPEIcOulM[] = {
/* columns rows colors chars-per-pixel */
"75 50 256 2 ",
"   c #47704C",
".  c #161C2E",
"X  c #151B2D",
"o  c #161C2E",
"O  c #151B2D",
"+  c #151B2D",
"@  c #14192A",
"#  c #13182B",
"$  c #13182B",
"%  c #141A2C",
"&  c #121629",
"*  c #171D2E",
"=  c #151A2D",
"-  c #14192B",
";  c #151B2D",
":  c #161C2E",
">  c #151B2D",
",  c #151A2D",
"<  c #151B2D",
"1  c #14192C",
"2  c #151B2D",
"3  c None",
"4  c #161C2E",
"5  c #151B2D",
"6  c #182031",
"7  c #232F3D",
"8  c #161C2E",
"9  c #161C2E",
"0  c #151B2D",
"q  c #141A2D",
"w  c #171D2F",
"e  c #151A2C",
"r  c #161C2E",
"t  c #151A2C",
"y  c #161C2E",
"u  c #649A9A",
"i  c #1F2332",
"p  c #2F3741",
"a  c #171D2F",
"s  c #2E414D",
"d  c #202735",
"f  c #1B2333",
"g  c #151B2D",
"h  c #14192C",
"j  c #151B2D",
"k  c #212736",
"l  c #1A2333",
"z  c #37484F",
"x  c #3E5A64",
"c  c #2F3B44",
"v  c #161B2D",
"b  c #161C2E",
"n  c #324A56",
"m  c #1C2434",
"M  c #444343",
"N  c #3A525B",
"B  c #314752",
"V  c #151C2F",
"C  c #202735",
"Z  c #1C2636",
"A  c #293946",
"S  c #384D55",
"D  c #527D82",
"F  c #192131",
"G  c #5B8C8E",
"H  c #443C3D",
"J  c #4A7077",
"K  c #466068",
"L  c #212C3C",
"P  c #253543",
"I  c #363F45",
"U  c #263543",
"Y  c #3A5660",
"T  c #6D5447",
"R  c #3E5D66",
"E  c #4D747A",
"W  c #6A5344",
"Q  c #50797E",
"!  c #578488",
"~  c #35484F",
"^  c #222F3D",
"/  c #6A7F71",
"(  c #161C2E",
")  c #669D9D",
"_  c #679E9E",
"`  c #8CC4C5",
"'  c #659C9C",
"]  c #659B9B",
"[  c #629494",
"{  c #405458",
"}  c #A67953",
"|  c #70A5A5",
" . c #141B2D",
".. c #31414A",
"X. c #679F9F",
"o. c #72AAA9",
"O. c #5B8688",
"+. c #8CC2C1",
"@. c #84BBBC",
"#. c #547577",
"$. c #4F6968",
"%. c #76ADAD",
"&. c #7BB0B1",
"*. c #506B6B",
"=. c #2F3C46",
"-. c #40555A",
";. c #292933",
":. c #3C3639",
">. c #5D8989",
",. c #384B52",
"<. c #88BEBF",
"1. c #689294",
"2. c #29333F",
"3. c #2D3843",
"4. c #AC7E55",
"5. c #4D6666",
"6. c #485F60",
"7. c #77A6A4",
"8. c #1E2332",
"9. c #659899",
"0. c #588183",
"q. c #43575B",
"w. c #54797B",
"e. c #3B4E54",
"r. c #536F6F",
"t. c #7DADAB",
"y. c #5A7E7E",
"u. c #79A9AC",
"i. c #6E9A9D",
"p. c #445A5E",
"a. c #6DA3A3",
"s. c #537C80",
"d. c #83B7B9",
"f. c #8FC6C6",
"g. c #547372",
"h. c #364851",
"j. c #74A1A0",
"k. c #5D4A42",
"l. c #6EA0A0",
"z. c #69A0A0",
"x. c #476266",
"c. c #5A8484",
"v. c #719792",
"b. c #333E45",
"n. c #86644C",
"m. c #608A8C",
"M. c #577878",
"N. c #A3CBBD",
"B. c #34454E",
"V. c #3C4245",
"C. c #B18156",
"Z. c #7CB3B4",
"A. c #659696",
"S. c #514641",
"D. c #629091",
"F. c #81AAA3",
"G. c #5E8D8E",
"H. c #618F90",
"J. c #6A5245",
"K. c #97C1B5",
"L. c #9A7251",
"P. c #493E3C",
"I. c #232D3B",
"U. c #B08657",
"Y. c #AED0BB",
"T. c #4D6463",
"R. c #86B1A5",
"E. c #917651",
"W. c #575A53",
"Q. c #445C63",
"!. c #322E35",
"~. c #A07652",
"^. c #8E6A4F",
"/. c #517276",
"(. c #678E8C",
"). c #4B6F75",
"_. c #3D5157",
"`. c #95C6C2",
"'. c #444E4F",
"]. c #3C484B",
"[. c #7B7757",
"{. c #725748",
"}. c #7A5D4A",
"|. c #81B2B3",
" X c #5F9293",
".X c #9D8C60",
"XX c #A8825A",
"oX c #88B8B6",
"OX c #798572",
"+X c #535147",
"@X c #CDC67C",
"#X c #1A1F2F",
"$X c #8D6F50",
"%X c #CEA567",
"&X c #B58C5D",
"*X c #9FC3B1",
"=X c #6E604B",
"-X c #94BCA9",
";X c #7FA195",
":X c #ABA975",
">X c #64847F",
",X c #5B6762",
"<X c #89B5AB",
"1X c #BC905D",
"2X c #BF965F",
"3X c #9B7B56",
"4X c #759C98",
"5X c #486B72",
"6X c #AC9B69",
"7X c #6D8B7E",
"8X c #759388",
"9X c #D7DB7E",
"0X c #8DBAAE",
"qX c #B4A054",
"wX c #607C78",
"eX c #627268",
"rX c #98924A",
"tX c #73865A",
"yX c #89917E",
"uX c #D5C85E",
"iX c #77704F",
"pX c #E7EA93",
"aX c #151C2E",
"sX c #98B09B",
"dX c #C3BB81",
"fX c #667973",
"gX c #A6C9B5",
"hX c #A4A082",
"jX c #847C66",
"kX c #6A664F",
"lX c #EBE675",
"zX c #8C7E4F",
"xX c #D5BF59",
"cX c #BBAF54",
"vX c #CCBB6C",
"bX c #A8B069",
"nX c #8D8860",
"mX c #F8FBA7",
"MX c #EFF368",
"NX c #B8AB67",
"BX c #565E59",
"VX c #CDCB50",
"CX c #9DB058",
"ZX c #BEBA4A",
"AX c #999675",
"SX c #9D844B",
"DX c #D9E04A",
"FX c #554B41",
"GX c #7F956C",
"HX c #8AA472",
"JX c #C5AE4E",
"KX c #F4F3BB",
"LX c #A2BC84",
"PX c #87A19D",
"IX c #CDD08A",
"UX c #B1B392",
/* pixels */
"                                                                                                                                                      ",
"                                                                  @ , # # # , # , @                                                                   ",
"                                                        $ # O * 6 i f 7 N K N B 7 i 6 * * # $                                                         ",
"                                                    % 1 s K 3.5Xm.>.s.M.[ 9.[ [ 0.x.3 ,X.X/ L 1 %                                                     ",
"                                                  & P Q.7.i.w.Z.Z.o.z.[ [ ) ) ) z.H.9.>XnX<X1.x P &                                                   ",
"                                            # e > 7 /.o.` o.v.4X| | | i.D.| o.Z.&.z.%.l.0.o.` o./.7 > e #                                             ",
"                                          * k U V h.0.| +.t.hX:XoX<.Z.[ O.|.+.f.<.@.t.Q.D.&.+.| 0.h.V U k *                                           ",
"                                      v j 7 s.c.2.{ g.A.-X*X9XvXwX' X.) [ D.o.@.&.t.#.p.%.<.0XA.g.{ 2.c.s.7 j v                                       ",
"                                    - s 3 ,.1.OXV.{ p.0._ _ 7XBXc.| z.) a.a.a.' G.t.1.r.7Xv._ 0.e.h...c.A.,.3 s -                                     ",
"                                  $ w x ) r.yX@XnXs.1.a.a.0.*.x.y.%.%.%.u.1.w.c.u.<.i.[.ZXdXj.| H.y.5.[ G.r.) x w $                                   ",
"                                $ w =.-.D.p.tX@XiX#.d.` d./.,.B.r.7.@.<.|.;Xq.y.o.a.).iXlXKXsX+.` (.*.H./.p.D.-.=.w $                                 ",
"                                > c 5.q.-.].'.V...g.j.N.+.d.Q.=.M.' z.o.%.<X8Xy.) _ O.W.qXVX;X@.| w.,...].].-.q.5.c >                                 ",
"                            ; 5 f e.T.e.{ jX.X2.p.>._ 7.| s.h.q.M.A.) ) ' ) c.6.] _ >.h.].T.' a._ >.6.3.=.,.-.e.T.e.f 5 $                             ",
"                          @ F ..{ b...i.F.IX@XV.,XwX[ O.D.d.d.&.m.M.O.A._ ] /._.m.o.l.i.oX7.m.O. X/.T.p.5Xt.@.1.=.b.{ ..a @                           ",
"                          I z $.p.2.x.@.t.HXiX[.vX6X+Xh.#.Z.+.f.+.oXv.Q.s.y.6.2.#.t.+.N.*X0Xy.h.3...5X] @.` f.d.6.I.e.$.z I                           ",
"                        - M 6.5.=.-.g.| <.`.LXpXmXuX+X6.g.9.o.-XgXY.*Xe._.T.-.Q./.y.7X7.z._ c.5.BXeX8X<.` @.Z.| g.{ 3.6.p.M -                         ",
"                        a 2.].=.I.5.#.A.z.F.HXDXuX2XV.x.r.>.] ) l.7.>Xh.1.|.d.f.`.F.x.G.X.v.y.q.rXxXdX;X%.| ) ] #.5.I.+X[.c a                         ",
"                      q f B.b.8.3.-.r.0.9.) _ eXkXW.3.6.O.' ) ) ) _ w.3.g.l.&.oXR.(.-.A.y.6XyX+XVXMXmXCX[ _ 9.O.r.-.3.=X:X,.f q                       ",
"                    $ i ..*.{ b.$.1.&.O.x s.a.#.-._.I.e.s.] _ ) ] D.fXW.M.] ) ' ' w.B.H.q.cXbXP.U.xXDXtX>.s.x O.&.1.$.b.{ *...r #                     ",
"                    > z W.jXkX].g.|.f.` u.u.@.j.r.=.2.m.9.m.[ ' ] #..XdXfX>.D.&.%.O.i.+.u.8X<XO.V.kXGXi.@.u.u.` ` |.g...q.*.q.c 6 -                   ",
"                  ; S 6.jX9XqX,X9.<.` ` ` ` ` ` 4X,.,.1.+.d.u.%.l.0.OX:XT.e.Q.j.d.K.K.%.o.a.&.1.,.,.i.` ` ` ` ` `.+.] p.B.$._.p.A q +                 ",
"                  0 s p.[.uXSXq.X.o.&.@.N.Y.N.4XM.{ ..*.1.@.N.Y.Y.Y.oXa.>.h._.c.) _ _ ' ' ) >.*...{ M.4XN.Y.Y.gX0Xt.z.#.I.2.=.6.S 2 -                 ",
"              + % = p '.3.+X'.5X_ ' ) | t.R.j.#.$.-.=.5.y.A.7.R.R.R.a._ c.{ _.g.G.X._ ) X.] 0.*...-.$.#.j.R.R.;X8Xv._ w.3.2.b.'.p 1 y @               ",
"              8 2 a c V.2.3 G.). XX.' ' ' ' ] w.5...;.'.#.H.9.] ] ] 1.M.W.L.=X'.wXO.O.9.O.0.3 W.V...5.w.] ' [ 6.@XUXH.).G.*.I.b.b.w O y               ",
"              $ X l b.2.b.*.y.j.<.d.%.| X._ _ w.=.#X}.U.3X.XW..X6X6XE.=X%X%X%X=XE.XXE..XS.E.3XU.^.#X=.w.v.yXnXS.NXbX7.7.y.,XzX[.V.l = ,               ",
"              @ = d 3.3.Q.$.$.fXPXoX+.<.&.[ >.*.6...S.XXXX$X:.3XU.2X}.S.&XU.3XS.=X2XXX$X:.E.&XXXFX..6.5.iXuXpX:XOX7.i.M.$.'.qX:X3.d h %               ",
"            + # h d h.m.j.y.OXNXcX[.H.j.l.#.q.*.*.e.k.4.4.L.P.4.C.C.n.k.C.} 4.k.n.C.4.} P.L.C.} k.e.*.Q.FXvXpXMXGX#.$.5.r.M.;X>XB.d 1 0 -             ",
"            % O a z c.Z.f.<X9XmXMXrXh.AXOX3 =.$.B.8.P.} L.n.:.$XC.L.J.S.} } } P.{.4.^.n.:.n.} } P.8.B.Q.V.SXqXCX]._.r.>X7.<.` Z.c...4 o e             ",
"            ; = l p.[ o.<.>XZXlXxXE.+X9XzXx i.t.#.,.8.!.;.8.( ;.!.;.8.#X!.!.!.#X8.!.;.8.#X;.!.!.8.,.#.F.7.u.<Xu.{ ,.u.`.N.`.<.o.[ p.l = 0 +           ",
"            e > k #.) _ X.G.7XbX[.3.{ tXeXoXN.F.g.5.2.S.:.k.k.8. . .( (  . . .( (  . .8.P.P.:.S.2.5.g.F.gXY.@.7.6.{ [ t.R.F.j._ ) #.k > 2 $           ",
"        + % : 5 m s.X.) ) _ _ ] wXV.x.[ ' | | ) >.$.2.{.{.n.^.:. .( ( ( ( ( ( ( ( (  .:.{.J.}.}.3.5.>.) l.7.X.A.Q...).] ' ' ) ) X.s.m 5 * # @         ",
"        @ : O t C 3 a.&.z.) ) 1.hXzX..H._ ' ) _ A.r...J.} 4.4.k.( ( ( ( ( ( ( ( ( (  .k.} L.} J...r.A._ ) ) v.AX.XW.h.>._ ) z.&.a.3 C t O O %         ",
"          v < r ,.O.a.<.@.Z.@.0XpXNX;.0.) ' ' 9.>.5.2.k.} ~.4.{.( ( ( ( ( ( ( ( ( (  .{.1X4.} k.b..XyX9.' ] eXJXlXhX&.d.@.Z.@.<.a.O.,.r < 2 $         ",
"        - 9 6 m x.[ ) o.K.K.+.`.-X,X-.1.o.%.%.(.5.B.8.P.4.$X&X}. .( ( ( ( ( ( ( ( (  .}.%XXXU.:.:.@X@X(.%.%.q.E.cXtXd.`.+.K.K.o.) [ x.m 6 * ,         ",
"        ; O j I.*.[ X.X.l.(.v.t._ w.u.` ` ` ` <.|.l.).:.~.$X2Xn.#X( ( ( ( ( ( ( ( ( #Xn.1XE.4.:.q.OX-X<.` ` u.(.j.w._ t.v.(.l.X.X.[ *.I.j O q         ",
"        $ 2 1 p 7 B ).0.) ' ] ] H.v.N.f.` ` +.` +.&.x.C ^.&X%X} ;. .( ( ( ( ( ( (  .;.~.&X} ^.C x.%.<.` +.` f.f.N.v.H.] ] ' ) 0.).B 7 p 1 X ,         ",
"        @ 0 < Z 1 t 4 s G _ X.G.e.r.sX*XK.F.9.i.A.>.$.B.J.1X1X} ;. .( ( ( ( ( ( (  .;.} U.C.J.B.$.>.A.i.9.F.K.*XsXr.e.G.X._ G s 4 t 1 Z o * %         ",
"          8 : q O . X & n D J N f { m.z._ ' ] '  XO.*.p.J.U.C.L.;.g b r 4 b f r g  .;.~.C.4.S.{ -.O. X' ] ' X.z.m.{ 8.N J D n & X . O X 2 #           ",
"          + + ; X . o o X & = > 1 L 3  X9.) u u z l ^ ~ H ~.4.L.:.aXr 5 > = 5 4 g V :.~.} ~.:.p 4 7 B ! u ) [  X3 d i h = & X o o . o 9 - +           ",
"              8 * O 9 9 . X X . X < 6 A Y E n n 6 > < 1 d J.n.^.k.V b j a > 6 F 4 g H W n.^.k 6 h t h Z R Q S A w 1 = X . o 0 : 9 * . #               ",
"              + 8 % @ $ 0 : v X * * O & & & & & O X X t b i p T M 4 5 < O . = = w 4 w 5 i M 5 O X O X X & & & & O O 2 O o X # @ @ 8 % @               ",
"                        $ ; $ ; $ # o . . . o o . . . = = < > . X . . . . . . X > = O X X X X . . . . o o . . X < : - % , ; @                         ",
"                                  @ y * o . 2 e 2 < o . X . X . . . . . . . . . X X . . . . . . . o . q : O q e : 8                                   ",
"                                    + 8 ; ; -   , 0 9 . . . . . . . . . . . . . . . . . . . . . O : e @ @ % @ $ @                                     ",
"                                                    % O . . o . . . o o . . . . . o . o o o . o * -                                                   ",
"                                                    % : . O q y O < 9 2 o o o O O : * 0 : v v 9 , +                                                   ",
"                                                      @ , ; + + , # 8 - # # # ; ; $ % + @ + + $                                                       ",
"                                                                                                                                                      ",
"                                                                                                                                                      ",
"                                                                                                                                                      "
};
