/* XPM */
static char *_4e9734cc9444ff6c2dd1a6a36ff522dMnKNRttC5z4fmYd2[] = {
/* columns rows colors chars-per-pixel */
"105 70 232 2 ",
"   c None",
".  c #151B2D",
"X  c #181D2E",
"o  c #181E30",
"O  c #151D31",
"+  c #1C2434",
"@  c #1F2837",
"#  c #1D2838",
"$  c #1C222F",
"%  c #222533",
"&  c #2B2B34",
"*  c #232D3A",
"=  c #242A37",
"-  c #342E37",
";  c #26313E",
":  c #2A333D",
">  c #2D3331",
",  c #343335",
"<  c #383837",
"1  c #35362F",
"2  c #453A3B",
"3  c #3C4232",
"4  c #484638",
"5  c #55483D",
"6  c #575837",
"7  c #4A5133",
"8  c #685D3D",
"9  c #5D6437",
"0  c #646938",
"q  c #7F7B3D",
"w  c #253241",
"e  c #2A3641",
"r  c #2D3A45",
"t  c #2D3D49",
"y  c #263847",
"u  c #323D45",
"i  c #323E47",
"p  c #4D3F40",
"a  c #2E424E",
"s  c #33434C",
"d  c #3B454A",
"f  c #3D4A4E",
"g  c #37464B",
"h  c #354953",
"j  c #3B4D53",
"k  c #334955",
"l  c #3E5156",
"z  c #3C545B",
"x  c #37515C",
"c  c #2F4450",
"v  c #3C5862",
"b  c #474846",
"n  c #594844",
"m  c #404F52",
"M  c #425154",
"N  c #42565A",
"B  c #445A5D",
"V  c #4B5A5B",
"C  c #50554D",
"Z  c #695547",
"A  c #7B5D4C",
"S  c #765B48",
"D  c #6B524B",
"F  c #796247",
"G  c #6B6559",
"H  c #71734D",
"J  c #455D63",
"K  c #485F61",
"L  c #425F69",
"P  c #466165",
"I  c #4B6464",
"U  c #4E6867",
"Y  c #44656C",
"T  c #4E6A6A",
"R  c #48656D",
"E  c #516B6A",
"W  c #546766",
"Q  c #53706F",
"!  c #5D7362",
"~  c #4A6D73",
"^  c #496972",
"/  c #4D747A",
"(  c #4F7579",
")  c #547373",
"_  c #557A7B",
"`  c #597D7C",
"'  c #557678",
"]  c #506F72",
"[  c #676A63",
"{  c #65756B",
"}  c #647974",
"|  c #7A7A6C",
" . c #5A6650",
".. c #85674A",
"X. c #936D4E",
"o. c #8A6753",
"O. c #887755",
"+. c #9C7353",
"@. c #947756",
"#. c #90744D",
"$. c #A67954",
"%. c #AB7C54",
"&. c #A27754",
"*. c #B07F55",
"=. c #897662",
"-. c #7B8239",
";. c #708C77",
":. c #718B6A",
">. c #838A39",
",. c #828938",
"<. c #92993B",
"1. c #AAAF3D",
"2. c #A09E3E",
"3. c #BBC23F",
"4. c #DAE13E",
"5. c #988758",
"6. c #92874E",
"7. c #A79849",
"8. c #BC994E",
"9. c #A9855A",
"0. c #B38355",
"q. c #B58A59",
"w. c #BA9358",
"e. c #A88F51",
"r. c #B3AC4C",
"t. c #96846A",
"y. c #928B74",
"u. c #B89563",
"i. c #AB8E65",
"p. c #AFAA72",
"a. c #92A461",
"s. c #C2985A",
"d. c #C3A84E",
"f. c #D5BB4E",
"g. c #CEA554",
"h. c #CAA754",
"j. c #C8B457",
"k. c #D5B752",
"l. c #CCB14F",
"z. c #C49B62",
"x. c #C8A568",
"c. c #D6B56F",
"v. c #D9C94C",
"b. c #DDD449",
"n. c #DADD46",
"m. c #D0CD4D",
"M. c #E3DC4D",
"N. c #DAE142",
"B. c #E4E347",
"V. c #E6E846",
"C. c #EAF144",
"Z. c #EDF34B",
"A. c #ECF25A",
"S. c #E9EB56",
"D. c #D7D271",
"F. c #E6D976",
"G. c #EDF365",
"H. c #F2F77B",
"J. c #E9EC71",
"K. c #D2E47F",
"L. c #BBCF60",
"P. c #557E82",
"I. c #5B8383",
"U. c #5E8B8C",
"Y. c #5A8488",
"T. c #5D8E91",
"R. c #5F9293",
"E. c #638C8C",
"W. c #648685",
"Q. c #69918D",
"!. c #77958C",
"~. c #658D93",
"^. c #629393",
"/. c #6B9493",
"(. c #669D9D",
"). c #6A9D9D",
"_. c #689698",
"`. c #729D9E",
"'. c #729892",
"]. c #768B84",
"[. c #6BA19F",
"{. c #67A09F",
"}. c #76A49E",
"|. c #6A9FA0",
" X c #6BA3A2",
".X c #67A0A0",
"XX c #73A4A4",
"oX c #7DABA2",
"OX c #74ABAB",
"+X c #7AABAC",
"@X c #77A7A7",
"#X c #7CAEB1",
"$X c #7DB3B4",
"%X c #7FB2B8",
"&X c #7BB0AE",
"*X c #86998D",
"=X c #92AD98",
"-X c #8AB4A7",
";X c #94B9A7",
":X c #81B3B3",
">X c #84BBBC",
",X c #8ABDBB",
"<X c #84B8B8",
"1X c #8FB6AC",
"2X c #B1A989",
"3X c #9BC7B8",
"4X c #8DC1BF",
"5X c #A6CAB8",
"6X c #B3CEB4",
"7X c #B7D4BA",
"8X c #ABC5A9",
"9X c #B4CD8A",
"0X c #D6CE8D",
"qX c #F4F796",
"wX c #EEEE8C",
"eX c #C3D8B7",
"rX c #D6CAA5",
"tX c #F5F6A6",
"yX c #EFE9AB",
"uX c #E5DB8C",
"iX c #88BFC0",
"pX c #87BFC0",
"aX c #8CC3C4",
"sX c #8FC7C8",
"dX c #92C6C3",
"fX c #9AC9C1",
"gX c #93C8C7",
"hX c #A1CDC2",
"jX c #FBFCD7",
"kX c #F9F8C9",
"lX c #FDFEE4",
"zX c #FFFFFC",
/* pixels */
"                                                                                                                                                                                                                  ",
"                                                                                                                                                                                                                  ",
"                                                                                                                                                                                                                  ",
"                                                                                          . . . . + e J B l l e @ . . .                                                                                           ",
"                                                                                w t + @ v ~ ^ ^ B I I.(.^.U.U.U.) l j l h n F d w                                                                                 ",
"                                                                            X y _.~.t U. X$X$XOX(.E.I.(.(.(.(.(.(.^.) U.U.5.F.8X( * o                                                                             ",
"                                                                        o k ^ $XaX~.~ $X$X$XOX.X(._.U.(.(.(.(.(.|._.E.(.(.C H XX>X@XY k o                                                                         ",
"                                                                      X s ^.OXaXaX X(. X.X(.(.(..XOX^._.(.(.OXOX$X X(. X<XY.(  XaXaX X^.s X                                                                       ",
"                                                              . . . . e E ^. XaXpX.X].t.*X<X<X>X+X^.` _.>X>XaXaX>XOX$XiXE.E.)..XiXaX X^.E e . . . .                                                               ",
"                                                            X * c a . s E U..X,XfX+X2XD.p.>X>X>XOX).Y.W.+X>XaXaXaXaXaX:Xt B _.$XdX,X.XU.E s . a c * X                                                             ",
"                                                        . . t T._.T + N E ' _.-X6X3XK.yX7.) _.(.(.(.(.^.U.(.>X,X>XXX:X~ e _.>X,X5X-X(._ E N + T _.T.t . .                                                         ",
"                                                      w x @ x .X^.I * l z E I.(.[. X;.5.b P._.).(.(.(.(.(.(.).(.I.` <X_ I I.).). X(.I.E j l * K ^..Xx @ x w                                                       ",
"                                                      Y {.( J /.t.@.b P Y z I.(.(._.) I I /.$XOX.X)..X+XOXOXXX_.).$XaX+X{ | t.y.(.(.I.z ; B i E ^._.J ( {.Y                                                       ",
"                                                    . ~ .XY.I ;.rXD.:._ |.+XOX X).) E I P Q @XOX#X$X+X@XE.I ) ` `.aX$X XG 7.n.D.=X).$X+X+XE.P I.(.^.I I..X~ .                                                     ",
"                                                  * e J (.P.j :.wXD.Z ( XXaXaXaX_.h l g l E _.pXaXiX:X@XW.M t ^.$X X[./ 4 l.tXlXrX-XaXaXaXE.I ^.(.I.m P.(.J e *                                                   ",
"                                                + l P M ` B d M H 5 u I W.aXfXaXaX#X^ X l ) _. XOX<X>X3X6X=XI ^.(.(.(.P.b s.F.H.r.XXaXaX_.E l B I M d B ` M P l +                                                 ",
"                                              X h E E M d d b b d + l _ U.@X6X5X$X<XP.+ K ) _.(.(.(.(.).[.).) ` (.(.(._.l 5 6.j.y.<X<XXX^._ N = u d d d d M E E h X                                               ",
"                                            . % j E B t j C i.7.< r I I.(.(.[.[._.v w e P _ _.(.(.(.(.(.(.(.J P (.(.(.U.B * e m Y..X).(.(.I.U t u u r i j i B E j % .                                             ",
"                                        X + t f f h s _.$X=XkXuX4 j E ` (.[.(.(. X+X+X#X/.) ) Y.^.(.(.(.(.^.N N E.(.).U.^ ).#XY.Y._.(..X{.I.E I e c ~.#X:X~.t h f f t +                                           ",
"                                        : B E B * + ~.sX%X:.S.x.2 S =.G } / Y z $XaXaXaXaX+XE.W.) Y._.(._.) l g _ XX>XiXaXaXfXhX,Xx Y / Y s l P I.|.>XaXaXaX( + * B E B :                                         ",
"                                      g M E U j * l E.aXiX_.;.C C c.D.j.@.- g I ^.$XaXaXaXaXaXaX_.s P ` ) E s + T @X#XdX5X5X8X-X}.U h + * t / ^.OXaXaXaXaXaXE.l + ; I E M g                                       ",
"                                      f I E B * N E ` $XaXaXdX=XD.lXqXS.@.d U E Y.(.OX3X5X7X7X7X6XI ; B K j t t j T E Q.-X}.(.(.(.) U B W { Q.aXaXaXaX>X>X$X` E N * B E P f                                       ",
"                                    : M I K * s E E E.{. X&X6Xp.C.H.uXc...; E E ) _._.[.[.-X;X;X!.u R W.~.Y.#X>X>X>XE.I I.(.(.(._.) I G 9.9.t.*X:XiX<X.X).(.U.E E s * f V m :                                     ",
"                                  . + : r e . i E E ` _.(.(.).;.n.1.l.8.6 t U E I.Y._.(.(.(.(.(.) r E :XaXaXaXdX5X5X/.j I.(.).!.].) i -.B.B.yXp._..X.X(.(.(.I.E E i X #.r.C + .                                   ",
"                                  + r j u X * e j I ) ^.(.(.(.|.;.< O.C ; r P ) _.(.(.(.(.(.(._.) * j I.(.OX$X;X-X}.' s _.(.' 5.p.{ < r.Z.qXkXS.;.(.(.(.(._.) I j e ; #.0X{ e +                                   ",
"                                . t E E g * P I I.).^.z v P._.(.^.k J U s r P ' (.(.(.(.(.(.(._.) i P I._.(.(.(.(..XY r Y._ < j.qXO.< 8.k.F.A.V. .T._.P.v z ^.).I.I P : b I E t .                                 ",
"                              o * j E U B e I Q :XaXaX#X^ j Y.$XE.J B s o + h L P._.(.(.(._.Y.} =.@.[ U.(.(.(.(.(.U.x k `.@XK H D.! y 5 6.d.m.H E XXU.j ^ #XaXaX:XQ I ; N E E j * X                               ",
"                              s m V O.5.G r I ` >XaXaXaXaXiXaXaX:X@XU j + v +X>X~.I.U._.(.(.R.C d.wXy.` U._ +X<X$X|.~.<XaXaX<X~.>XaX+Xv @  .:.`.>XaXaXiXaXaXaXaX>X` I ; l E E B j ;                               ",
"                              K V =.0Xn.9.[ ` OXaXaXaXaXaXaXaXaXaXaX/.N ; U /.aXaX#X`.OX.X^.I.j O.0XH J l s E.:XaX3X5X5X:XOXOX.XOX>X_.U ; N /.sXaXaXaXaXaXaXaXaXaXOX;.j r E E M N l +                             ",
"                            s E M 5.qXM.8.m _.XX<XaXaXaXaXdXdXdX,X`.W.P * B Q _.,XaXdXdX4X,X,X>X:X-X` ) s r E I..X X}.}.).(.(.(.(.^.Q B * P W.`.,XdXdXdXdXdX5X5X,X X_.I * l N r N U                               ",
"                            ; I j 9 r.h.F w _.(.). X X>X5XeXeX5X=XE E I * N E )  X$X5XeXeXeXeX7XOX X XI.j i E E.(.(.(.(.(.(.(.(.^.Q E N * I E E =X5XeXeXeX6XoXXX[.(.(.) + X + r N I r                             ",
"                            = f f ; : C : Y (.(.(.(.). X@XoXoX[.` E E I * N E Q U._.[.oXoXoXoXoX).(.(._ N s E ) I.(.(.(.(.(.(._.I.) E N * I E E ` [.oXoXoXoX'.]._.(..X/ * w * d f f =                             ",
"                            e d j e s Y.I.v P._.(.(.(.(.(.(.(.(.` E E K + * l I.U._.(.(.(.(.(.(.(.^.~ b ..b V N Y.|.(.(.(.(.(.(.(./ J N + K E E ` (.(.(.(.~ H D.*X_.P.z I.U.h : g d e X                           ",
"                          X u f * @ P I.(.~.~.OX X(.(.(.(.(.(.(.^.U B ; % Z Z V W Q.W.;.'.'.'.*X| M ..$.s.0.@., G { V V Q.W.x V V < S A % * B U ^.(.(./.Q.; r.kX0X'.~.~.(.I.P - < f u X                           ",
"                          o u d + s E E _ _.aXaXaX$X$XXX(.(.(.(.E.l @ . 2 0.z.q.w.u.< X.w.z.x.z.#.4 c.c.c.c.c.4 @.z.q.%.q.@., w.z.z.s.z.4 . @ l ^.'.y.i.9.5 Z m.2.W.sX_._ U [ e.u.G u X                           ",
"                        . = d : + K E E U Q `.,XaXaXaXaX$X X_._.) I J s % S u.9.5.O.& F q.q.x.q.Z - 9.u.q.9.O., Z u.u.9.@.Z & O.u.u.9.F = s J I T =.8.J.J.p.b W.:X$X`.) E B n j.yXG u = X                         ",
"                        . + * s P.' E U [ =.@.t.].+X$X$XOX_.T U E E E U * A +.%.&.X.& A $.+.0.0.Z - +.%.+.+.X., Z 9.0.%.+.S & X.%.%.+.S * U E E l n j.wXlXqXL.+XE.' E E E I f | p.< * + .                         ",
"                        . ; P ~ iX>X`.W.2XuXb.m.0 P (././.(.z j E E U l % X.0.0.$.%., ..w.0.0.0.F 2 0.0.$.0.0.2 F %.0.%.0.X.& +.0.0.$.X.% l U E l < h.c.J.Z.r.B E E U U ) W.`.>X#XR P ; .                         ",
"                        o l `  XaXaXaX=XJ.jXH.Z.2.* W i.t.U.l * I N ; X X ..0.q.$.+.& Z q.f.m.7.q - %.$.d.b.r.& F b.b.7.X.A > e.0.q.0...X X ; N z = F 8.7.r.H w N B ` ` @XaXaXaXaX X` l X                         ",
"                      . + K E..X<XaX#XH C.H.uXv.8., t.tX7.r h ( `.~.J g + & 2 6 7 < . % 5 0 9 3 1 > < 2 6 0 7 > , 0 0 7 & & X 4 6 5 5 & + f J ~.~.Y.Y.*X*X_.` * s E.>XaXaXdXaXaX<X.XE.K + .                       ",
"                      . r ) ^.(.XX$XU.C 2.B.f.8.5 ; 6.b.#.N #XdXfX}.Q E t X + . o + % X X 9 >.,.1.m.>.>.,.,.>.3.1.,.,.9 X X % % X . + X r E Q }.7XfXgXdXsXsXXX; l XX<X5X6X6X,X:XXX(.^.) r .                       ",
"                      . t Y.(.(.(.(._.^.^.a.5.C w s E ! J $X5X6X-XI.E E j - A n p A A 2 3 N.C.C.C.C.Z.Z.Z.Z.H.qXH.Z.C.N.3 2 n D p n A - j E E I.;X8XeX5X$XXX` s N _ (.XXXXXX).).(.(.(.Y.t .                       ",
"                      . t _.(.(.(.(.(.(.(.(.R.E s j U._._. XoXXX(.(.` E j & A S n o.o.D 4 V.C.C.H.kXlXjXjXG.G.G.G.C.C.V.4 D D n D A o.- j E ` (.(.).oXXX(._.Y.t j E _.(.(.(.(.(.(.(.(.^.t .                       ",
"                      . @ I..X X(.(.(.(.(.(.'.=.Z : I.(.(.(.(.(.(.(.^.E N + D +.X.%.8.#.< 1.C.C.G.jXzXzXzXtXH.C.C.C.C.1.& 6.e.A +.$.S % z E ^.(.(.(.(.(.(.'.].b * * Y (.(.(.(.(.(. X.XI.@ .                       ",
"                      + j ) _.aX$X.X(..X|.E.y.0Xj., c (.(.(.(.(.(.(._.Q U * D %.&.*.d.e.< <.C.C.tXzXzXzXzXjXkXtXC.C.C.<.- m.d.$.&.%.Z * E { /.(.(.(.(.(.!.9.f.u.| R J E.).).(..X$XaX_.) j +                       ",
"                    . e E ^.|.<XaX>X$X<XaXpX9XtXj.1 y (.(.(.(.(.(._.I.E l + Z %.+.+.q.r.6 <.C.C.wXqXqXqXtXtXqXH.C.C.C.>.4 n.j.%.+.%.Z + G 9.y._.(.(.(.R.[ d.A.yXy.,XiXiXaX<X$X>XaX<X|.^.E e .                     ",
"                    X s ' _.(..X<XdXgXgXaXaX3X9XZ ; s W.^..X.X.XE.) P j + . < %.%.+.q.b.6 <.C.C.C.C.C.A.jXjXtXH.C.C.N.1 6 B.x.$.9.%.< . 6.wXrX} E..X.X^.: e.v.n.:.$XdXaXaXdXgXdX<X.X(._.' s X                     ",
"                  . + K I.(.(.(. X;X=X=X;X3X1X X~ J $X:X>X>X>XiX$XE.] v x @ - %.&.D z.b.6 0 V.C.C.C.C.C.A.A.A.A.C.C.N., 6 B.x.X.z.%.- o 8 D.K.!.#XiXiX<Xx 4 5.:.P  X1X3X;X=X=X;X X(.(.(.I.K + .                   ",
"                  . @ I ` (.(.(.(.(.^.` Q.XX(._.) XXaXaXaXaXaXaXaXaXaX$X.X~ % X.$.O.x.b.-.1 N.C.C.C.C.B.C.C.C.C.C.C.N.1 0 S.i.S s.X.% Y Y } -XaXaXaXaXaX<XXX#X#X~ _.(.XXQ.` ^.(.(.(.(.(.` I @ .                   ",
"                  . s s w x U.I.(.(.(.(.(.(.(.^.'.hXdXaXaXaXaXaXaXaXaXaX_.a . S 0.q.c.k.3.3 N.C.B.v.b.B.B.C.B.M.B.C.N.< 6.k.q.X.q.S . a _.aXaXaXaXaXaXaXaXaXdXhX'.^.(.(.(.(.(.(.(.I.U.x w s s .                   ",
"                    ; o . X w + ~ (.(.(.(._.' U } 8X7XfXfXfX:X:X:X:X@X_.] j ; 2 %.q.x.h.3.3 n.b.v.v.b.v.k.f.g.k.B.C.m.1 3.h.0.$.%.2 ; j ] _.@X:X:X:X:XfXfXfX7X8X} U ' _.(.(.(.(.~ + w X . o ;                     ",
"                            .   @ Y.(.(.(.(.h t U ;.;X-X1X-X^.U.U.U.U.E.) E N & %.s.q.s.r.3 n.B.B.B.B.f.g.g.h.B.C.C.>.$ r.w.0.0.%.& N E ) E.U.U.U.U.^.-X1X-X;X;.U t h (.(.(.(.Y.@   .                             ",
"                                    _ P.Y v + + B ` (.(.(.(.(.(.(.(.(._.Y.I P u %.0.0.$.X.< n.f.v.b.k.g.g.k.v.v.v.B.,.X e.%.0.0...: P j / (.(.(.(.(.(.(.(.(.(.` B + + v Y P._                                     ",
"                                              X ; P (.[.(.(.(.(.(._.k w c ; P d A 0.0.+.X.3 n.V.C.V.k.g.g.g.l.g.k.B.>.X X.&.%.%.Z e s X w c k R.(.(.(.(.(.[.(.P ; X .                                             ",
"                                                  + Y / I.(.^.U.T./ + . .   ; + n &.%.X.&.8 n.C.V.v.g.g.g.g.g.g.v.f.0 2 %.+.%.$.Z $ o   . . X r _ R.(.(.( / Y + . X                                               ",
"                                                                              . 2 n X.Z $.5 -.V.B.b.          g.g.8.% 2 5 4 o.+.5 .                                                                               ",
"                                                                              X X X 2 2 +.5 . $                       X   . < n +                                                                                 ",
"                                                                                    X                                                                                                                             ",
"                                                                                                                                                                                                                  ",
"                                                                                                                                                                                                                  ",
"                                                                                                                                                                                                                  ",
"                                                                                                                                                                                                                  ",
"                                                                                                                                                                                                                  ",
"                                                                                                                                                                                                                  ",
"                                                                                                                                                                                                                  ",
"                                                                                                                                                                                                                  ",
"                                                                                                                                                                                                                  ",
"                                                                                                                                                                                                                  ",
"                                                                                                                                                                                                                  ",
"                                                                                                                                                                                                                  "
};
