/* XPM */
static char *_27294c4b5574c0d8fcae1c0b4a593f6HpKRCu3zXM7PPpz9[] = {
/* columns rows colors chars-per-pixel */
"105 70 228 2 ",
"   c None",
".  c #161C2E",
"X  c #191E2F",
"o  c #181E30",
"O  c #151D31",
"+  c #1B202F",
"@  c #1C2334",
"#  c #1F2837",
"$  c #1D2838",
"%  c #222533",
"&  c #222937",
"*  c #2C2B34",
"=  c #232D3A",
"-  c #2D2F39",
";  c #332E37",
":  c #26313E",
">  c #2A333D",
",  c #353236",
"<  c #393639",
"1  c #35362F",
"2  c #453A3B",
"3  c #4B3E3C",
"4  c #403738",
"5  c #4C433C",
"6  c #464437",
"7  c #52433D",
"8  c #574A3E",
"9  c #5E513C",
"0  c #62623C",
"q  c #253241",
"w  c #2A3641",
"e  c #2D3A45",
"r  c #2D3D49",
"t  c #263847",
"y  c #323D45",
"u  c #303F48",
"i  c #3B3C40",
"p  c #4D3F40",
"a  c #2E424E",
"s  c #33434C",
"d  c #3B454A",
"f  c #37484F",
"g  c #3D4A4E",
"h  c #384246",
"j  c #354953",
"k  c #3B4D53",
"l  c #334955",
"z  c #3E5156",
"x  c #3C545B",
"c  c #37515C",
"v  c #2F4450",
"b  c #3C5862",
"n  c #474846",
"m  c #594843",
"M  c #4C574B",
"N  c #404F52",
"B  c #425154",
"V  c #42565A",
"C  c #445A5D",
"Z  c #4C5B5C",
"A  c #4A5555",
"S  c #52544E",
"D  c #6B5343",
"F  c #695548",
"G  c #7B5D4C",
"H  c #765B48",
"J  c #6B5348",
"K  c #5A6650",
"L  c #7A6248",
"P  c #6B6559",
"I  c #71734D",
"U  c #455D63",
"Y  c #485F61",
"T  c #425F69",
"R  c #466165",
"E  c #4B6464",
"W  c #4E6867",
"Q  c #44656C",
"!  c #4E6A6A",
"~  c #48656D",
"^  c #516B6A",
"/  c #546766",
"(  c #53706F",
")  c #5D7362",
"_  c #4A6D73",
"`  c #496972",
"'  c #506F72",
"]  c #4D747A",
"[  c #4F7579",
"{  c #547373",
"}  c #557A7B",
"|  c #597D7C",
" . c #557678",
".. c #676A63",
"X. c #65756B",
"o. c #647974",
"O. c #7A7A6C",
"+. c #85664A",
"@. c #936E4D",
"#. c #87744A",
"$. c #8A6753",
"%. c #946E52",
"&. c #887755",
"*. c #9C7353",
"=. c #947756",
"-. c #A27654",
";. c #A67A54",
":. c #AB7D54",
">. c #A67C58",
",. c #877862",
"<. c #8D7462",
"1. c #7D813B",
"2. c #778554",
"3. c #66887C",
"4. c #768F74",
"5. c #6B927F",
"6. c #B4B53E",
"7. c #A09E3E",
"8. c #E2E83F",
"9. c #988758",
"0. c #908651",
"q. c #A69849",
"w. c #BC994E",
"e. c #AA855A",
"r. c #B48355",
"t. c #B6895A",
"y. c #BD915E",
"u. c #AB9150",
"i. c #99A549",
"p. c #B2AD50",
"a. c #96846A",
"s. c #928B74",
"d. c #B89563",
"f. c #AB8E65",
"g. c #8CA379",
"h. c #AFAA72",
"j. c #C2955C",
"k. c #C9B64D",
"l. c #C6B457",
"z. c #CAAB51",
"x. c #C39A62",
"c. c #C69B62",
"v. c #C9A567",
"b. c #D9B26E",
"n. c #D6B970",
"m. c #BBCF60",
"M. c #DCDB4B",
"N. c #D4CD50",
"B. c #ECF247",
"V. c #E7EB52",
"C. c #D7D271",
"Z. c #E6D976",
"A. c #EBEF72",
"S. c #DBDE6D",
"D. c #557E82",
"F. c #568285",
"G. c #5B8383",
"H. c #5D848A",
"J. c #5E8B8C",
"K. c #5B8788",
"L. c #5D8E91",
"P. c #5F9293",
"I. c #638C8C",
"U. c #648685",
"Y. c #768B84",
"T. c #69918D",
"R. c #77958C",
"E. c #658D93",
"W. c #629393",
"Q. c #6B9493",
"!. c #669D9D",
"~. c #6A9D9D",
"^. c #689698",
"/. c #729D9E",
"(. c #729892",
"). c #6BA19F",
"_. c #67A09F",
"`. c #76A49E",
"'. c #6A9FA0",
"]. c #6BA3A2",
"[. c #67A0A0",
"{. c #73A4A4",
"}. c #7DABA2",
"|. c #74ABAB",
" X c #7AABAC",
".X c #77A7A7",
"XX c #7CAEB1",
"oX c #7DB3B4",
"OX c #7FB2B8",
"+X c #7BB0AE",
"@X c #86998D",
"#X c #88A799",
"$X c #99B296",
"%X c #8AB4A7",
"&X c #94B9A7",
"*X c #81B3B3",
"=X c #82B7B9",
"-X c #84BBBC",
";X c #8ABDBB",
":X c #88BAB5",
">X c #96BCB3",
",X c #84AEA2",
"<X c #B1A989",
"1X c #B4CD8A",
"2X c #9BC7B8",
"3X c #8DC1BF",
"4X c #A6CAB8",
"5X c #B3CEB4",
"6X c #B7D4BA",
"7X c #ABC5A9",
"8X c #D6CE8D",
"9X c #E5DB8C",
"0X c #F4F798",
"qX c #ECEA8D",
"wX c #C3D8B7",
"eX c #C1D7B6",
"rX c #D6CAA5",
"tX c #F2EEA7",
"yX c #88BFC0",
"uX c #87BFC0",
"iX c #8CC3C4",
"pX c #8FC7C8",
"aX c #92C6C3",
"sX c #9AC9C1",
"dX c #93C8C7",
"fX c #A1CDC2",
"gX c #F9F9CC",
"hX c #FEFEE5",
/* pixels */
"                                                                                                                                                                                                                  ",
"                                                                                                                                                                                                                  ",
"                                                                                                                                                                                                                  ",
"                                                                                          . . . . @ w U C z z w # . . .                                                                                           ",
"                                                                                q r @ $ b _ ` ` C E G.!.W.J.J.J.{ z k z j m H h q                                                                                 ",
"                                                                            X t ^.E.r J.].oXoX|.!.I.G.!.!.!.!.!.!.W.{ J.J.9.Z.7X[ = o                                                                             ",
"                                                                        o l ` oXiXE._ oXoXoX|.[.!.^.J.!.!.!.!.!._.^.I.!.!.S I {.-X.XQ l o                                                                         ",
"                                                                      X s W.|.iXiX].!.].[.!.!.!.[.|.W.^.!.!.|.|.oX].!.].=XH.[ ].iXiX].W.s X                                                                       ",
"                                                              . . . . w ^ W.].iXuX[.Y.a.@X=X=X-X XW.| ^.-X-XiXiX-X|.oXyXI.I.~.[.yXiX].W.^ w . . . .                                                               ",
"                                                            X = v a . s ^ J.[.;XsX X<XC.h.-X-X-X|.~.K.U. X-XiXiXiXiXiX*Xr C ^.oXaX;X[.J.^ s . a v = X                                                             ",
"                                                        . . r L.^.! @ V ^  .^.,X5X2XS.tXq.{ ^.!.!.!.!.W.J.!.-X;X-X{.*X_ w ^.-X;X4X,X!.} ^ V @ ! ^.L.r . .                                                         ",
"                                                      q c $ c [.W.E = z x ^ G.!.).].4.0.n D.^.~.!.!.!.!.!.!.~.!.G.| =X} E G.~.~.].!.G.^ k z = Y W.[.c $ c q                                                       ",
"                                                      Q _.[ U Q.a.=.n R Q x G.!.!.^. .E E Q.oX|.[.~.[. X|.|.{.^.~.oXiX XX.O.a.s.!.!.G.x : C u ^ W.^.U [ _.Q                                                       ",
"                                                    . _ ).G.E 4.rXS.O.} ]. X|.].~. .^ E R ( .X|.XXoX X.XI.E { | /.iX*X].P u.M.C.$X~.oX X XI.R G.!.W.E G.[._ .                                                     ",
"                                                  = w U !.| k 4.qXC.F ' {.iXiXiX^.j z s z ^ ^.uXiXyX*X.XU.B r W.oX].).] 6 k.tXhXrX%XiXiXiXI.E W.!.G.N D.!.U w =                                                   ",
"                                                @ z R B } C d B I 8 y E U.iXsXiXiXXX` X z { ^.].|.=X-X2X5X$XE W.!.!.!.D.n j.Z.A.p.{.iXiXQ.^ z C E B d C } B R z @                                                 ",
"                                              X j ^ ^ B d d n n h @ z } J..X5X4XoX=XD.@ Y { ^.!.!.!.!.~.).~.{ } !.!.!.^.z 5 0.k.g.=X=X{.W.} V & y d d d d B ^ ^ j X                                               ",
"                                            . & k ^ C r k S f.q.< e E G.!.!.).).^.b q w R } ^.!.!.!.!.!.!.!.U R !.!.!.J.C = w N G.[.~.!.!.G.W r y y e u k u C ^ k & .                                             ",
"                                        X @ r g g j s ^.oX$XgXqX6 k ^ | !.).!.!.]. X XXXQ.{ { G.W.!.!.!.!.W.V V I.!.~.J.` ~.XXH.F.^.!.).!.G.^ E w v E.XX*XE.r j g g r @                                           ",
"                                        > C ^ C = @ E.pXOX2.S.v.2 H <.P o.] Q x oXiXiXiXiX XI.U. .G.^.!.^. .z f } {.-XyXiXiXsXfX:Xc Q ] Q f z R F.'.-XiXiXiX[ @ = C ^ C >                                         ",
"                                      h B ^ W k = z I.iXyX^.4.M S n.C.l.%.; f E W.oXiXiXiXiXiXiX^.s R }  .^ s @ ! .XXXaX4X4X7X,X`.W f @ : r ] W.|.iXiXiXiXiXI.z @ : E ^ B h                                       ",
"                                      g E ^ C = V ^ | oXiXiXaX$XS.hX0XV.=.d W ^ G.!.|.2X4X5X6X6X5XE : C Y k r r k ! ^ T.%X`.!.!.!.{ ^ C / X.T.iXiXiXiX-X-XoX| ^ V = C ^ R g                                       ",
"                                    > B E Y = s ^ ^ J._.{.+X5Xh.B.A.qXn.+.: ^ ^  .^.^.).).,X&X&XR.y ~ U.E.H.XX-X-X-XI.E G.!.!.!.^.{ E P e.e.a.@X*XyX=X[.~.!.J.^ ^ s = g Z N >                                     ",
"                                  . @ > e w . u ^ ^ | ^.!.!.~.3.M.6.k.w.9 r W ^ G.K.^.!.!.!.!.!.{ e ^ *XiXiXiXaX4X4XQ.k G.!.~.R.Y.{ u 1.M.V.tXh.^.[.[.!.!.!.G.^ ^ u X #.p.M @ .                                   ",
"                                  @ e k y X = w k E { W.!.!.!.'.3.< #.M : e R { ^.!.!.!.!.!.!.^.{ = k G.!.|.oX>X,X`.} s ^.!. .0.h.X.< p.B.0XgXV.4.!.!.!.!.^. .E k w : #.8XX.w @                                   ",
"                                . r ^ ^ d = R E F.~.W.x b D.^.!.W.l U W s e R } !.!.!.!.!.!.!.^.{ u R G.^.!.!.!.!.[.Q e K.} < l.0X&.< w.l.Z.V.8.K L.^.D.b x W.~.F.E R > n E ^ r .                                 ",
"                              o = k ^ W C w E ( *XiXiXXX` k H.oXI.U C s o @ j T D.^.!.!.!.^.G.o.,.=...J.!.!.!.!.!.J.c l /..XY I C.) t 5 9.z.N.I ^ {.H.k ` XXiXiX*X( E : V ^ ^ k = X                               ",
"                              s N Z &.9.P e E | -XiXiXiXiXyXiXiX*X.XW k @ b  X-XE.G.J.^.!.!.P.S z.qXs.} J.}  X=XoX'.E.=XiXiX=XE.-XiX Xb & K 4./.-XiXiXyXiXiXiXiX-X| E : V ^ ^ C k :                               ",
"                              Y Z <.8XM.e...} |.iXiXiXiXiXiXiXiXiXiXQ.V : W Q.iXiXXX/.|.[.W.G.k &.8XI U z s I.*XiX2X4X4X*X|.|.[.|.-X^.W : V Q.pXiXiXiXiXiXiXiXiXiX|.3.k e ^ ^ V V z @                             ",
"                            s ^ A 0.0XM.w.N ^.{.=XiXiXiXiXaXaXaX;X/.I.R = C ( ^.;XiXaXaX3X;X;X-X*X,X|  .s e ^ G.[.].`.`.~.!.!.!.!.W.( C = R I./.;XaXaXaXaXsX4X4X:X].^.E = z V e V W                               ",
"                            : E k 0 p.z.L q ^.!.~.].].-X4XwXeX4X#X^ ^ E = V ^ { ].oX4XwXwXwXwX5X|.].].G.k u ^ I.!.!.!.!.!.!.!.!.W.( ^ V = E ^ ^ #X4XeXwXwX5X}.{.).!.!.{ @ X @ e V E e                             ",
"                            & g g : - S > Q !.!.!.!.~.]..X}.}.).| ^ ^ E = V ^ ( J.^.).}.}.}.}.}.~.!.!.} V s ^ { G.!.!.!.!.!.!.^.G. .^ V = E ^ ^ | ).}.}.}.}.R.Y.Q.!.[.] = q = h g g &                             ",
"                            w d k w s K.G.b D.^.!.!.!.!.!.!.!.!.| ^ ^ Y @ = z G.J.^.!.!.!.!.!.!.!.W._ n +.n Z V G.!.!.!.!.!.!.!.!.] U V @ Y ^ ^ | !.!.!.!._ I C.s.^.D.b F.J.s > h d w X                           ",
"                          X y g = # R G.!.E.E.|.].!.!.!.!.!.!.!.W.W C : % D F A / T.I.4.(.(.(.@XO.A L ;.j.r.=., P X.Z Z T.U.c Z Z < H L % = C W W.!.!.Q.T.> p.gX8X(.E.E.!.G.R - < g y X                           ",
"                          o y d @ s ^ ^ } Q.iXiXiXoXoX{.!.!.!.!.I.z # . 2 r.c.t.d.d.< @.y.x.v.c.&.5 b.b.b.b.b.5 =.c.t.:.t.=., y.x.x.j.c.5 . # z W.(.s.f.e.5 D N.i.U.pX^.} W ..u.d.P y X                           ",
"                        . & d > @ Y ^ ^ W ( /.;XiXiXiXiXoX].^.^. .E U s & H d.e.9.&.- L t.t.v.t.F ; e.d.e.e.&., F d.d.e.=.F - &.d.d.e.L & s U E ! ,.w.S.A.h.n U.*XoX/.{ ^ C m l.tXP y & .                         ",
"                        . @ = s D. .^ W ..,.=.a.Y. XoXoX|.W.! W ^ ^ ^ W = G *.:.-.@.- G ;.*.r.r.D ; *.:.*.*.@., D e.r.:.*.H * $.;.:.*.H = W ^ ^ z m l.qXhX0Xm. XI. .^ ^ ^ E g O.h.< = @ .                         ",
"                        . : U _ yX-X/.U.<X9XM.N.0 R !.Q.Q.!.x k ^ ^ E z & @.r.r.;.:., +.y.r.r.r.L 4 r.r.;.r.r.4 L ;.r.;.r.@.* *.r.r.;.@.& z W ^ z < c.n.A.B.p.C ^ ^ W W { U./.-XXX~ R : .                         ",
"                        o z | ].iXiXiX$XA.gXA.B.7.= / f.a.J.z = E V : X X +.r.:.*.@.- J e.r.:.%.D , :.;.r.r.-.- D r.r.*.@.G * @.;.r.r.+.X X : V x - L w.q.p.I : V C | | .XiXiXiXiX].| z X                         ",
"                      . @ Y I.[.=XiXXXI B.A.9XN.w.< a.tXq.y j [ /.E.U f @ * 5 3 < ; . % 3 7 3 , % X 4 3 7 7 < X % 7 7 < * * X , 3 7 7 * @ g U E.E.H.H.#X@X^.| & s I.-XiXiXaXiXiX=X[.I.Y @ .                       ",
"                      . e { W.!.{.oXJ.M i.M.k.w.8 : 0.N.#.V XXaXsX`.( ^ r X @ X X % % X . . . . X X . . . . . X X . . . . . % % X X @ X e ^ ( `.6XfXdXaXpXpX{.: z {.=X4X5X5X>X*X{.!.W.{ e .                       ",
"                      . r K.!.!.!.!.^.W.W.g.9.M : s ^ ) U oX4X5X%XG.^ ^ k ; G m p G G 2 . . . . X X X . . X X X X X X X . 2 m J p m G ; k ^ ^ G.&X7XeX4XoX{.| s V } !.{.{.{.~.~.!.!.!.K.r .                       ",
"                      . r ^.!.!.!.!.!.!.!.!.L.^ s k J.^.^.].}.{.!.!.| ^ k * G H m $.$.J X . X X X X . . . . X X X X X X X J J m J G $.; k ^ | !.!.~.}.{.!.W.H.r k ^ ^.!.!.!.!.!.!.!.!.^.r .                       ",
"                      . # F.[.].!.!.!.!.!.!.(.,.F > F.!.!.!.!.!.!.!.W.^ V @ J *.@.;.;.$.- . X X X X . . . . X X X X X X % G %.G *.;.H & x ^ W.!.!.!.!.!.!.(.Y.n = = Q !.!.!.!.!.!.].[.F.# .                       ",
"                      @ k { ^.iXoX[.!.[.~.I.g.8Xl., v !.!.!.!.!.!.!.^.( W = J :.-.r.r.%.< . X X X X . . . X X X X X X . < ;.:.;.-.:.D = ^ X.Q.!.!.!.!.!.R.e.k.d.O.~ U I.'.[.!.[.oXiX^.{ k @                       ",
"                    . w ^ W.'.=XiX-XoX=XiXyX1XtXn.1 t ^.!.!.!.!.!.^.G.^ z @ D :.*.*.:.-.2 . X X X X . . . . X X X X X . 2 :.y.:.*.:.D @ P e.s.^.!.!.!.P...z.V.tXs.;XyXyXiX=XoX-XiX=X'.W.^ w .                     ",
"                    X s  .^.!.[.=XaXdXaXiXiX2X1XF : s I.W.[.[.[.I.{ R k @ . < :.;.*.t.r.3 . X X . . . . . . . . X X X . 2 t.v.>.e.:.< . 0.qXrXo.I.[.[.P.> u.N.M.2.oXaXiXiXaXdXaX=X[.!.^. .s X                     ",
"                  . @ Y G.!.!.!.].&X$X#X>X2X:X]._ U oX*X-X-X-XyXoXI.' b c $ ; :.;.J x.r.2 . X X X . . . . . . . X X X . 2 y.v.%.x.;.; O 0 C.S.R.XXyXyX=Xc 5 9.2.R ].:X2X>X#X$X&X].!.!.!.G.Y @ .                   ",
"                  . # E | !.!.!.!.!.W.| T.{.!.^.{ {.iXiXiXiXiXiXiXiXiXoX[._ % @.;.&.v.r.m X X X X X X X . . . . . . X . m y.e.H j.@.% Q Q o.,XiXiXiXiXiX=X{.XXXX_ ^.!.{.T.| W.!.!.!.!.!.| E # .                   ",
"                  . s s q c J.F.!.!.!.!.!.!.!.W.(.fXaXiXiXiXiXiXiXiXiXiX^.a . H r.t.b.y.@.+ X X X X X X . . . . X . X X +.y.t.%.r.H . a ^.iXiXiXiXiXiXiXiXiXaXfX(.W.!.!.!.!.!.!.!.F.J.c q s s .                   ",
"                    : o . X q @ _ !.!.!.!.^.} W o.7X6XsXsXsX*X*X*X*X.X^.' k : 2 ;.t.v.t.@.X X X . . X X X X X X X X X X @.t.r.;.:.2 : k ' ^..X*X*X*X*XsXsXsX6X7Xo.W } ^.!.!.!.!._ @ q X . o :                     ",
"                            .   $ K.!.!.!.!.j r W 3.&X%X%X%XW.J.J.J.J.I. .^ V - ;.j.t.r.@.X X X . X X X X X X X X X X + @.r.r.r.:.- V ^  .I.J.J.J.J.W.%X%X%X&X3.W r j !.!.!.!.K.$   .                             ",
"                                    } D.Q b @ @ C | !.!.!.!.!.!.!.!.!.^.G.E R i ;.r.r.-.@.X X X . . X X X X X X X X X X @.:.r.r.+.> R k ] !.!.!.!.!.!.!.!.!.!.| C @ @ b Q D.}                                     ",
"                                              X : R !.).!.!.!.!.!.^.l q v : R h G r.r.*.@.@ X X . .         X X X X X @ @.-.:.;.D w s X q v l L.!.!.!.!.!.).!.R : X .                                             ",
"                                                  @ Q ] F.!.W.J.L.] @ . .   : @ m -.:.%.-.3 . X .   X X       X X X . 3 :.*.:.;.D + o   . . X e } L.!.!.[ ] Q @ . X                                               ",
"                                                                              . 2 m @.D ;.7 . X . .         X X X X . 2 8 5 $.*.8 .                                                                               ",
"                                                                              X X X 3 3 *.7 . X                   X X X   . < m @                                                                                 ",
"                                                                                    X                             X                                                                                               ",
"                                                                                                                                                                                                                  ",
"                                                                                                                                                                                                                  ",
"                                                                                                                                                                                                                  ",
"                                                                                                                                                                                                                  ",
"                                                                                                                                                                                                                  ",
"                                                                                                                                                                                                                  ",
"                                                                                                                                                                                                                  ",
"                                                                                                                                                                                                                  ",
"                                                                                                                                                                                                                  ",
"                                                                                                                                                                                                                  ",
"                                                                                                                                                                                                                  ",
"                                                                                                                                                                                                                  "
};
