/* XPM */
static char *_4043ea23d244961c91f91e7515bd76cJsyCSOynhiL3qIe5[] = {
/* columns rows colors chars-per-pixel */
"75 50 256 2 ",
"   c #47704C",
".  c #151A2C",
"X  c #151B2E",
"o  c #151B2E",
"O  c #13192B",
"+  c #171C2E",
"@  c #292E2E",
"#  c #151A2C",
"$  c #161B2D",
"%  c #14192A",
"&  c #13172A",
"*  c #141A2C",
"=  c #151B2D",
"-  c #151B2D",
";  c #161B2D",
":  c #161C2E",
">  c #151B2D",
",  c #151B2D",
"<  c #151B2D",
"1  c #14192B",
"2  c #181F30",
"3  c #161B2D",
"4  c #151B2D",
"5  c #161C2E",
"6  c #141B2D",
"7  c #1F2635",
"8  c #171E2F",
"9  c #344852",
"0  c #1B2434",
"q  c #476A71",
"w  c #161C2D",
"e  c #20262F",
"r  c #649A9A",
"t  c #192031",
"y  c #1C2434",
"u  c #1F2A39",
"i  c #3A464C",
"p  c #3C555C",
"a  c #181F30",
"s  c None",
"d  c #B1B83E",
"f  c #3E5A65",
"g  c #2F3B44",
"h  c #324A56",
"j  c #2C3743",
"k  c #454444",
"l  c #192132",
"z  c #233241",
"x  c #25313E",
"c  c #273540",
"v  c #CEA554",
"b  c #1B2436",
"n  c #2C3943",
"m  c #293946",
"M  c #384D55",
"N  c #344953",
"B  c #527D82",
"V  c #5B8C8E",
"C  c #4E777C",
"Z  c #4A7077",
"A  c #383237",
"S  c #363F45",
"D  c #D7A856",
"F  c #181E2F",
"G  c #695841",
"H  c #433C3C",
"J  c #263543",
"K  c #D9C44D",
"L  c #3A5660",
"P  c #3E5D66",
"I  c #E5E745",
"U  c #CEA654",
"Y  c #151A2D",
"T  c #578488",
"R  c #6D5447",
"E  c #6A7F71",
"W  c #35484F",
"Q  c #49646F",
"!  c #D3AD53",
"~  c #669D9D",
"^  c #679E9E",
"/  c #659C9C",
"(  c #8CC4C5",
")  c #405459",
"_  c #689F9F",
"`  c #659B9B",
"'  c #314049",
"]  c #629494",
"[  c #7CB2B2",
"{  c #598283",
"}  c #506B6A",
"|  c #4D6767",
" . c #70A5A4",
".. c #7CAAA9",
"X. c #5C8688",
"o. c #56797A",
"O. c #547373",
"+. c #72AAA9",
"@. c #85B8B7",
"#. c #76ADAD",
"$. c #445A5F",
"%. c #3A4B50",
"&. c #A37A54",
"*. c #689294",
"=. c #547678",
"-. c #536F6F",
";. c #6DA1A0",
":. c #89C0C1",
">. c #EAF044",
",. c #1C2332",
"<. c #2E3C46",
"1. c #7DAEAC",
"2. c #364851",
"3. c #6F9B9D",
"4. c #3B4E54",
"5. c #485F60",
"6. c #463C3B",
"7. c #78A6A6",
"8. c #659899",
"9. c #5D8989",
"0. c #6DA3A3",
"q. c #8EC2C1",
"w. c #87BDBE",
"e. c #AD7E55",
"r. c #232C39",
"t. c #537C7F",
"y. c #8FC6C6",
"u. c #ACCFBD",
"i. c #84BBBB",
"p. c #2D3843",
"a. c #29333E",
"s. c #5F8A8D",
"d. c #3F5055",
"f. c #597F7F",
"g. c #719792",
"h. c #76A19E",
"j. c #476265",
"k. c #34454E",
"l. c #4D7076",
"z. c #373537",
"x. c #E4EA49",
"c. c #755F4A",
"v. c #5B4C42",
"b. c #3C4245",
"n. c #47676C",
"m. c #659696",
"M. c #629091",
"N. c #9F7552",
"B. c #465759",
"V. c #936E50",
"C. c #5E8D8E",
"Z. c #618F90",
"A. c #4E463F",
"S. c #EDF348",
"D. c #97C1B5",
"F. c #A3CABA",
"G. c #3F575F",
"H. c #88654C",
"J. c #685245",
"K. c #86B1A5",
"L. c #91BBAB",
"P. c #333C43",
"I. c #917651",
"U. c #B28355",
"Y. c #DBE149",
"T. c #678E8C",
"R. c #4B6466",
"E. c #84B3B0",
"W. c #2E2F33",
"Q. c #96C7C2",
"!. c #5E7D7A",
"~. c #998B64",
"^. c #836E48",
"/. c #78866B",
"(. c #94973E",
"). c #EFF478",
"_. c #4D504A",
"`. c #DFD649",
"'. c #DCCE4E",
"]. c #5F9293",
"[. c #445D64",
"{. c #A8825A",
"}. c #626935",
"|. c #5D6037",
" X c #7B785B",
".X c #CFC87D",
"XX c #9FC3B1",
"oX c #CEA558",
"OX c #E2DF47",
"+X c #648784",
"@X c #F3F795",
"#X c #BD935E",
"$X c #574543",
"%X c #A08D51",
"&X c #5A5A50",
"*X c #D9C555",
"=X c #B1865A",
"-X c #C6CA46",
";X c #BFAC4D",
":X c #8D7F4F",
">X c #B49854",
",X c #D2BB6B",
"<X c #BAAB62",
"1X c #7B9C93",
"2X c #F6F8B9",
"3X c #85A79A",
"4X c #545C59",
"5X c #6B6545",
"6X c #7C8141",
"7X c #BFB34B",
"8X c #54655F",
"9X c #ACA773",
"0X c #759388",
"qX c #494E34",
"wX c #616861",
"eX c #D1AB65",
"rX c #A2844D",
"tX c #627268",
"yX c #BAA151",
"uX c #D3C157",
"iX c #FEFFF2",
"pX c #6E8B7A",
"aX c #89917E",
"sX c #757155",
"dX c #D0B551",
"fX c #D0A953",
"gX c #98B09B",
"hX c #667973",
"jX c #B19D6B",
"kX c #A4A082",
"lX c #B48C5F",
"zX c #A3A943",
"xX c #AAB170",
"cX c #9FB067",
"vX c #87946D",
"bX c #DADA78",
"nX c #B2B88A",
"mX c #555B34",
"MX c #EEF466",
"NX c #F8FBA7",
"BX c #ECEC92",
"VX c #8BB7A8",
"CX c #71564A",
"ZX c #C8BE47",
"AX c #D5E092",
"SX c #878B3B",
"DX c #BEC181",
"FX c #6E8175",
"GX c #ECE47F",
"HX c #A79F45",
"JX c #9F9970",
"KX c #FAFCCC",
"LX c #897B67",
"PX c #B5D2B8",
"IX c #C1B66A",
"UX c #8AA472",
/* pixels */
"                                                                                                                                                      ",
"                                                                  % > & & & & & > %                                                                   ",
"                                                        O & + + b t y c p p p 9 x t b + + & O                                                         ",
"                                                    $ < j Q s q s.9.t.o.] 8.] ] f.R.n.8X%XE z < $                                                     ",
"                                                  . z f 7.3.t.[ [ +._ ] ] ~ ~ ~ _ Z.8.+X~.E.*.f z .                                                   ",
"                                            & * 1 u l.+.( +.g.3. . . .3.M. .+.[ [ ;.#.;.{ +.( +.l.u 1 * &                                             ",
"                                          + u J l 2.{  .q.1.kX9X@.:.[ ] X.E.:.y.:.i.1.$.M.[ q. .{ 2.l J u +                                           ",
"                                      3 w u t.{ a.) O.m.L.XXAXIX!./ _ ~ ] M.+.i.[ 1.=.$.#.w.L.m.O.) a.{ t.u w 3                                       ",
"                                    # N n.%.*.FXb.) $.f.^ ^ pX4XX. .;.~ 0.0.0./ C...*.-.pXg.^ { 4.2.' { m.2.n.N #                                     ",
"                                  O w f ~ -.aX.X:Xt.*.0.0.{ } j.!.#.#.#...*.o.X...w.3. XdXDXh. .Z.f.R.] C.-.~ f w O                                   ",
"                                O 2 <.) M.$./..XsX=.@.( @.O.%.k.-.7.i.w.E.1XB.t.+.0.l.^.GX2XgX( ( T.} Z.O.$.M.) <.2 O                                 ",
"                                1 g | B.) i %.b.' O.h.F.q.@.[.<.=./ _ +.#.VX0Xf.~ ^ X.&X>X-X3Xw. .o.%.' %.i ) B.| g 1                                 ",
"                            = 6 y 4.R.4.) LX%Xa.$.9.^  . .t.2.G.o.m.~ ~ / ~ { 5.` ^ 9.2.i 8X/ 0.^ 9.5.p.P.%.) 4.R.4.y 6 O                             ",
"                          % w ' ) P.' 3....X.Xb.wX!.] X.M.@.@.1.+Xo.X.m.^ ` O.d.s.+.;.3.@.7.s.X.].l.j.$.q 1.w.*.<.P.) ' 2 %                           ",
"                          S 9 } $.a.j.w.1.UXsXsX,X>X_.2.=.[ q.y.q.@.g.[.t.f.5.a.=.1.q.F.XXL.f.2.s ' q ` i.( y.@.5.r.4.} 9 S                           ",
"                        # k 5.R.<.) O. .w.q.nXBXNX*Xv.5.O.8.+.L.F.PXXXd.d.R.G.[.l.!.+X7.;.^ { | 4XtX0Xw.( i.[  .O.) p.5.$.k #                         ",
"                        2 s %.<.r.| O.m._ ..UXY.*X>Xb.j.-.9.` ~ ;.7.+X2.*.[ @.y.Q...R.C._ g.f.B.(.uXnX1X#. .~ ` O.| r.v. Xg 2                         ",
"                      * y k.P.,.p.) -.{ 8.~ ^ tX5X&Xp.5.X./ ~ ~ ~ ^ o.p.O.;.[ @.K.T.) m.f.JXaX_.-X).NXcX] ^ 8.X.-.) p.5X9X%.y *                       ",
"                    O a k.} ) ' | *.1.X.G.t.0.=.) ) r.4.t.` ^ ~ ` M.hX&Xo.` ~ / / =.k.Z.B.<XxX6.%XuXY.6Xs.t.G.X.1.*.| ' ) } k.F &                     ",
"                  @ ; i B. XwXi O.E.y.( ....i.h.-.<.s s.8.s.] / ` O.%X,XhX9.M.[ #.X.3.:.7.0XVXX.b.5XvX3.i.....( ( E.O.k.B.} B.g b #                   ",
"                  = M 5.LXbXyXwX8.:.( ( ( ( ( ( 3.%.%.*.:.@...#.;.{ /.xX8X4.[.h.@.D.D.#.+.0.[ *.%.%.3.( ( ( ( ( Q.:.` $.k.| d.$.m * @                 ",
"                  , N $.6X'.rXG._ +.[ i.F.u.F.1Xo.) ' } *.i.F.u.u.u.@.0.9.2.d.{ ~ ^ ^ / / ~ 9.} ' ) o.1XF.u.u.F.L..._ =.r.s P.5.M - #                 ",
"              @ $ ; n d.p._._.q ^ / ~  .1.K.h.=.} ) <.| f.m...K.K.K. .^ { ) d.O.C._ ^ ~ _ ` { } ' ) } =.h.K.K.h.0Xg.^ o.<.a.P.d.x < 3 %               ",
"              # - 2 g b.a.n.C.l.]._ / / / / ` o.| ' W._.=.Z.8.` ` ` *.=.&XV.c.d.!.X.X.8.X.{ n.4Xb.' | o.` / ] 5..XnXZ.l.C.} r.' P.2 + 3               ",
"              O . 0 ' a.' } f.h.w.i.#. ._ ^ ^ o.<.,.c.=X&.~.&X~.jXjXI.c.eXeXoXc.I.{.I.~.A.I.&.=X^.,.<.o.g.aX~.A.<XxX7.7.f.wX:X Xb.0 ; >               ",
"              % ; 7 P.p.$.} | hX3X@.q.:.#.] 9.} 5.' $X{.{.^.6.N.=X#Xc.A.lX=X&.A.c.#X{.^.6.I.lX{.v.' 5.| sXuXBX9XpX7.3.o.| _.jX9Xp.7 < $               ",
"            @ & < 7 2.s.h.!./.<X;X XZ.0.;.=.B.} } 4.v.e.e.N.6.e.e.U.H.v.U.&.e.v.H.U.e.&.6.V.U.&.v.4.} [.v.,XBXMXvXO.} | -.o.h.FXk.7 8 , #             ",
"            $ . 2 i { [ y.E.bXNXS.(.2.JX/.n.<.| k.,.6.&.rX^.z.V.;XHX^.6.N.>X7XA.^.ZX%XH.6.:XU.&.6.,.k.[.b.rXyXzX%.d.-.+X7.:.( [ { ' Y o e             ",
"            = ; 0 $.] +.w.{ d x.,XI._.bX:Xf 3.1.=.%.,.W.z.W.,.r.mXmX|.}.qX|.}.}.|.}.qX,.,.W.z.W.,.%.=...7...E...) 4...q.F.Q.w.+.] $.0 ; , @           ",
"            e 1 0 O.~ ^ _ C.pXcX XP.) /.tX@.F.3XO.| a.$Xz.$X$XW.d Y.x.x.Y.Y.Y.).x.Y.d W.6.6.z.$Xa.| O.3XF.u.i.7.5.) ] 1.K...;.^ ~ O.0 ; - O           ",
"        @ $ 5 6 l t._ ~ ~ ^ ^ ` !.b.j.] /  . .~ 9.| a.CXCXH.V.A.-XS.MXKXiXKX).MXS.S.-XA.c.J.c.c.p.| 9.~ ;.7._ m.$.' -.` / / ~ ~ _ t.l 6 + & %         ",
"        % : . 4 r.n.0.[ _ ~ ~ *.kX:X' Z.^ / ~ ^ m.-.' J.&.e.yXJ.(.S.).iXiXiX2X).>.S.(.|.;XN.&.J.' -.m.^ ~ ~ g.vX~.4X2.9.^ ~ _ [ 0.n.r.4 . . $         ",
"          e o a %.X.0.:.i.[ i.L.AX<Xr.f.~ / / 8.9.| a.v.&.N.>X6X(.S.).@X@X2X2X@X>.S.6XSXuX&.&.v.P.~.aX8./ ` tX;XGXkX[ @.i.[ i.:.0.X.%.a o - O         ",
"        # : 6 7 j.] ~ +.D.D.q.Q.L.8X) *.+.#.#.T.R.k.,.6.e.V.yX(.SXS.>.>.>.@X@X).>.x.qX(.,X{.U.6.z..XDXT.#.#.G.I.7X/.@.Q.q.D.D.+.~ ] j.7 6 + >         ",
"        = + w r.} ] _ _ ;.T.g.1.^ o...( ( ( ( w.[ _ l.z.N.V.eXzXmXx.>.x.x.>.>.>.>.x.qXHX<XI.e.z.G./.L.w.( ( 7.T.h.o.^ 1.g.T.;._ _ ] } r.w . *         ",
"        O - 8 n c 9 l.{ ~ / ` ` Z.g.F.y.( ( q.( q.[ j.,.H.lXeXZX}.Y.OX'.`.OXOX'.OXx.|.;X#X&.V.,.j.#.:.( q.( y.y.F.g.Z.` ` / ~ { l.9 c n 8 . >         ",
"        % , o < < 4 t j V ^ _ C.4.-.gXXXD...8.3.m.9.| k.J.#X#X7X}.OX`.`.'.fXfX*X>.-XqX7XU.U.J.k.| 9.m.3.8...D.XXgX-.4.C._ ^ V j t 4 < < o + $         ",
"          $ 5 * . X . . h B Z p y ) s._ ^ / ` / ].X.} $.J.=Xe.&.|.`.'.`.dXoXdX*X`.d z.rXe.e.A.) G.X.]./ ` / _ _ s.) ,.p Z B h . . X . . - &           ",
"          @ @ = . X o o X . ; 1 < a q ].8.~ r r 9 0 z W H N.e.V.5Xx.>.'.oXoXfXoX*XzX6.N.&.N.z.x t x 9 T r ~ ] ].n.7 a 1 ; . X o o X o : # @           ",
"              # + . : - X . . X . o b m L C h h b 1 o 8 7 J.H.H.c.d I K v v v U ! G H G H.V.A 4 < 4 1 8 P C M m 2 8 ; . X o , 5 : + X &               ",
"              @ # $ % O , 5 e . + + . . . . . . . . . 4 F t A R k 2 e @       D D $ 8 6 j k 6 . . . . . . . . . . + - . o . & % % # $ %               ",
"                        O = O = O & o X X X o o X X X ; ; o 1 + $                   O : X X . X X X X o o X X . o 5 # $ > = %                         ",
"                                  % 3 + o X - * - o o X . X X * @                     # , o X X X o X * 5 . * * 5 $                                   ",
"                                    @ $ = = #   > , : X X o - #                         $ + X X + 5 * % % $ % O %                                     ",
"                                                    $ . o . >                           @ * o o + #                                                   ",
"                                                    = : o , @                             $ + - > @                                                   ",
"                                                  > & , + $                                 3 : # = @                                                 ",
"                                                O , = + e                                   O : * : $                                                 ",
"                                                = 3 $ 3 O                                     $ 3 > * @                                               ",
"                                                O O @                                           @ % # @                                               "
};
