/* XPM */
static char *edeba11736d74de6b1075a53ef25dda9amwsu5fJ1YIzgQSc[] = {
/* columns rows colors chars-per-pixel */
"40 39 235 2 ",
"   c #151C2E",
".  c #191B2F",
"X  c #1E1F30",
"o  c #221D32",
"O  c #1B2633",
"+  c #1F333A",
"@  c #252935",
"#  c #332738",
"$  c #3A2C3C",
"%  c #27363A",
"&  c #3A353B",
"*  c #512C38",
"=  c #413938",
"-  c #58343A",
";  c #75383F",
":  c #1D4A34",
">  c #1F5637",
",  c #224538",
"<  c #3F483F",
"1  c #215B38",
"2  c #3D563C",
"3  c #23653A",
"4  c #236F3C",
"5  c #27763E",
"6  c #474A3B",
"7  c #445337",
"8  c #545438",
"9  c #4D6C3C",
"0  c #67713E",
"q  c #2D3D43",
"w  c #353D43",
"e  c #472C45",
"r  c #433644",
"t  c #53324C",
"y  c #5B3652",
"u  c #5F3955",
"i  c #713A4B",
"p  c #623956",
"a  c #663C5A",
"s  c #693D5B",
"d  c #2C494B",
"f  c #36464A",
"g  c #2B5949",
"h  c #354D52",
"j  c #3A4E52",
"k  c #3B5657",
"l  c #3B665F",
"z  c #3C5D62",
"x  c #444746",
"c  c #5A4944",
"v  c #5C4C4C",
"b  c #465546",
"n  c #585949",
"m  c #5C4257",
"M  c #435456",
"N  c #445C5D",
"B  c #575754",
"V  c #764F48",
"C  c #655648",
"Z  c #7A4159",
"A  c #675653",
"S  c #4D6A4E",
"D  c #556848",
"F  c #557449",
"G  c #56784D",
"H  c #5B7C4C",
"J  c #45615B",
"K  c #776846",
"L  c #657D42",
"P  c #797748",
"I  c #69685B",
"U  c #7C665A",
"Y  c #6F7854",
"T  c #455E61",
"R  c #466565",
"E  c #4C6C6D",
"W  c #536A68",
"Q  c #427466",
"!  c #417168",
"~  c #557A68",
"^  c #486E70",
"/  c #4D7274",
"(  c #557675",
")  c #547C7C",
"_  c #707A6D",
"`  c #833E44",
"'  c #97474B",
"]  c #874559",
"[  c #984B58",
"{  c #895755",
"}  c #A04B4E",
"|  c #A04E56",
" . c #A94F50",
".. c #A75057",
"X. c #AD5254",
"o. c #B55455",
"O. c #B95D59",
"+. c #836658",
"@. c #966458",
"#. c #8D7A55",
"$. c #88795B",
"%. c #BA635C",
"&. c #975D61",
"*. c #927467",
"=. c #B77264",
"-. c #C27B6A",
";. c #2E9347",
":. c #34904B",
">. c #329C4B",
",. c #38A453",
"<. c #37B251",
"1. c #3F8563",
"2. c #598B4A",
"3. c #5E8355",
"4. c #6D8A4A",
"5. c #6C8F4E",
"6. c #7B9443",
"7. c #78944C",
"8. c #658B55",
"9. c #6C9559",
"0. c #719A59",
"q. c #4FB653",
"w. c #6CA750",
"e. c #7EA65B",
"r. c #528276",
"t. c #64886A",
"y. c #708E74",
"u. c #6C9671",
"i. c #76A562",
"p. c #7AA962",
"a. c #78A864",
"s. c #73C55A",
"d. c #FFEC3F",
"f. c #898849",
"g. c #849D46",
"h. c #819B4B",
"j. c #8D9A49",
"k. c #9A994D",
"l. c #858A57",
"z. c #97975B",
"x. c #B98258",
"c. c #A19E51",
"v. c #AF9D57",
"b. c #8AA448",
"n. c #88A64B",
"m. c #93AD4C",
"M. c #9CAC4E",
"N. c #97B54D",
"B. c #9AB64D",
"V. c #9BB94E",
"C. c #87AB55",
"Z. c #84AD5D",
"A. c #93AD59",
"S. c #8FB357",
"D. c #8BB15A",
"F. c #82BC58",
"G. c #94B454",
"H. c #98B750",
"J. c #9AB850",
"K. c #93B15C",
"L. c #B2A446",
"P. c #A7A756",
"I. c #AEAB54",
"U. c #B6AB57",
"Y. c #A5B951",
"T. c #ACB954",
"R. c #AAB45D",
"E. c #B2BA56",
"W. c #B5B55B",
"Q. c #B9B45A",
"!. c #B6B858",
"~. c #BDBA5A",
"^. c #848E6D",
"/. c #978265",
"(. c #889A6E",
"). c #969967",
"_. c #AE966D",
"`. c #82AA61",
"'. c #8DAC61",
"]. c #94A965",
"[. c #9CB060",
"{. c #A5A774",
"}. c #CE925B",
"|. c #D9965F",
" X c #C8A15A",
".X c #C0BA5B",
"XX c #E2AE59",
"oX c #E7B957",
"OX c #C58469",
"+X c #D69563",
"@X c #C9B575",
"#X c #87CA5D",
"$X c #95D562",
"%X c #F1D04F",
"&X c #EECC51",
"*X c #FCE847",
"=X c #FFED5D",
"-X c #F8E57D",
";X c #587F82",
":X c #5B8182",
">X c #588383",
",X c #5C8B8B",
"<X c #5F9192",
"1X c #668989",
"2X c #72938E",
"3X c #639494",
"4X c #669C9C",
"5X c #6A9B9B",
"6X c #759E9B",
"7X c #71A19E",
"8X c #6D9FA0",
"9X c #6CA3A3",
"0X c #73A3A4",
"qX c #76A8A9",
"wX c #79ADAE",
"eX c #7DB2B3",
"rX c #8D9B84",
"tX c #8EA594",
"yX c #B7BC95",
"uX c #84AEA6",
"iX c #92B7AD",
"pX c #86B9B8",
"aX c #C8B887",
"sX c #D4B685",
"dX c #A6C9B1",
"fX c #D9C796",
"gX c #D1D099",
"hX c #FAEA86",
"jX c #CDD5A6",
"kX c #ECDDA7",
"lX c #FFF3A7",
"zX c #F9EEB8",
"xX c #8CC2C2",
"cX c #91C3C2",
"vX c #FFF9D3",
/* pixels */
"~.~.~.~.~.~.~.~.~.~.~.~.~.~.~.~.~.~.~.~.!.V.V.V.V.V.V.V.V.V.V.V.V.V.T.~.V.V.V.V.",
"E.E.E.V.V.Y.E.E.E.E.E.E.T.V.V.G.S.C.4.4.7.6.m.V.V.V.V.V.V.V.V.V.V.V.V.V.V.V.V.V.",
"V.V.V.V.V.V.V.V.V.V.V.V.V.H.e.t.J ) / ,X,X) J l.9.m.V.V.V.Y.E.E.V.V.V.V.V.V.V.V.",
"V.V.V.V.V.V.V.V.V.V.V.V.`.9.( eX5XeX4X3X4X4X3XrXpX/ b.V.~.~.~.~.!.V.V.V.V.V.V.V.",
"H.V.V.V.V.V.V.V.V.H.G.e.3.b 8XeX2XwXqX5XeXpXwX0XeX8Xn f.Q.~.~.~.~.~.~.W.p.a.D.H.",
"p.G.V.V.G.U. X XA./.OXx._ j 3XdXgXwX0X3XpXxXwX1XcX3Xj / Y R..X~.R.R.R.`.D.Z.a.a.",
"a.p.Z.Z.v.|.|.U.A.)./.*.*.I ) 7X^.5X9X4X5X3X0X1X7X) j :X^ t.T.T.G.S.S.G.V.H.G.G.",
"a.a.a.].|.&X%Xv.Z.b.) ) aX^.qX3XW 3XeXwX1XqXqXQ.yXwX1X3X) ) b.J.H.V.V.J.p.D.V.V.",
"V.G.Z.P.|.*XXX|.I.D E T ).W cXpXT ,X3X6XrX8X,X@XjXxX:X) T E S u.u.i.Z.a.a.a.D.p.",
"V.V.V.g.}.oX%X|.|.|.+.P x :XuX0XN ,Xf V M ,X3XC rX0X:Xf f M N W ].(.u.a.a.a.a.a.",
"V.V.V.g.x.XX-X*XXX|.+XfX#.y.3XwXpX:X& -.' @ ) pXqX3X) E wXqXf M P.Q.(.u.R.[.a.p.",
"p.p.p.m.V |.hXlX=X*X%X+X{.@XM 5XxX1X@.=.=.| @ W 6Xj E wX0X;Xf R Y ~.~.Q.~.~.[.p.",
"'.'.'.'.4.x.oXd.vXlX*XXXR._.@ R 3Xc OX%.OX{ t   d b _.1X9 5.j x B M.~.~.~.~.~.~.",
".X.X.X.X~.K }.oXhXvXlX&XK K w.w., V =.O.&.y i X.Z e I < F.9 N K {.L T.E.E.T.~..X",
"Y.Y.Y.Y.Y.m.6 }.*XzXvX&X#.M 5.$Xq.4 } ..[ ' o.[ a y     w.3 0XN R f m.V.V.V.Y.Y.",
"V.V.V.V.V.h.B C -XhXzX@XW T % F.s.,.J } o.| s p * ' [ y , r.pXE R N 4.J.H.p.p.p.",
"V.V.V.V.T.l.).c _.kXkXsXN E N 2 #X<.Q v X.| | X.o.[ Z s y ( iX,Xj M 3.a.p.a.`.'.",
"V.T.T.T.Q.P x = aXfX/.fXf N q   w.<.Q I o.o.o.] Z a s s p @ 2X3Xf f D C.D.K.W..X",
"V.Y.!.~.P.b f & _.C $.#.h f - { 9 ,.! %  .[ s u t o : 1 > : I 3X,Xx b k.B.T..X~.",
"V.V.V.J.k.q j k   $ r @ ( % @.-.+.$.U ' o.] $ O g ;.<.<.s.#X2.k W aXx k.~.~.~.Q.",
"H.V.V.B.6.q 6X_ n A $.& W j @.-.-.-.%.o.o.r + l 1.<.<.<.q.#X$Xw.q tXq f.R.W.'.a.",
"a.D.D.C.L :XxXyXyXA *.& W @ { -.O.o.o.o.' % d l Q ,.;.1 3 ;.q.q.>.R ) F 9.a.a.a.",
"a.a.a.0.S ,XwX].L.v *.w iXN X V X.o.o.o.'   h ! ! k d d j 6X% : ;.4 :XF b.a.a.a.",
"a.a.a.9.b 4X4X4XW # & , Q E # Z i [ [ | ] e d ! ! ! ! ! j 4XN :XR z <XD b.H.V.Z.",
"Z.Z.e.5.b 6X9X3XO #X2.3 >./ * o.o.o.o.o.o.] e d ! ! ! d z rX_ / 4X9X5Xb j.M.V.V.",
"V.V.B.6.k 9XpXeX4 s.$X9 5 k # - * o.o.o.| Z s p r ! R t # c.gXxXpXpX9Xk k.Q.!.V.",
"V.Y.I.P E 4XuXtX4 <.q.:.  . # ' X.o.o.o.Z s s s s m u s t x _ iXiXuX4XE P I.~.~.",
"~.~.U.f.N ,X4X4Xz >.>.3 ;X1X6 c V ; ; i t u u u u e e y e > 5 R 3X4X,XN f.I.~.~.",
"~.~.Q.k.j.L y.4X) @ . # :X/ U $./._._._._.v v c & +.U A v ;.<.3 <Xy.#.k.c.U.~.~.",
"T.T.T.m.h.8.~ t.J O A A ;XR e t # $ $ $ $ $ v c & v v   . >.<.3 ^.c.c.c.P.~..X~.",
"V.V.V.J.h.~ l.z.~ n & B y.* ....[ ] Z s s s y $ C A = A . , 1 8 j.P.c.c.W.'.R.~.",
"Y.T.~.(.y.).I.I.c.c.k.k.k.= = i ` ` i a a t e c U = @ A U 9 g.g.g.M.W.I.`.a.a.W.",
".X.X~..X.X~.~.Q.Q.M.g.g.k.c.k.0   7 7 7 6 7 2 & 6 2 %   C 6.b.B.C.G.Z.a.a.a.a.T.",
"T.T.~.~.~.~..XT.T.V.b.b.b.f.f.8 @ H G G G G G F G H 0   0 6.b.D.a.a.a.a.a.a.a.Z.",
"V.V.V.~.~.!.Y.V.V.V.V.b.g.g.0 @ 7 G G G G G G G G G H   9 g.7.0.a.a.a.G.G.a.a.a.",
"V.V.V.V.V.V.V.V.V.V.J.m.h.h.4.F 3.G H H H G H H 3.H 8.8.8.8.9.i.a.a.S.V.V.V.D.p.",
"V.V.V.V.V.V.V.V.V.V.S.Z.Z.0.9.8.9.8.7.6.6.5.8.5.5.5.9.9.9.0.a.Z.Z.a.G.V.V.V.V.V.",
"D.V.V.V.V.V.V.V.V.V.V.V.V.S.G.p.a.Z.B.N.N.S.Z.N.B.G.S.p.a.a.Z.V.V.Z.Z.H.V.V.V.V.",
"p.V.V.V.V.V.V.V.V.V.T.~.V.V.V.H.H.H.V.V.V.J.V.V.V.V.V.H.H.H.V.V.V.V.H.V.V.V.V.V."
};
