/* XPM */
static char *_9f532d1616b45b8ed3d43a758f9c13evOh7uDFOeGVoQvJK[] = {
/* columns rows colors chars-per-pixel */
"40 39 218 2 ",
"   c #151C2E",
".  c #191B2F",
"X  c #221D32",
"o  c #1D2932",
"O  c #1D2A34",
"+  c #272533",
"@  c #342938",
"#  c #3A2C3C",
"$  c #293535",
"%  c #3C353B",
"&  c #363838",
"*  c #552D39",
"=  c #44393A",
"-  c #5A3339",
";  c #75383F",
":  c #1D4A34",
">  c #1F5637",
",  c #244636",
"<  c #374838",
"1  c #215B38",
"2  c #38533A",
"3  c #23653A",
"4  c #236F3C",
"5  c #27763E",
"6  c #494439",
"7  c #5C453B",
"8  c #4C5D38",
"9  c #575D3C",
"0  c #4B663D",
"q  c #56663A",
"w  c #4A723F",
"e  c #5E783D",
"r  c #6A683E",
"t  c #62733C",
"y  c #687D3D",
"u  c #442B44",
"i  c #4A2E47",
"p  c #433644",
"a  c #53324C",
"s  c #5B3652",
"d  c #5F3955",
"f  c #693540",
"g  c #763D4D",
"h  c #623956",
"j  c #663C5A",
"k  c #693D5B",
"l  c #2D4648",
"z  c #2C4B4B",
"x  c #2B5949",
"c  c #335754",
"v  c #39635D",
"b  c #3C6861",
"n  c #594844",
"m  c #584D4E",
"M  c #5C4C4C",
"N  c #754645",
"B  c #665349",
"V  c #795645",
"C  c #74524E",
"Z  c #7A4159",
"A  c #675653",
"S  c #496745",
"D  c #576942",
"F  c #53774C",
"G  c #486658",
"H  c #6D6B4D",
"J  c #797B47",
"K  c #7C665A",
"L  c #426B64",
"P  c #417267",
"I  c #407B65",
"U  c #417168",
"Y  c #537561",
"T  c #833E44",
"R  c #97474B",
"E  c #874559",
"W  c #984B58",
"Q  c #895755",
"!  c #A04B4E",
"~  c #A04E56",
"^  c #A94F50",
"/  c #A75057",
"(  c #AD5254",
")  c #B55455",
"_  c #B95D59",
"`  c #856558",
"'  c #966458",
"]  c #8F7950",
"[  c #88775D",
"{  c #BA635C",
"}  c #975D61",
"|  c #8D7367",
" . c #AF7363",
".. c #BF7164",
"X. c #C17767",
"o. c #C27C6A",
"O. c #2D8C45",
"+. c #2E9347",
"@. c #339C4B",
"#. c #35A74D",
"$. c #3BA258",
"%. c #37B251",
"&. c #38B251",
"*. c #3F8563",
"=. c #589048",
"-. c #63844E",
";. c #778942",
":. c #66984B",
">. c #7C9444",
",. c #79954C",
"<. c #618753",
"1. c #658D56",
"2. c #6A8F54",
"3. c #768953",
"4. c #6C9154",
"5. c #6C965A",
"6. c #729B5A",
"7. c #48B653",
"8. c #54B553",
"9. c #6BA34F",
"0. c #6DAA51",
"q. c #7FA75B",
"w. c #5B836D",
"e. c #789B6D",
"r. c #638F76",
"t. c #669175",
"y. c #6B9573",
"u. c #739772",
"i. c #799972",
"p. c #76A562",
"a. c #78A764",
"s. c #77A863",
"d. c #7AA962",
"f. c #7CA16A",
"g. c #73C55A",
"h. c #FFEC3F",
"j. c #8A8849",
"k. c #849E46",
"l. c #849D48",
"z. c #95934D",
"x. c #8A8F56",
"c. c #94955A",
"v. c #BD8155",
"b. c #A39D58",
"n. c #B69F5F",
"m. c #86A047",
"M. c #89A449",
"N. c #8DAA4B",
"B. c #92AC4B",
"V. c #97B54E",
"C. c #9BB94E",
"Z. c #84AD5D",
"A. c #8BAE5C",
"S. c #99A858",
"D. c #8FB356",
"F. c #8BB159",
"G. c #82BC58",
"H. c #93B454",
"J. c #99B751",
"K. c #9AB850",
"L. c #92B259",
"P. c #A0B44F",
"I. c #A8A555",
"U. c #B5AB57",
"Y. c #A6B652",
"T. c #ADB153",
"R. c #A5B951",
"E. c #ACB954",
"W. c #A5B25F",
"Q. c #ACB45C",
"!. c #B3BA56",
"~. c #B3B65D",
"^. c #B9B65B",
"/. c #B6BA59",
"(. c #BEBA5B",
"). c #998264",
"_. c #859D6E",
"`. c #8B986F",
"'. c #A58868",
"]. c #BA9962",
"[. c #AD9270",
"{. c #B49A74",
"}. c #89A365",
"|. c #82AA61",
" X c #8DAC61",
".X c #95A866",
"XX c #9CB060",
"oX c #A8AE65",
"OX c #ACB063",
"+X c #B1B362",
"@X c #CE8E5B",
"#X c #CE975A",
"$X c #D6965E",
"%X c #D9955F",
"&X c #DC9C5E",
"*X c #C8A15A",
"=X c #C0BA5B",
"-X c #E2AE59",
";X c #E7B957",
":X c #C58469",
">X c #D69460",
",X c #CBAD79",
"<X c #87CA5D",
"1X c #95D562",
"2X c #F1D04F",
"3X c #EECC51",
"4X c #FCE847",
"5X c #FFED5D",
"6X c #F0D97D",
"7X c #FFF07C",
"8X c #CEB384",
"9X c #DBC593",
"0X c #FAEA86",
"qX c #ECDDA7",
"wX c #FFF3A7",
"eX c #F9EEB8",
"rX c #FFF7C6",
"tX c #FFFADA",
/* pixels */
"(.(.(.(.(.(.(.(.(.(.=X(.(.(.(.(.(.(.(.(./.C.C.C.C.C.C.C.C.C.C.C.C.C.E.(.C.C.C.C.",
"!.!.!.C.C.R.!.!.!.!.!.!.E.C.C.H.D.D.D.D.C.C.C.C.C.C.C.C.C.C.C.C.C.C.C.C.C.C.C.C.",
"C.C.C.C.C.C.C.C.C.C.C.C.C.J.Z.a.s.s.a.a.F.J.Z.Z.F.C.C.C.C.R.!.!.C.C.C.C.C.C.C.C.",
"C.C.C.C.C.C.C.C.C.C.C.C.|.d.a.a.a.a.a.a.a.d.a.a.a.F.C.C.(.(.(.(./.C.C.C.C.C.C.C.",
"J.C.C.C.C.C.C.C.C.J.L.d.a.a.d.|.d.|.d.a.a.a.a.a.a. X~.~.(.(.(.(.(.(.(.~.d.a.D.J.",
"d.H.C.C.L.U.*X#XL.).:X].}.d.J.C.C.C.L.d.a.d.A.A.a.a.s.a.W.~.=X(.W.W.W.|.A.Z.a.a.",
"a.d.Z.Z.].%X%XU.L.c.b.'. .S.C.C.C.C.C.d.d.J.C.C.H.H.H.H.D.J.E.E.L.D.D.H.C.J.L.H.",
"a.a.a..X$X3X2Xn.Z.C.C.C.S.S.C.C.C.C.C.J.J.C.C.C.J.J.J.J.K.C.C.K.J.C.C.K.d.F.C.C.",
"C.H.Z.I.&X4X-X$XT.C.C.C.L.L.L.L.C.J.,.,.C.C.R.R._.i.t.t.u.J.J.u.t.e.Z.a.a.a.D.d.",
"C.C.C.k.@X;X2X&X%X$XT.A.t.r.t.t.|.f.& C D B.(.=X=X+X.Xy.t.e.e.t..X_.y.a.s.a.a.a.",
"C.C.C.k.v.-X7X4X-X%X>X`.oXoXOXu.t.e.6 o.R + j.^.(.(.=XOXt.t.t.oX(.^._.y.Q.XXs.a.",
"d.d.d.N.V %X0XwX5X4X3X$XI.^.^.^.~.j.' ....~ + r ^.(.(.(.x.G x.(.(.(.^.^.(.(.XXd.",
" X X X X3.v.;Xh.rXwX4X-Xj.z.6 j.I.n :X{ :XQ a   < F W.z.w :.J (.C.R.(.(.(.(.(.(.",
"=X=X=X=X(.J @X;X0XtXwX3X` 3.9.0., N .._ } s f ( Z u < < G.5 T.C.C.C.E.!.!.E.(.=X",
"R.R.R.R.R.B.7 @X4XeXtX3X] N.:.1X8.4 ! ~ W R ) W j s     0.3 q.Z.C.C.C.C.C.C.R.R.",
"C.C.C.C.C.C.M.B 6X0XeX,Xq C.$ G.g.$.G ! ) ~ k h * R ~ s , F a.a.d.d.D.K.J.d.d.d.",
"C.C.C.C.E.(.(.n {.qXqX8X8 C.m.2 <X%.I M ( ~ ~ ( ) W Z k s S a.a.a.a.a.a.a.a.|. X",
"C.E.E.E.(.(.(.= 8X9X).9X8 C.q   9.%.I A ) ) ) E Z j k k h o p.a.a.F.F.F.F.L.~.=X",
"C.R./.(.(./.R.= '.B [ [ q M.7 Q w $.U & ^ W k d a X : 1 > : 8 D.J.C.E./.C.E.=X(.",
"C.C.C.K./.C.C.;.  @ p $ T.>.' o.` [ K R ) E # o x O.#.&.g.<X=.8 P.(.(.(.(.(.(.^.",
"J.C.C.C.C.C.C.C.q A | & C.>.' o.o.X.{ ) ) p $ v *.&.&.&.7.<X1X9.9 Q.~.~.~.~. Xa.",
"a.F.D.F.D.C.C.C.>.A | 6 C.>.Q X._ ) ) ) R O z b P $.O.1 3 +.8.8.@.2 q.F.s.s.a.a.",
"a.a.a.a.a.Z.Z.Z.2.M | & C.N.+ N ( ) ) ) R   c U U c z z < 2.2 : +.4 M.C.L.a.a.a.",
"a.a.a.a.d.d.d.d.-.+ % , y C.@ Z Z W W ~ E i z U U U U U < K.J.l.t q B.C.C.K.C.Z.",
"Z.Z.Z.Z.C.C.C.B.o <X-.3 @.N.* ) ) ) ) ) ) E i l P U U z D A.A.J.C.C.C.C.R.R.C.C.",
"C.C.C.C.C.C.C.B.4 g.1Xw 5 >.@ - * ) ) ) ~ Z k h p P L a @ w.r.f.C.C.C.E.(.=X/.C.",
"C.R.(.(.(.E.C.B.4 &.7.O.  . @ R ( ) ) ) Z k k k k m d k a 9 x.u.f.C.E.(.(.(.(.(.",
"(.(.(.(.(.!.C.C.e @.#.3 G F 6 n N ; ; f i d d d d i u s u > 5 J ~.}./.(.(.(.(.(.",
"(.(.=X/.!.J.A.J.Z.O . @ Y Y K [ ).{.[.[.'.M M n % ` K A M +.&.3 U.(.(.(.(.(.(.(.",
"E.E.E.C.J.e.r.f.t.$ A A 3.G u a @ # # # # # M n % M M   . @.&.3 U.(.(.(.(.=X(.(.",
"C.C.C.C.L.t..X+Xy.J % H I.- / / W E Z k k k s # B B = A . , 1 t Y.(.(.(.^. XQ.(.",
"R.E.(._.i..X(.(.(.(./.(.I.6 6 ; T T g h j a i n K = + A K t C.C.C.E.(.~.|.a.a.~.",
"=X=X(.=X=X(.(.(.(.E.C.C./.(.^.J   8 0 9 9 q S % n S &   H N.C.C.H.H.Z.a.a.a.a.Q.",
"E.E.(.(.(.(.=XE.E.C.C.C.B.I.b.t $ 4.1.1.1.1.1.<.1.4.;.  y k.B.F.a.a.a.a.a.a.a.Z.",
"C.C.C.(.(./.R.C.C.C.C.M.k.k.;.$ q 1.1.1.1.1.1.1.1.4.-.  0 l.,.6.a.a.a.H.H.a.a.a.",
"C.C.C.C.C.C.C.C.C.C.K.B.l.l.>.<.1.1.4.4.4.1.1.1.1.1.1.<.<.1.4.p.a.a.D.C.C.C.F.d.",
"C.C.C.C.C.C.C.C.C.C.D.Z.Z.6.5.5.5.4.,.k.l.4.1.4.4.4.5.5.5.6.s.Z.Z.a.L.C.C.C.C.C.",
"F.C.C.C.C.C.C.C.C.C.C.C.C.D.L.d.a.Z.C.V.V.D.Z.V.C.J.D.d.a.a.Z.C.C.Z.Z.J.C.C.C.C.",
"d.C.C.C.C.C.C.C.C.C.E.(.C.C.C.J.J.J.C.C.C.K.C.C.C.C.C.J.J.J.C.C.C.C.J.C.C.C.C.C."
};
