/* XPM */
static char *cac302b3ff1c4316bc2deaa4ac31476dCJiDRbWkwHsC88bo[] = {
/* columns rows colors chars-per-pixel */
"40 39 155 2 ",
"   c #302B32",
".  c #594936",
"X  c #4D5030",
"o  c #4D5A35",
"O  c #575632",
"+  c #535D34",
"@  c #5C553E",
"#  c #625B3A",
"$  c #526138",
"%  c #576738",
"&  c #646533",
"*  c #68623E",
"=  c #72663F",
"-  c #76683B",
";  c #637339",
":  c #79773A",
">  c #364A43",
",  c #3D5248",
"<  c #585640",
"1  c #6B4D40",
"2  c #725641",
"3  c #765841",
"4  c #5B7747",
"5  c #546E53",
"6  c #6F6F43",
"7  c #617847",
"8  c #707B45",
"9  c #567964",
"0  c #87773D",
"q  c #845E49",
"w  c #886F40",
"e  c #896847",
"r  c #817F45",
"t  c #967944",
"y  c #A17254",
"u  c #A17D50",
"i  c #AB7B57",
"p  c #AD7C58",
"a  c #778F44",
"s  c #75844A",
"d  c #789042",
"f  c #608653",
"g  c #7DA055",
"h  c #769C6E",
"j  c #7A9F6B",
"k  c #638F76",
"l  c #669175",
"z  c #6B9374",
"x  c #6C9870",
"c  c #729672",
"v  c #789772",
"b  c #769971",
"n  c #7A9971",
"m  c #77A763",
"M  c #78A763",
"N  c #77A863",
"B  c #7AA863",
"V  c #7DA169",
"C  c #848835",
"Z  c #A4A43D",
"A  c #BAC03C",
"S  c #C3C93E",
"D  c #CBD13F",
"F  c #859F46",
"G  c #9A964D",
"H  c #838650",
"J  c #999954",
"K  c #AF8A4D",
"L  c #B5964D",
"P  c #B08457",
"I  c #BA8F56",
"U  c #A29E50",
"Y  c #82A04D",
"T  c #95B34D",
"R  c #99B74D",
"E  c #9BB94E",
"W  c #84AD5D",
"Q  c #8BAE5C",
"!  c #8FB357",
"~  c #8BB159",
"^  c #94B554",
"/  c #98B751",
"(  c #99B850",
")  c #92B159",
"_  c #B7A747",
"`  c #A9A553",
"'  c #A6AA53",
"]  c #AEAA55",
"[  c #A4B951",
"{  c #ACB954",
"}  c #A4B25F",
"|  c #ACB55D",
" . c #B3BA56",
".. c #B3B65D",
"X. c #B9B65D",
"o. c #B7BA59",
"O. c #BEBA5B",
"+. c #9A8C65",
"@. c #8A9660",
"#. c #849C6F",
"$. c #899F6E",
"%. c #829C70",
"&. c #87A566",
"*. c #81AA61",
"=. c #8CAB61",
"-. c #94AE61",
";. c #98AF60",
":. c #95A46B",
">. c #9BA769",
",. c #9FA968",
"<. c #9CB060",
"1. c #A2AB67",
"2. c #ABAF63",
"3. c #AAAF64",
"4. c #AEB162",
"5. c #B1B361",
"6. c #C19556",
"7. c #C49C55",
"8. c #C89E55",
"9. c #C6BF45",
"0. c #CFBC4C",
"q. c #CDA454",
"w. c #D1AD53",
"e. c #C0BA5B",
"r. c #D2B352",
"t. c #D4CE46",
"y. c #D5C04F",
"u. c #D8C44F",
"i. c #DBCC4D",
"p. c #D4D643",
"a. c #DEDF46",
"s. c #DBD34B",
"d. c #DFD949",
"f. c #CFC453",
"g. c #D0C551",
"h. c #E2DE49",
"j. c #E3E547",
"k. c #E6EA46",
"l. c #E8EE44",
"z. c #E9F044",
"x. c #E5E674",
"c. c #BABE81",
"v. c #A6A7A4",
"b. c #C3A697",
"n. c #BFC190",
"m. c #C7CA9F",
"M. c #EBEE80",
"N. c #EEF38C",
"B. c #E1E59C",
"V. c #D5D7B0",
"C. c #F3F7B5",
"Z. c #C0C0C1",
"A. c #F3F3CF",
"S. c #F9FAE0",
"D. c #FEFEFE",
/* pixels */
"O.O.O.O.O.O.O.O.O.O.O.O.O.O.O.O.O.O.O.O.o.E E E E E E E E E E E E E { O.E E E E ",
" . . .E E [  . . . . . .{ E E ^ ! ! ! ! E E E E E E E E E E E E E E E E E E E E ",
"E E E E E E E E E E E E E / W B N N B B ~ / W W ~ E E E E [  . .E E E E E E E E ",
"E E E E E E E E E E E E *.B B B B B B B B B B B B ~ E E O.O.O.O.o.E E E E E E E ",
"/ E E E E E E E E ( / B B B B *.B B B B B B B B B -.....O.O.O.O.O.O.O...B B ! / ",
"B ^ E E ! ^ E E ! W m B B B / E E E ) B B B Q Q B B m B } ..e.O.} } } *.Q W m m ",
"B B W W B B ^ E ^ ) ^ ^ ) / E E E E E B B / E E ^ ^ ^ ^ ! / { { ) ! ! ^ E / ) ^ ",
"B B B B B B B *.W E E E E E E E E E E / / E E E / / / / ( E E ( / E E ( B ~ E E ",
"E ^ W W W ~ E E E E E E ) ) ) ) E / ) ) E E [ [ #.v l l c / / c l j W B B B ! B ",
"E E E E E E E E E E E Q l k k l &.V k l Q [ O.e.e.5.:.z l h h l :.#.x M N B B B ",
"E E E E E E E E E ) j z 3.3.3.c l #.2.c b O.O.O.O.O.O.4.l l l 1.O.X.%.x | <.N B ",
"B B B / E E ( h b c 1.X.O.O.O.X.X.O.O.X.X.O.O.O.O.O.O.O.4.l ,.O.O.O.O.X.O.O.;.B ",
"=.=.=.=.=.} ,.#.O.O.O.O.O.O.....O.O.O.O.O.O.e...B B } O.O.3.3.O.E [ O.O.O.O.O.O.",
"e.e.e.e.e.O. . . .{ O.O.} -.m B } | e.| } } } *.B B N <.} |  .E E E {  . .{ O.e.",
"[ [ [ [ [ [ E E E E [ [ ^ ^ ^ B B *.-.B B B B B B B B B B B W W E E E E E E [ [ ",
"E E E E E E E E E E E E E E E ( / ( W B B B B B m m B B B B B B B B ! ( / B B B ",
"E E E E { O.O.O.[ E E E E E E E E E / ^ ^ ~ B B 4 : 4 N B B B B B B B B B B &.=.",
"E { { { O.O.e.e.O.{ { E E E ^ ~ ~ ~ B m m M M g $ d.p.s N B B B B ~ ~ ~ ~ ) ..e.",
"E [ o.O.O.o.[ [ O.O.O.o.E E / ^ ^ ^ ^ ^ ^ Y Y $ Z.+.0.t f B ~ ^ / E { o.E { e.O.",
"E E E ( o.E E E [ O.O.O.o.E E E E E E F + ' m.' v.V.O a R ( E E [ O.O.O.O.O.O.O.",
"/ E E E E E E E E E E E E E E E E E E o A C.D.S.t.& + T E E E ^ | ..........-.B ",
"B ~ ! ~ ! E E E E E E E E E E E T d $ Z S n.b.A.k.L % E E E ^ B N m W ~ N N B B ",
"B B B B B W W W W W W W E E E T 8 c.f.K . _ _ a.k.q.# E W W B B B ^ ( E ) B B B ",
"B B B B B B B B W E ( ( E E E ; B.D.x.9.X 0 p.l.s.8.= E ( ( ( ( E E E E E ( E W ",
"W W W W E E E E E E E E E E R - M.N.g.L C _ t 7.I i # ) Q Q Q ( E E E E [ [ E E ",
"E E E E E E E E E E E E E E R w h.z.k.P u # D y.p 1 7 z k k k V E E E { O.e.o.E ",
"E [ O.O.O.{ E E E E E E E E E : r.k.j.s.z.l.z.i.p y > l 4.5.5.v V E { O.O.O.O.O.",
"O.O.O.O.O. .E E E =.l z z V / 5 L w.u.h.j.j.i.8.p e , 5.O.O.O.O.5.&.o.O.O.O.O.O.",
"O.O.e.o. ./ Q / =.l n $.l l l 9 < K q.q.q.q.6.i q   H X.e.e.O.O.O.O.O.O.O.O.O.O.",
"{ { { E / h k V l %...O.>.l l @.G 6 @ 2 w 3 # * r G ` O.O.O.e.e.e.O.O.O.O.e.O.O.",
"E E E E ^ l >.5.z :.e.O.O.5.5.O.X.] ` J U U U ` ] ..O.O.O.o.[ [ { O.O.O.X.=.| O.",
"[ { O.$.v :.O.O.O.O.O.O.O.O.O.O.O.O.O.O.O.O.-.B B -.O.O.O.E E E E { O...B B B ..",
"e.e.O.e.e.O.O.O.O.{ E E o.O.O.o.E / ! | | <.N B B N ! E { E E E ^ ^ W B B B B | ",
"{ { O.O.O.O.e.{ { E E E [ e.e.[ ( W B N N B B B B W / E E E E ~ B B B B B B B W ",
"E E E O.O.o.[ E E E E E E [ o.[ / B B B B B B B B B *.*.W E ~ B B B B ^ ^ B B B ",
"E E E E E E E E E E ( / / / / *.B B B B B B B B B B B B B B B B B B ! E E E ~ B ",
"E E E E E E E E E E ! W W m M B B B / E ( W B W W W B B B B B W W m ) E E E E E ",
"~ E E E E E E E E E E E E ! ! B B W E E E ! W E E / ! B B M W E E W W / E E E E ",
"B E E E E E E E E E { O.E E E / / / E E E ( E E E E E / / / E E E E / E E E E E "
};
