/* XPM */
static char *_836968625c440d6c64f46a5d03ea8ffQ0SpND4RxOPUvSnu[] = {
/* columns rows colors chars-per-pixel */
"40 39 216 2 ",
"   c #161C2E",
".  c #2A2631",
"X  c #2E2832",
"o  c #372D32",
"O  c #3A2F32",
"+  c #28353E",
"@  c #3E3533",
"#  c #5D5B3A",
"$  c #624A3B",
"%  c #615F3B",
"&  c #68653E",
"*  c #2F3E45",
"=  c #333E44",
"-  c #344247",
";  c #38464B",
":  c #3A4B4D",
">  c #3A4D51",
",  c #3D5256",
"<  c #3F5658",
"1  c #444847",
"2  c #455545",
"3  c #52534E",
"4  c #56584D",
"5  c #405355",
"6  c #475858",
"7  c #455B5C",
"8  c #674E42",
"9  c #694E46",
"0  c #685947",
"q  c #6E5448",
"w  c #775846",
"e  c #4C624C",
"r  c #586747",
"t  c #43615A",
"y  c #546C5A",
"u  c #527152",
"i  c #756B47",
"p  c #657846",
"a  c #7B7747",
"s  c #726C53",
"d  c #6C7B57",
"f  c #455E61",
"g  c #4B6463",
"h  c #496264",
"j  c #4D6B6C",
"k  c #536867",
"l  c #526D6C",
"z  c #557A68",
"x  c #4B6E70",
"c  c #4C7374",
"v  c #557777",
"b  c #547C7C",
"n  c #636862",
"m  c #6B7468",
"M  c #767C6B",
"N  c #657976",
"B  c #876547",
"V  c #976E4D",
"C  c #87764A",
"Z  c #90724D",
"A  c #9C724E",
"S  c #8F7653",
"D  c #997952",
"F  c #A0754F",
"G  c #A27652",
"H  c #A67A53",
"J  c #AB7D54",
"K  c #5E8357",
"L  c #6D8A4A",
"P  c #788843",
"I  c #799245",
"U  c #7C994B",
"Y  c #668E57",
"T  c #678A5B",
"R  c #718E5F",
"E  c #6C9255",
"W  c #6C9659",
"Q  c #6C995C",
"!  c #719A5A",
"~  c #7CA55C",
"^  c #7FA95E",
"/  c #64886A",
"(  c #789A6C",
")  c #66867C",
"_  c #738A77",
"`  c #6C9671",
"'  c #76A562",
"]  c #78A764",
"[  c #77A863",
"{  c #7AA863",
"}  c #87854A",
"|  c #898A4A",
" . c #938F4B",
".. c #839C46",
"X. c #819B4C",
"o. c #8C9A49",
"O. c #8C9D49",
"+. c #97964C",
"@. c #9C9D4D",
"#. c #858A56",
"$. c #9C8059",
"%. c #869653",
"&. c #949854",
"*. c #AB8556",
"=. c #B48959",
"-. c #A29E50",
";. c #A79D5D",
":. c #BB935E",
">. c #84A14B",
",. c #8AA549",
"<. c #93AE4B",
"1. c #9CAC4E",
"2. c #95B24D",
"3. c #9AB54D",
"4. c #9BB94E",
"5. c #86AA55",
"6. c #84AD5D",
"7. c #8FB357",
"8. c #8BB15A",
"9. c #94B553",
"0. c #98B750",
"q. c #9AB850",
"w. c #93B15C",
"e. c #A0B64F",
"r. c #A5A352",
"t. c #ADAA54",
"y. c #ABAC57",
"u. c #B5AC55",
"i. c #A5B951",
"p. c #ACB954",
"a. c #A6B35F",
"s. c #ADB45C",
"d. c #B5B057",
"f. c #B2BA56",
"g. c #B5B55B",
"h. c #B9B45A",
"j. c #B6BA58",
"k. c #BDBA5A",
"l. c #89996D",
"z. c #959A66",
"x. c #849777",
"c. c #909078",
"v. c #A49969",
"b. c #BD9760",
"n. c #81AB61",
"m. c #8DAC61",
"M. c #96A965",
"N. c #9CB060",
"B. c #B1AA75",
"V. c #B5AA7A",
"C. c #C0BA5B",
"Z. c #C49D63",
"A. c #C9A669",
"S. c #CCB67B",
"D. c #D7C852",
"F. c #CAC576",
"G. c #D0C670",
"H. c #5B8383",
"J. c #598485",
"K. c #5C8B8B",
"L. c #628584",
"P. c #6B8A86",
"I. c #628C8C",
"U. c #768B84",
"Y. c #7C9286",
"T. c #7D9B8C",
"R. c #629494",
"E. c #699696",
"W. c #699698",
"Q. c #669D9D",
"!. c #6A9D9D",
"~. c #759893",
"^. c #729C9B",
"/. c #73A29E",
"(. c #7BA198",
"). c #6D9FA0",
"_. c #6CA2A2",
"`. c #73A3A4",
"'. c #7AA6A2",
"]. c #76A9AA",
"[. c #79ACAD",
"{. c #7FAFB0",
"}. c #7DB3B4",
"|. c #889C86",
" X c #929B89",
".X c #93AD98",
"XX c #AAAE85",
"oX c #85AEA5",
"OX c #84AEA9",
"+X c #83B2AC",
"@X c #8AB2AB",
"#X c #92B3A4",
"$X c #98BAAA",
"%X c #81B5B6",
"&X c #8AB5B1",
"*X c #8CB8B1",
"=X c #86BBBC",
"-X c #89BDBD",
";X c #93BDB6",
":X c #B3BCA0",
">X c #CABD88",
",X c #B2C993",
"<X c #9CC4BB",
"1X c #9EC8BF",
"2X c #A3C5B4",
"3X c #B6D4B4",
"4X c #D4C486",
"5X c #D0CB8E",
"6X c #CBCB98",
"7X c #E8EE87",
"8X c #CDD5A6",
"9X c #D4D8AC",
"0X c #F0F4AC",
"qX c #8CC2C3",
"wX c #93C5C2",
"eX c #A0CAC1",
/* pixels */
"k.k.k.k.k.k.k.k.k.k.k.k.k.k.k.k.k.k.k.k.j.4.4.4.4.4.4.4.4.4.4.4.4.4.p.k.4.4.4.4.",
"f.f.f.4.4.i.f.f.f.f.f.f.p.4.4.9.7.5.L L I I <.4.4.4.4.4.4.4.4.4.4.4.4.4.4.4.4.4.",
"4.4.4.4.4.4.4.4.4.4.4.4.4.0.~ / t b c K.K.b t #.R <.4.4.4.i.f.f.4.4.4.4.4.4.4.4.",
"4.4.4.4.4.4.4.4.4.4.4.4.n.W v }.!.}.Q.R.Q.Q.R. X&Xc ,.4.k.k.k.k.j.4.4.4.4.4.4.4.",
"0.4.4.4.4.4.4.4.4.q.0.~ K 2 ).%XT.[.].!.}.%X[.`.}.).4  .h.k.k.k.k.k.k.g.{ { 8.0.",
"{ 9.4.4.7.9.4.4.7.6.' u c > R.2X5XOX`.R.%XqX[.I.<XR.> c d y.C.k.a.a.a.n.8.6.[ [ ",
"{ { 6.6.{ { 9.4.9.9./ x P.5 b /.l.E._.Q.!.R.`.P./.b > J.x / p.p.9.7.7.9.4.0.9.9.",
"{ { { { { { { n.6.,.b b 6X) ].W.g R.}.[.L.].].d.:X[.I.R.b b ,.q.0.4.4.q.{ 8.4.4.",
"4.9.6.6.6.8.4.4.4.e j f z.l wX%Xf K.}.;X|._.K.S.8XqXH.b f j e ` ` ( 6.{ { { 8.{ ",
"4.4.4.4.4.4.4.4.I 7 5 s 1 H.oX`.7 K.Q.Q.K.R.R.0 |.`.H.- - 5 7 y M.l.` ] [ { { { ",
"4.4.4.4.4.4.4...5 ; [.9XS ) R.[.=XL.I.Q.b J.].%X`.R.b j [.].; 5 r.g.l.` s.N.[ { ",
"{ { { 0.4.4.q.y g , %X#XXXF.3 W.wXwX'.c h x &X2X(.: j [.qX%X> g d k.k.g.k.k.N.{ ",
"m.m.m.m.m.a.z.6 > j _.$X7X4X7 H./.$X|.I.`.%XL.Q.R.m v.@X}._.j 1 6 1.k.k.k.k.k.k.",
"C.C.C.C.C.k.P ; + g R.Q.l.S 7 R.Q.Q.v H.}.$Xv R.c.@.0X,XQ.R.g i B.p p.f.f.p.k.C.",
"i.i.i.i.i.3.: g 7 ].W.I.J.7 > R.Q.R.M L.Q.Q.x I.F.C D.M.I.W.].7 g : <.4.4.4.i.i.",
"4.4.4.4.4.X.n ;.l -XqXqX%X7 E.[.!.R.V.x.I.%X;X=X}.E.n %XqXqX-Xj g 7 L q.0.{ { { ",
"4.4.4.4.p.#.z.G.J.%XqXeX&Xj j =X1X<X&X) , !.'.Q.!.l j &XeX1X;XK.: 5 K [ { { n.m.",
"4.p.p.p.h.a 1 s K.Q.].#XH.7 g K.#X$X'.J.7 K.Q.Q.R.g 7 H.#X#X~.R.- ; r 5.8.w.g.k.",
"4.i.j.k.r.2 - K.!.).Q.Q.H.> q P.~.^.U.$.D m L.I.N s > H.!._ 9X!.K.1 2 @.4.p.C.k.",
"4.4.4.q.@.= > l ].qX}.!.b = =.b.Z Z.D A.A.$.:.Z Z.:.= v V.v.XX].k >X1 +.k.k.k.k.",
"0.4.4.3.I = ^.N B.T.[.H.l 7 A J B *.B J H B J B J V 7 7 4X0XI.l l .X* | s.g.m.{ ",
"{ 8.8.5.p H.qX,X0X@.XXx j + V A w J w H H w G w G A + g *.j., I.%XqXH.r Q [ { { ",
"{ { { ! e K.[.M.D.i F.^.;Xg X X .             . X X g ;XwX-Xg -X2X{.K.r >.{ { { ",
"{ { { W 2 Q.Q.Q.P.5 K.@X/.l 9 w q             8 q q l ^.$XQ.7 R.Q.Q.Q.e >.0.4.6.",
"6.6.~ E 2 !._.Q.|.C R.Q.Q.b q H V             V G q b Q.Q.|.M c Q._.!.2 O.1.4.4.",
"4.4.3.I < _.=X=X3Xv.K.Q.R.j 8 G H             *.H 8 V.E.Q.u.6XqX=X-X_.< +.h.j.4.",
"4.i.t.a j Q.oX#X*XJ.%X=X[.J.4 H =.            :.=.3 4X+X=Xc.|.*X#XoXQ.j a t.k.k.",
"k.k.d.} 7 K.Q.Q.Q.@XqXqXqX=X, =.Z.o         X =.J , }.qXqXqX@XQ.Q.Q.K.7 } t.k.k.",
"k.k.h.@.o.p ) Q.b Y.2XOX).I.7 J =.O         O =.F 7 I.).OX2XY.b Q._ C +.-.d.k.k.",
"p.p.p.<.X.T z / t j Q.Q.Q.J.7 A J @ r y i # O J B 6 J.Q.Q.Q.j r z.-.-.-.t.k.k.k.",
"4.4.4.4.X.z #.&.z d _ T.x.a #.w G $ & }  .% $ A B | a l.T.) p ..O.r.-.-.g.m.s.k.",
"i.p.k.l.( z.t.t.-.-.@.@.-.-. .& B a  .-.@.} p p p %.@.@.@.........1.g.y.{ { { g.",
"C.C.k.C.C.k.k.h.h.1.....@.-.-.@...X.U &.&.%.Y Y Y Y U ..O...,.3.5.9.6.{ { { { s.",
"p.p.k.k.k.k.C.p.p.4.,.,.2.-.-.O...E Y Y Y Y Y Y Y E U <.,.<.3.8.{ { { { { { { 6.",
"4.4.4.k.k.j.i.4.4.4.4.4.4.e.r.O.U Y Y Y Y Y Y Y Y Y ~ n.6.4.8.{ { { { 9.9.{ { { ",
"4.4.4.4.4.4.4.4.4.4.q.0.0.0.,.E ! Y W E E E W W ! W ] { { { { { { { 7.4.4.4.8.{ ",
"4.4.4.4.4.4.4.4.4.4.7.6.6.[ [ ' { ~ 9.2.2.^ [ 6.6.6.{ { { { { 6.6.[ 9.4.4.4.4.4.",
"8.4.4.4.4.4.4.4.4.4.4.4.4.7.7.{ { 6.4.4.4.7.6.4.4.0.7.{ { ] 6.4.4.6.6.0.4.4.4.4.",
"{ 4.4.4.4.4.4.4.4.4.p.k.4.4.4.0.0.0.4.4.4.q.4.4.4.4.4.0.0.0.4.4.4.4.0.4.4.4.4.4."
};
