/* XPM */
static char *_a2698715ea646b1c1a349beb6375d8bemEe36dvSvRaufzu[] = {
/* columns rows colors chars-per-pixel */
"40 39 218 2 ",
"   c #292531",
".  c #2F2832",
"X  c #28353E",
"o  c #64613D",
"O  c #2F3E45",
"+  c #333E44",
"@  c #344247",
"#  c #39494C",
"$  c #3A4D51",
"%  c #3D5256",
"&  c #3F5658",
"*  c #444847",
"=  c #455545",
"-  c #52534E",
";  c #56584D",
":  c #405355",
">  c #475858",
",  c #455B5C",
"<  c #674E43",
"1  c #685947",
"2  c #6E5448",
"3  c #765847",
"4  c #4C624C",
"5  c #576848",
"6  c #43615A",
"7  c #526F54",
"8  c #776949",
"9  c #657946",
"0  c #7A7848",
"q  c #6F7355",
"w  c #455E61",
"e  c #4B6463",
"r  c #496264",
"t  c #4D6B6C",
"y  c #536867",
"u  c #526D6C",
"i  c #557A68",
"p  c #4B6E70",
"a  c #4C7374",
"s  c #557777",
"d  c #547C7C",
"f  c #636862",
"g  c #6B7468",
"h  c #767C6B",
"j  c #657976",
"k  c #87763F",
"l  c #876547",
"z  c #976F4D",
"x  c #87764A",
"c  c #98724E",
"v  c #887F55",
"b  c #997952",
"n  c #A0754F",
"m  c #A17653",
"M  c #A67B53",
"N  c #AB7D54",
"B  c #5E8357",
"V  c #6D8A4A",
"C  c #788843",
"Z  c #7A9447",
"A  c #668C58",
"S  c #778E58",
"D  c #6B9559",
"F  c #6E9758",
"G  c #719452",
"H  c #729D5D",
"J  c #7DA55B",
"K  c #64886A",
"L  c #789A6C",
"P  c #66867C",
"I  c #738A77",
"U  c #6C9671",
"Y  c #76A562",
"T  c #78A764",
"R  c #77A863",
"E  c #7AA863",
"W  c #8D833F",
"Q  c #929637",
"!  c #A3A938",
"~  c #ABB13A",
"^  c #B5B93C",
"/  c #BCC23D",
"(  c #C8CF3E",
")  c #CAD13F",
"_  c #8A874A",
"`  c #839C46",
"'  c #889C4A",
"]  c #97964C",
"[  c #9C9E4D",
"{  c #858A56",
"}  c #9C8059",
"|  c #8B9655",
" . c #AB934D",
".. c #A98656",
"X. c #B18758",
"o. c #A29E50",
"O. c #A79D5D",
"+. c #BB935F",
"@. c #85A24B",
"#. c #8AA549",
"$. c #93AE4B",
"%. c #9CAC4E",
"&. c #97B54D",
"*. c #99B54D",
"=. c #9BB94E",
"-. c #82A453",
";. c #89AD56",
":. c #84AD5D",
">. c #90AF50",
",. c #8FB357",
"<. c #8BB15A",
"1. c #94B553",
"2. c #98B750",
"3. c #9AB850",
"4. c #93B15C",
"5. c #B4AF4D",
"6. c #A5A352",
"7. c #ADAA54",
"8. c #ABAC57",
"9. c #A5B951",
"0. c #ACB954",
"q. c #A6B35F",
"w. c #ACB45D",
"e. c #B6B456",
"r. c #B2BA56",
"t. c #B5B55B",
"y. c #B9B45A",
"u. c #B6BA58",
"i. c #BDBA5A",
"p. c #89996D",
"a. c #959A66",
"s. c #849777",
"d. c #909078",
"f. c #A49969",
"g. c #BD9760",
"h. c #81AB61",
"j. c #8DAC61",
"k. c #96A965",
"l. c #9CB060",
"z. c #B2AA77",
"x. c #C8BE4B",
"c. c #CAA954",
"v. c #D1AF53",
"b. c #CBB954",
"n. c #C0BA5B",
"m. c #D3B452",
"M. c #C59F65",
"N. c #CAAB6F",
"B. c #D8C64E",
"V. c #CCC350",
"C. c #D7C858",
"Z. c #E0D94A",
"A. c #E4E547",
"S. c #E4E945",
"D. c #E9F044",
"F. c #EAF15A",
"G. c #CAC576",
"H. c #D0C670",
"J. c #EBF269",
"K. c #5B8383",
"L. c #598485",
"P. c #5C8B8B",
"I. c #628584",
"U. c #6B8A86",
"Y. c #628C8C",
"T. c #768B84",
"R. c #7D9789",
"E. c #629494",
"W. c #699696",
"Q. c #699698",
"!. c #669D9D",
"~. c #6A9D9D",
"^. c #759893",
"/. c #729C9B",
"(. c #73A29E",
"). c #7BA198",
"_. c #6D9FA0",
"`. c #6CA2A2",
"'. c #73A3A4",
"]. c #7AA6A2",
"[. c #76A9AA",
"{. c #79ACAD",
"}. c #7FAFB0",
"|. c #7DB3B4",
" X c #889C86",
".X c #929B89",
"XX c #93AD98",
"oX c #AAAE85",
"OX c #84AEA7",
"+X c #83B2AC",
"@X c #8AB2AB",
"#X c #92B3A4",
"$X c #98BAAA",
"%X c #81B5B6",
"&X c #8AB5B1",
"*X c #8CB8B1",
"=X c #86BBBC",
"-X c #89BDBD",
";X c #93BDB6",
":X c #B3BCA0",
">X c #CABD88",
",X c #B2C993",
"<X c #9CC5BC",
"1X c #A3C5B4",
"2X c #B6D4B4",
"3X c #D4C486",
"4X c #CDCB93",
"5X c #EEF38A",
"6X c #EBF18C",
"7X c #D2D7AA",
"8X c #EEF3A6",
"9X c #F2F6AE",
"0X c #F2F5B1",
"qX c #8CC2C3",
"wX c #93C5C2",
"eX c #A0CAC1",
"rX c #F6F9CE",
"tX c white",
/* pixels */
"i.i.i.i.i.i.i.i.i.i.i.i.i.i.i.i.i.i.i.i.u.=.=.=.=.=.=.=.=.=.=.=.=.=.0.i.=.=.=.=.",
"r.r.r.=.=.9.r.r.r.r.r.r.0.=.=.1.,.;.V V Z Z $.=.=.=.=.=.=.=.=.=.=.=.=.=.=.=.=.=.",
"=.=.=.=.=.=.=.=.=.=.=.=.=.2.J K 6 d p P.P.s 6 { S $.=.=.=.9.r.r.=.=.=.=.=.=.=.=.",
"=.=.=.=.=.=.=.=.=.=.=.=.h.F s |.~.|.!.E.!.!.E..X&Xa #.=.i.i.i.i.u.=.=.=.=.=.=.=.",
"2.=.=.=.=.=.=.=.=.3.2.J B = _.%XR.{.[.~.|.%X{.'.|._.; _ y.i.i.i.i.i.i.t.E E <.2.",
"E 1.=.=.,.1.=.=.,.:.Y 7 a $ E.1X4X{.'.E.%XqX{.Y.<XE.$ a q 8.n.i.q.q.q.h.<.:.T T ",
"E E :.:.E E 1.=.1.1.K p U.: d (.p.W.`.!.~.E.'.U.(.d $ L.p K 0.0.1.,.,.1.=.2.1.1.",
"E E E E E E E h.:.#.d d 4XP [.Q.e E.|.{.I.[.[.y.:X{.Y.E.d d #.3.2.=.=.3.E <.=.=.",
"=.1.:.:.:.<.=.=.=.4 t w a.u wX%Xw P.|.<X X`.P.N.7XqXK.s w t 4 U U L :.E E E <.E ",
"=.=.=.=.=.=.=.=.C , : 8 * K.OX'., P.!.!.P.E.E.1  X'.K.@ @ : , 7 k.p.U T R E E E ",
"=.=.=.=.=.=.=.` : # {.7Xv P E.{.=XI.Y.!.d L.[.%X'.E.d t {.[.@ : 6.t.p.U w.l.R E ",
"E E E 2.=.=.3.7 e % =X#XoXG.- W.wXwX].a r p &X1X).$ t {.qX%X$ e q i.i.t.i.i.l.E ",
"j.j.j.j.j.q.a.> $ t `.$X6X3X, K.(.$X XY.'.%XI.!.E.g f.@X|.`.t * > %.i.i.i.i.i.i.",
"n.n.n.n.n.i.C @ X e E.!.p.b , E.!.!.s K.|.$Xs E.d.[ 9X,X!.E.e 8 z.9 0.r.r.0.i.n.",
"9.9.9.9.9.*.# e , [.Q.Y.L., $ E.!.E.h I.!.!.p Y.G.x C.k.Y.Q.[., e # $.=.=.=.9.9.",
"=.=.=.=.=.' f O.u -XqXqX=X, W.{.~.E.z.s.Y.=X;X=X|.W.f =XqXqX-Xt e , V 3.2.E E E ",
"=.=.=.=.0.{ a.H.L.%XqXeX&Xt t =X<X<X&XP : _.).!.~.u t &XeX<X;XP.$ : B R E T h.j.",
"=.0.0.0.y.0 * 8 P.!.[.#XK., e P.#X$X].L., P.!.!.E.e , K.#X#X^.E.@ # 5 -.<.4.t.n.",
"=.9.u.i.6.= @ P.~._.!.!.K.$ 2 U.^./.T.} b g I.Y.j 8 $ K.~.I 7X~.P.* = [ =.0.n.i.",
"=.=.=.3.[ O $ u [.qX|.~.d + X.g.z M.b N.M.} +.z M.+.+ s z.f.oX[.y >X* ] i.i.i.i.",
"2.=.=.=.Z O /.j z.R.{.K.u , c N l ..l N M l N l N z , , 3X8XY.u u XXO _ w.t.j.E ",
"E <.<.-.9 K.qX,X0X[ oXp t X z  .3 x.W M x.W 5.3  .c X e ..u.% Y.=XqXK.5 H R E E ",
"E E E H 4 P.{.k.B.8 G./.;Xe . .   Q ^ ! ! ^ Q   . . e ;XwX-Xe -X1X}.P.5 -.E E E ",
"E E E F = !.!.!.U.: P.@X(.u < 3 2 S.6XrX5X5XS.< 2 2 u /.$X!., E.!.!.!.4 @.2.=.:.",
":.:.J G = ~.`.!. Xx E.!.!.d 2 M  .) 0XtXrXJ.) 6.m 2 d !.!. Xh a !.`.~.= ' %.=.=.",
"=.=.=.Z & `.=X=X2Xf.P.!.E.t < m 5.( 5X9XrXJ./ V.M < z.W.!.7.4XqX=X=X`.& ] y.u.=.",
"=.9.7.0 t !.OX#X*XP.%X=X{.L.; M b./ D.F.5XF.~ C.X.- 3X+X=Xd. X*X#XOX!.t 0 7.i.i.",
"i.i.e._ , P.!.!.!.@XqXqXqX=X% X.C.^ A.A.S.A.^ b.N % |.qXqXqX@X!.!.!.P., _ 7.i.i.",
"i.i.y.[ ' 9 P !.d T.1XOX~.Y., N b.^ Z.B.c.S.! c.n , Y._.OX1XT.d !.I x ] o.e.i.i.",
"0.0.0.$.` A i K 6 t !.!.!.L., c N ~ Z.v.m.B.Q X.l > L.!.!.!.t 5 a.o.o.o.7.i.i.i.",
"=.=.=.=.' i { ] i q I R.s.0 { 3 m 5.A.c.c.m.k c l _ 0 p.R.P 9 ' ' 6.o.o.t.j.w.i.",
"9.0.i.p.L a.7.7.o.o.[ [ o.o.] o l _ e.i.i.i.S 9 q | [ [ [ ` ` ` ` %.t.8.E E E t.",
"n.n.i.n.n.i.i.y.y.%.` ` [ o.o.[ ` 2.,.q.w.l.R D A A Z ` ] ` #.=.;.1.:.E E E E w.",
"0.0.i.i.i.i.n.0.0.=.#.#.*.o.o.' #.:.E R R E E Y A G Z $.#.$.=.<.E E E E E E E :.",
"=.=.=.i.i.u.9.=.=.=.=.=.=.=.6.' >.E E E E E E E D A J h.:.=.<.E E E E 1.1.E E E ",
"=.=.=.=.=.=.=.=.=.=.3.2.2.2.#.F E E E E E E E E H D T E E E E E E E ,.=.=.=.<.E ",
"=.=.=.=.=.=.=.=.=.=.,.:.:.H D H E E 2.=.3.:.E :.:.H H E E E E :.:.T 1.=.=.=.=.=.",
"<.=.=.=.=.=.=.=.=.=.=.=.=.-.-.E E :.=.=.=.,.:.=.=.#.-.E E T :.=.=.:.:.2.=.=.=.=.",
"E =.=.=.=.=.=.=.=.=.0.i.=.&.=.2.2.2.=.=.=.3.=.=.=.=.=.2.2.2.=.=.=.=.2.=.=.=.=.=."
};
