/* XPM */
static char *result[] = {
/* columns rows colors chars-per-pixel */
"31 40 131 2 ",
"   c #172133",
".  c #192536",
"X  c #182837",
"o  c #1B263A",
"O  c #1B2C3C",
"+  c #1B323C",
"@  c #1F393E",
"#  c #2C2935",
"$  c #322C36",
"%  c #20323E",
"&  c #35303A",
"*  c #39323A",
"=  c #40363C",
"-  c #42383D",
";  c #50403F",
":  c #1D2E40",
">  c #1C3542",
",  c #1C3A45",
"<  c #1D3E48",
"1  c #203045",
"2  c #213549",
"3  c #223B4D",
"4  c #3B3A40",
"5  c #4E3F40",
"6  c #1E424B",
"7  c #1E484D",
"8  c #1F4A52",
"9  c #244F45",
"0  c #20454B",
"q  c #214C4E",
"w  c #2A5745",
"e  c #245B4C",
"r  c #244454",
"t  c #214D55",
"y  c #294B50",
"u  c #274759",
"i  c #294B5E",
"p  c #215155",
"a  c #25535C",
"s  c #235C5A",
"d  c #2A5C5F",
"f  c #2F654E",
"g  c #336547",
"h  c #3C754B",
"j  c #266452",
"k  c #2B6B52",
"l  c #24635C",
"z  c #266C5D",
"x  c #2B6E5C",
"c  c #2D7555",
"v  c #28715D",
"b  c #29795E",
"n  c #2A4D61",
"m  c #275461",
"M  c #285362",
"N  c #265D64",
"B  c #2A5C64",
"V  c #285F68",
"C  c #256463",
"Z  c #2D6461",
"A  c #266B62",
"S  c #286962",
"D  c #276469",
"F  c #28646A",
"G  c #276C6C",
"H  c #286B6C",
"J  c #2C7566",
"K  c #2D7C65",
"L  c #27716D",
"P  c #28746D",
"I  c #2A7B6C",
"U  c #484343",
"Y  c #534241",
"T  c #584644",
"R  c #5E4944",
"E  c #614B46",
"W  c #675047",
"Q  c #76594C",
"!  c #795B4B",
"~  c #446041",
"^  c #4A6A44",
"/  c #5D7647",
"(  c #3B8555",
")  c #3F8D56",
"_  c #3E935A",
"`  c #2D8265",
"'  c #2D8D66",
"]  c #2C846C",
"[  c #2D8B6B",
"{  c #348D64",
"}  c #328D68",
"|  c #2F9167",
" . c #2E936A",
".. c #369665",
"X. c #3B9565",
"o. c #379B67",
"O. c #3B9D66",
"+. c #329669",
"@. c #339969",
"#. c #3EA264",
"$. c #4E904E",
"%. c #479856",
"&. c #429558",
"*. c #658B4E",
"=. c #74864C",
"-. c #7A8C4E",
";. c #4BA35C",
":. c #4DAC5E",
">. c #52AE5B",
",. c #55B25B",
"<. c #5BB759",
"1. c #66B75D",
"2. c #6CB05A",
"3. c #63BA5A",
"4. c #70BD5B",
"5. c #439763",
"6. c #439C63",
"7. c #43A462",
"8. c #49A261",
"9. c #46A861",
"0. c #49A960",
"q. c #75C05C",
"w. c #82AB56",
"e. c #8DAD57",
"r. c #A4BA5B",
"t. c #89C35D",
"y. c #ABCB5F",
"u. c #A0CE60",
"i. c #B4CE60",
"p. c #AED362",
"a. c None",
/* pixels */
"a.a.a.a.a.a.a.a.a.a.a.a.a.a.a.a.a.a.a.a.a.a.a.a.a.a.a.a.a.a.a.",
"a.a.a.a.a.a.a.a.a.a.a.a.a.a.a.a.a.a.a.a.a.a.a.a.a.a.a.a.a.a.a.",
"a.a.a.a.a.a.a.a.a.a.a.a.a.a.a.a.a.a.a.a.a.a.a.a.a.a.a.a.a.a.a.",
"a.a.a.a.a.a.a.a.a.a.a.a.a.a.a.-.=.a.a.a.a.a.a.a.a.a.a.a.a.a.a.",
"a.a.a.a.a.a.a.a.a.a.a.a.a.a.a.r.e.a.a.a.a.a.a.a.a.a.a.a.a.a.a.",
"a.a.a.a.a.a.a.a.a.a.a.a.a.a./ i.y.~ a.a.a.a.a.a.a.a.a.a.a.a.a.",
"a.a.a.a.a.a.a.a.a.a.a.a.a.a.w.p.u.*.a.a.a.a.a.a.a.a.a.a.a.a.a.",
"a.a.a.a.a.a.a.a.a.a.a.a.a.^ t.t.q.2.w a.a.a.a.a.a.a.a.a.a.a.a.",
"a.a.a.a.a.a.a.a.a.a.a.a.a.$.3.q.1.>.&.a.a.a.a.a.a.a.a.a.a.a.a.",
"a.a.a.a.a.a.a.a.a.a.a.a.g >.0.1.3.&.) c a.a.a.a.a.a.a.a.a.a.a.",
"a.a.a.a.a.a.a.a.a.a.a.j &.( ;.,.,.:.k j e a.a.a.a.a.a.a.a.a.a.",
"a.a.a.a.a.a.a.a.a.a.+ e 9 f &.O.7.#.{ 6 a.a.a.a.a.a.a.a.a.a.a.",
"a.a.a.a.a.a.a.a.a.a.a.a.q } [ O.o. .@.z a.a.a.a.a.a.a.a.a.a.a.",
"a.a.a.a.a.a.a.a.a.a.a.6 ` O. .@.@.[  .[ 6 a.a.a.a.a.a.a.a.a.a.",
"a.a.a.a.a.a.a.a.a.a.7 K 7.#.+.#.O.X...#.v 0 a.a.a.a.a.a.a.a.a.",
"a.a.a.a.a.a.a.a.X t A ;.%.{ 7.,.,.,.5.0.O.j < a.a.a.a.a.a.a.a.",
"a.a.a.a.a.a.a.a.a.@ g h x ..,.,.>.8.,.#.#.` @ a.a.a.a.a.a.a.a.",
"a.a.a.a.a.a.a.a.a.a.% l +.9.6.o.0.X.6.7.| | z a.a.a.a.a.a.a.a.",
"a.a.a.a.a.a.a.a.a.> A  .O.o.7.:.o.7.+.+.' z J l 6 a.a.a.a.a.a.",
"a.a.a.a.a.a.a.a.7 A I [ [ 8.<.7.o.@.@.[ K l > , a.a.a.a.a.a.a.",
"a.a.a.a.a.a.a., 8 8 C I 5.,.:.#.O. .[ ] J s p + a.a.a.a.a.a.a.",
"a.a.a.a.a.a.a.a.  p ] O.:.7.@.@.@. .[ I [ ` r . a.a.a.a.a.a.a.",
"a.a.a.a.a.a.a.6 l ] +.@.@.+. . . .o. .+.[  .S p a.a.a.a.a.a.a.",
"a.a.a.a.a.a.. 6 s I ] +.[  .@.[ ] 7.7.9.o.| l l s , a.a.a.a.a.",
"a.a.a.a.a.a.a.o r K O.O.+.O.#. .] 7.,.,.:.` z p 6 a.a.a.a.a.a.",
"a.a.a.a.a., r d I +.} +.9.9.O.} [ o.7.O.:.} p 0 + a.a.a.a.a.a.",
"a.a.a.a.a., s C l i J 7.7.o.` K @. . .] O.+.B 2 a.a.a.a.a.a.a.",
"a.a.a.a.a.O : O 3 d X.X.J ] G P #.K ` ] P [ P u O a.a.a.a.a.a.",
"a.a.a.a.. 1 3 i B Z Z B P [ P P  .I H I L G G B u 6 a.a.a.a.a.",
"a.a.a.a.> t F F n n n B P ] P P ] [ P L G D a a V V p > a.a.a.",
"a.a.a.a.6 a a r 3 n F H L L F L P P P G D L I 8 , O a.a.a.a.a.",
"a.a.a.a.a.a.o > M n n n M F V H H F L G s L [ [ z 6 a.a.a.a.a.",
"a.a.a.a.a.a.8 C F B a 2 m F i F M i B H D p C C t , a.a.a.a.a.",
"a.a.a.a.a.a.a.6 < < O < n u 3 i 2 M 3 u N B p , a.a.a.a.a.a.a.",
"a.a.a.a.a.a.a.a.a.X r D a > s 3 & a C t , < t , a.a.a.a.a.a.a.",
"a.a.a.a.a.a.a.a.a.a.> < o > y U R 4 6 r > a.a.a.a.a.a.a.a.a.a.",
"a.a.a.a.a.a.a.a.a.a.a.a.# 5 Y Q ! Y $ a.a.a.a.a.a.a.a.a.a.a.a.",
"a.a.a.a.a.a.a.a.a.a.a.a.- W 5 T E Y & a.a.a.a.a.a.a.a.a.a.a.a.",
"a.a.a.a.a.a.a.a.a.a.a.a.a.- * a.a.a.a.a.a.a.a.a.a.a.a.a.a.a.a.",
"a.a.a.a.a.a.a.a.a.a.a.a.a.a.a.a.a.a.a.a.a.a.a.a.a.a.a.a.a.a.a."
};
