/* XPM */
static char *_9766bde4464468b9de4ef1272db1175EFegNiWfuMHY2Fy4[] = {
/* columns rows colors chars-per-pixel */
"31 40 138 2 ",
"   c None",
".  c #172334",
"X  c #1B2433",
"o  c #1B2C3C",
"O  c #1B323E",
"+  c #1C393C",
"@  c #242934",
"#  c #282E3E",
"$  c #263F37",
"%  c #3C343B",
"&  c #44383D",
"*  c #1E2D41",
"=  c #1C3442",
"-  c #1C3B45",
";  c #1E3D49",
":  c #203146",
">  c #223549",
",  c #223A4D",
"<  c #313E46",
"1  c #243E51",
"2  c #483F41",
"3  c #1D4147",
"4  c #1F4A45",
"5  c #1E434B",
"6  c #1F494E",
"7  c #1F4650",
"8  c #1F4A51",
"9  c #21434E",
"0  c #2B464D",
"q  c #264F48",
"w  c #255647",
"e  c #275548",
"r  c #244354",
"t  c #224D55",
"y  c #274A5C",
"u  c #294C5D",
"i  c #225256",
"p  c #255953",
"a  c #23545B",
"s  c #2A535E",
"d  c #235B5D",
"f  c #2C6B4F",
"g  c #2A6E54",
"h  c #24615A",
"j  c #2B6758",
"k  c #2F7756",
"l  c #27715C",
"z  c #2B755B",
"x  c #29785E",
"c  c #3C7B51",
"v  c #294F61",
"b  c #275360",
"n  c #295262",
"m  c #255D63",
"M  c #285B66",
"N  c #266363",
"B  c #2A6765",
"V  c #276C63",
"C  c #2B6B66",
"Z  c #28646A",
"A  c #276D6D",
"S  c #286B6C",
"D  c #277365",
"F  c #2B7364",
"G  c #2B7D65",
"H  c #27706E",
"J  c #28746D",
"K  c #2A7B6C",
"L  c #317A62",
"P  c #544342",
"I  c #5A4744",
"U  c #634D46",
"Y  c #6C5449",
"T  c #7B5C4C",
"R  c #48734A",
"E  c #407C49",
"W  c #547346",
"Q  c #5A7C49",
"!  c #3C8657",
"~  c #33885F",
"^  c #3A8B58",
"/  c #2C8263",
"(  c #2F8A64",
")  c #2C846A",
"_  c #2D8C6B",
"`  c #338565",
"'  c #328F67",
"]  c #33876A",
"[  c #308D6A",
"{  c #2F946A",
"}  c #349367",
"|  c #399465",
" . c #369A67",
".. c #3B9D65",
"X. c #329569",
"o. c #349A68",
"O. c #3CA065",
"+. c #458D53",
"@. c #479956",
"#. c #439758",
"$. c #439B5B",
"%. c #71824B",
"&. c #798B4D",
"*. c #709650",
"=. c #4CA55D",
"-. c #4CAB5E",
";. c #51AC5C",
":. c #55B25B",
">. c #5AB55C",
",. c #7CA254",
"<. c #60B75A",
"1. c #6FB158",
"2. c #6DBD5B",
"3. c #459D62",
"4. c #41A363",
"5. c #42A163",
"6. c #42A463",
"7. c #42A462",
"8. c #45A561",
"9. c #45A761",
"0. c #46A761",
"q. c #44A562",
"w. c #44A762",
"e. c #40A364",
"r. c #40A464",
"t. c #49A161",
"y. c #47A861",
"u. c #46A861",
"i. c #77C05C",
"p. c #7EC25D",
"a. c #94AA56",
"s. c #A2BC5B",
"d. c #85C05D",
"f. c #8BC65E",
"g. c #A6CA5F",
"h. c #9ACC60",
"j. c #B3D663",
"k. c #B9D663",
/* pixels */
"                                                              ",
"                              @                               ",
"                              %.                              ",
"                            &.s.                              ",
"                            a.k.Q                             ",
"                          W g.j.,.                            ",
"                          *.h.f.d.R                           ",
"                          1.2.p.>.=.w                         ",
"                        E :.:.i.;.@.^                         ",
"                      g @.#.:.<.:.! k g +                     ",
"                    4 f e ! 3.0.7.4.p -                       ",
"                      . j | _ 7.o.o./ =                       ",
"                      8 [ X.{ o.X.{ { d                       ",
"                    3 G e.o.X.o.X.[  .( 3                     ",
"                  8 L =.$. .4.;.-.3.3.r.z 3                   ",
"                = p +.c / 0.:.:.-.:.4.0.~ =                   ",
"                  $ q F ..-.O.-...t.y.o.{ h                   ",
"                  6 G  .....0.O.0.} ..X.G ) N 5               ",
"                i K _ { | :.:.o. .o._ / l 3 5 =               ",
"            O a m d K ) =.>.0.O.X._ _ l h i +                 ",
"              o ; D ] t.-...o.o.{ _ K ) / i O                 ",
"              t D {  .O...X.{ { o.{ _ ) { F ,                 ",
"          . 3 d K _ _ _ _ { { ) ...... .{ x N a               ",
"              o N } ..{ } ..} K  .:.:.-.( x i i 8             ",
"            > s _ ..} ..y.7.o._ } y.0.:.| h p 3               ",
"        o i C K V B } -. .X.) { { o.[ | O.C ,                 ",
"          = 5 9 r L 0.| G G S } ' _ _ K _ ) y o               ",
"        * : > u F ` L C ) K H } [ B G J H H Z r =             ",
"        o r M n s u n J ) J K _ _ K H H Z m m M m i -         ",
"      = d Z m r n Z A J J S H K K J A S A J 9 - - O           ",
"        = = = r v n M M Z Z A A A H A a H _ ) h -             ",
"          5 m M n n r b S M Z M n Z H N i V V d ;             ",
"          ; i i i - = u n 1 n 1 u r b S m 7 - .               ",
"                  = d M 1 9 y # a s 1 , t d 3                 ",
"                  ; t 3 o a 0 & < d a =                       ",
"                      X % 2 Y T P @ .                         ",
"                      % U P U U I &                           ",
"                        P & % P %                             ",
"                                                              ",
"                                                              "
};
