/* XPM */
static char *result[] = {
/* columns rows colors chars-per-pixel */
"31 40 123 2 ",
"   c #161E32",
".  c #192636",
"X  c #182837",
"o  c #1A2639",
"O  c #1A2E3D",
"+  c #1C303B",
"@  c #272633",
"#  c #35313A",
"$  c #3B333A",
"%  c #45393C",
"&  c #1E2F42",
"*  c #1C3542",
"=  c #1C3B45",
"-  c #1D3E48",
";  c #203146",
":  c #213549",
">  c #24394D",
",  c #493D40",
"<  c #1E4241",
"1  c #1E434C",
"2  c #1F4750",
"3  c #1F4B52",
"4  c #244E45",
"5  c #21454F",
"6  c #2A404A",
"7  c #204C49",
"8  c #22564A",
"9  c #275E4B",
"0  c #234453",
"q  c #234C54",
"w  c #274759",
"e  c #28465B",
"r  c #254C59",
"t  c #294A5E",
"y  c #215455",
"u  c #235B55",
"i  c #24535B",
"p  c #235B5C",
"a  c #295C5E",
"s  c #27614F",
"d  c #346043",
"f  c #3A6F46",
"g  c #33674C",
"h  c #256256",
"j  c #266A54",
"k  c #296A52",
"l  c #25635E",
"z  c #276C59",
"x  c #27725E",
"c  c #29775D",
"v  c #377655",
"b  c #3A7E50",
"n  c #294D60",
"m  c #275661",
"M  c #2A5562",
"N  c #255B62",
"B  c #295B64",
"V  c #266364",
"C  c #2C6764",
"Z  c #266B64",
"A  c #2C6963",
"S  c #28646A",
"D  c #276C6D",
"F  c #286C6D",
"G  c #2B7563",
"H  c #2E7C66",
"J  c #27736F",
"K  c #28736E",
"L  c #2A7B6C",
"P  c #474243",
"I  c #544342",
"U  c #584643",
"Y  c #5F4A44",
"T  c #624D46",
"R  c #71554B",
"E  c #795B4C",
"W  c #426041",
"Q  c #587246",
"!  c #547B49",
"~  c #3C8554",
"^  c #3C8B57",
"/  c #388858",
"(  c #2D8363",
")  c #2D8A64",
"_  c #2C836B",
"`  c #2D8B6B",
"'  c #328261",
"]  c #338F69",
"[  c #2E936A",
"{  c #349166",
"}  c #3B9465",
"|  c #379B67",
" . c #3B9C65",
".. c #329669",
"X. c #339969",
"o. c #3EA164",
"O. c #5F8A4D",
"+. c #419458",
"@. c #549F53",
"#. c #74864C",
"$. c #7A8C4E",
"%. c #4BA65C",
"&. c #4CAC5F",
"*. c #52AE5B",
"=. c #54B25B",
"-. c #5CB55C",
";. c #5EB85A",
":. c #65A257",
">. c #73BF5B",
",. c #439C63",
"<. c #44A462",
"1. c #49A360",
"2. c #46A861",
"3. c #48A960",
"4. c #78C15C",
"5. c #8DAD57",
"6. c #8CB258",
"7. c #A6BC5B",
"8. c #8BC65E",
"9. c #99CB5F",
"0. c #A7C85F",
"q. c #B4D262",
"w. c None",
/* pixels */
"w.w.w.w.w.w.w.w.w.w.w.w.w.w.w.w.w.w.w.w.w.w.w.w.w.w.w.w.w.w.w.",
"w.w.w.w.w.w.w.w.w.w.w.w.w.w.w.w.w.w.w.w.w.w.w.w.w.w.w.w.w.w.w.",
"w.w.w.w.w.w.w.w.w.w.w.w.w.w.w.w.w.w.w.w.w.w.w.w.w.w.w.w.w.w.w.",
"w.w.w.w.w.w.w.w.w.w.w.w.w.w.w.$.#.w.w.w.w.w.w.w.w.w.w.w.w.w.w.",
"w.w.w.w.w.w.w.w.w.w.w.w.w.w.w.7.5.w.w.w.w.w.w.w.w.w.w.w.w.w.w.",
"w.w.w.w.w.w.w.w.w.w.w.w.w.w.Q q.0.W w.w.w.w.w.w.w.w.w.w.w.w.w.",
"w.w.w.w.w.w.w.w.w.w.w.w.w.w.6.q.9.! w.w.w.w.w.w.w.w.w.w.w.w.w.",
"w.w.w.w.w.w.w.w.w.w.w.w.w.O.8.8.4.:.w.w.w.w.w.w.w.w.w.w.w.w.w.",
"w.w.w.w.w.w.w.w.w.w.w.w.w.@.;.4.-.*.~ w.w.w.w.w.w.w.w.w.w.w.w.",
"w.w.w.w.w.w.w.w.w.w.w.w.f *.*.>.-.^ / k w.w.w.w.w.w.w.w.w.w.w.",
"w.w.w.w.w.w.w.w.w.w.w.k +.b *.=.=.%.s j 8 w.w.w.w.w.w.w.w.w.w.",
"w.w.w.w.w.w.w.w.w.w.< 9 4 v ,.<.o.<.' * w.w.w.w.w.w.w.w.w.w.w.",
"w.w.w.w.w.w.w.w.w.w.w.  u ] ` <.X.[ ..u w.w.w.w.w.w.w.w.w.w.w.",
"w.w.w.w.w.w.w.w.w.w.w.q ] X.[ | ..` [ H * w.w.w.w.w.w.w.w.w.w.",
"w.w.w.w.w.w.w.w.w.w.p { 3.X.X.<. .} | o.h = w.w.w.w.w.w.w.w.w.",
"w.w.w.w.w.w.w.w.+ i c *.+.{ 1.=.-.=.,.3.} u * w.w.w.w.w.w.w.w.",
"w.w.w.w.w.w.w.w.w.+ d g x X.=.=.*.1.&.o.o.( w.w.w.w.w.w.w.w.w.",
"w.w.w.w.w.w.w.w.w.w.- Z ..2.,.| &.} ,.2.) ) l w.w.w.w.w.w.w.w.",
"w.w.w.w.w.w.w.w.w.- G [ |  .<.&.| <.....) z L p w.w.w.w.w.w.w.",
"w.w.w.w.w.w.w.w.3 Z G ` ] 1.-.2.| X.X.` G u - 1 w.w.w.w.w.w.w.",
"w.w.w.w.w.w.w.1 q 2 l _ ,.=.*.o.| [ [ _ c y 7 w.w.w.w.w.w.w.w.",
"w.w.w.w.w.w.w.w.O l `  .&.<.| X.X.X.` L ` G 5 . w.w.w.w.w.w.w.",
"w.w.w.w.w.w.w.w.Z ` [ ..X.....[ [ | ..X.` [ C i w.w.w.w.w.w.w.",
"w.w.w.w.w.w.+ q l L ` ..` [ [ ` _ <.<.<.| [ z N l * w.w.w.w.w.",
"w.w.w.w.w.w.w.o q _  .o...o.o.[ _ <.=.=.%.( x y = w.w.w.w.w.w.",
"w.w.w.w.w.w.0 a L ] { ..2.&.} { ` o. .<.&.' q 5 w.w.w.w.w.w.w.",
"w.w.w.w.w.= p Z a i G 1.<.X.H _ X.[ [ _ | [ B : w.w.w.w.w.w.w.",
"w.w.w.w.w.o O * 0 B } ,.H ` G K  .) ` L L ` L w w.w.w.w.w.w.w.",
"w.w.w.w.. ; > e B A C B L _ L J ..H F L J D V B w * w.w.w.w.w.",
"w.w.w.w.O 0 V S e n n M F _ J J _ _ L K J S N i N V i * w.w.w.",
"w.w.w.w.- i m 0 * n B F F F S K J J J F D J L p = - * w.w.w.w.",
"w.w.w.w.w.w.w.X r M n M n S S S F S F K V S ` ` Z 1 w.w.w.w.w.",
"w.w.w.w.w.w.- p D B N 0 w S m N B n M F F r p V y 1 w.w.w.w.w.",
"w.w.w.w.w.w.w.* - - * * t e > M > i 0 0 N B i 1 X w.w.w.w.w.w.",
"w.w.w.w.w.w.w.w.w.o 0 V m * i 0 # > V r 0 * q 1 w.w.w.w.w.w.w.",
"w.w.w.w.w.w.w.w.w.w.* - . O q , Y , * 3 - w.w.w.w.w.w.w.w.w.w.",
"w.w.w.w.w.w.w.w.w.w.w.w.@ % U R E Y $ w.w.w.w.w.w.w.w.w.w.w.w.",
"w.w.w.w.w.w.w.w.w.w.w.w.# T I I T U $ w.w.w.w.w.w.w.w.w.w.w.w.",
"w.w.w.w.w.w.w.w.w.w.w.w.w.w.$ w.w.w.w.w.w.w.w.w.w.w.w.w.w.w.w.",
"w.w.w.w.w.w.w.w.w.w.w.w.w.w.w.w.w.w.w.w.w.w.w.w.w.w.w.w.w.w.w."
};
