/* XPM */
static char *result[] = {
/* columns rows colors chars-per-pixel */
"31 40 122 2 ",
"   c #18202E",
".  c #182434",
"X  c #1A2B37",
"o  c #1A2D3C",
"O  c #1B333D",
"+  c #1C393C",
"@  c #2A2A36",
"#  c #322E37",
"$  c #322E38",
"%  c #35343E",
"&  c #42383D",
"*  c #4B3D3F",
"=  c #2E463A",
"-  c #1E2E42",
";  c #1C3442",
":  c #1D3B44",
">  c #1E3D4A",
",  c #203246",
"<  c #22364A",
"1  c #233A4C",
"2  c #253F53",
"3  c #4A3D40",
"4  c #1E4341",
"5  c #1F4944",
"6  c #1E444C",
"7  c #1F494E",
"8  c #1F4750",
"9  c #1F4B52",
"0  c #224D4C",
"q  c #22564B",
"w  c #255E4E",
"e  c #234453",
"r  c #234C54",
"t  c #27465A",
"y  c #264B5A",
"u  c #294C5E",
"i  c #215257",
"p  c #245B55",
"a  c #23555B",
"s  c #29545C",
"d  c #235B5C",
"f  c #2F664B",
"g  c #35704B",
"h  c #3E7A4B",
"j  c #25635C",
"k  c #266B5D",
"l  c #306C54",
"z  c #28755B",
"x  c #2D7B5D",
"c  c #347C54",
"v  c #2A4F61",
"b  c #295663",
"n  c #255E62",
"m  c #295C64",
"M  c #285E68",
"N  c #256264",
"B  c #2B6460",
"V  c #276C62",
"C  c #2A6967",
"Z  c #276569",
"A  c #28646A",
"S  c #276C6C",
"D  c #286A6C",
"F  c #277367",
"G  c #2C7564",
"H  c #2A7B65",
"J  c #27716F",
"K  c #28766D",
"L  c #2A7B6D",
"P  c #317B64",
"I  c #544342",
"U  c #5E4A46",
"Y  c #644D46",
"T  c #685047",
"R  c #6C534A",
"E  c #71564A",
"W  c #5D6B44",
"Q  c #5E7E4A",
"!  c #617C49",
"~  c #2C8562",
"^  c #2C8864",
"/  c #2C856B",
"(  c #2D8B6B",
")  c #358E65",
"_  c #3B8C63",
"`  c #318768",
"'  c #348D69",
"]  c #2F946A",
"[  c #359466",
"{  c #3D9765",
"}  c #379C67",
"|  c #3B9D65",
" . c #329569",
".. c #349A68",
"X. c #3EA164",
"o. c #4B844E",
"O. c #5F914F",
"+. c #4F9E53",
"@. c #429259",
"#. c #4BA55C",
"$. c #4DAB5E",
"%. c #50A557",
"&. c #51AF5D",
"*. c #56B35B",
"=. c #5BB65A",
"-. c #5CB858",
";. c #6BBC5B",
":. c #459F62",
">. c #43A462",
",. c #4AA760",
"<. c #47A960",
"1. c #48A960",
"2. c #7BC25D",
"3. c #839751",
"4. c #869952",
"5. c #8EA555",
"6. c #86AF57",
"7. c #9CBB5B",
"8. c #87C55E",
"9. c #96C65E",
"0. c #B5D563",
"q. c None",
/* pixels */
"q.q.q.q.q.q.q.q.q.q.q.q.q.q.q.q.q.q.q.q.q.q.q.q.q.q.q.q.q.q.q.",
"q.q.q.q.q.q.q.q.q.q.q.q.q.q.q.q.q.q.q.q.q.q.q.q.q.q.q.q.q.q.q.",
"q.q.q.q.q.q.q.q.q.q.q.q.q.W q.q.q.q.q.q.q.q.q.q.q.q.q.q.q.q.q.",
"q.q.q.q.q.q.q.q.q.q.q.q.5.4.q.q.q.q.q.q.q.q.q.q.q.q.q.q.q.q.q.",
"q.q.q.q.q.q.q.q.q.q.q.! 0.3.q.q.q.q.q.q.q.q.q.q.q.q.q.q.q.q.q.",
"q.q.q.q.q.q.q.q.q.q.= 6.0.7.q.q.q.q.q.q.q.q.q.q.q.q.q.q.q.q.q.",
"q.q.q.q.q.q.q.q.q.q.o.2.8.9.! q.q.q.q.q.q.q.q.q.q.q.q.q.q.q.q.",
"q.q.q.q.q.q.q.q.q.c $.*.2.;.O.q.q.q.q.q.q.q.q.q.q.q.q.q.q.q.q.",
"q.q.q.q.q.q.q.4 z c @.=.;.*.%.q.q.q.q.q.q.q.q.q.q.q.q.q.q.q.q.",
"q.q.q.q.q.q.q.q.+ w $.*.=.#.%.g q.q.q.q.q.q.q.q.q.q.q.q.q.q.q.",
"q.q.q.q.q.q.q.q.q.~ ..} { @.f c q q.q.q.q.q.q.q.q.q.q.q.q.q.q.",
"q.q.q.q.q.q.q.q.f ] ] } ' ' p X 4 q.q.q.q.q.q.q.q.q.q.q.q.q.q.",
"q.q.q.q.q.q.q.5 ^ ] ] ] ] ] / 6 q.q.q.q.q.q.q.q.q.q.q.q.q.q.q.",
"q.q.q.q.q.q.q.x ..] X...[ { >.x 0 ; q.q.q.q.q.q.q.q.q.q.q.q.q.",
"q.q.q.q.q.q.j <.X...&.*.*.:.$.<.x O q.q.q.q.q.q.q.q.q.q.q.q.q.",
"q.q.q.q.q.a _ %.[ $.*.*.#.$.X.} ] G 7 q.q.q.q.q.q.q.q.q.q.q.q.",
"q.q.q.q.> q h l  .1.X.X.,.' |  .z k j : q.q.q.q.q.q.q.q.q.q.q.",
"q.q.q.q.q.  : H >.{ X.X.>.|  .] H 4 O q.q.q.q.q.q.q.q.q.q.q.q.",
"q.q.q.q.q.q.k ]  .>.=.<. .] ] ^ F p 0 X q.q.q.q.q.q.q.q.q.q.q.",
"q.q.q.q.q.> L ( / ,.=.<.X.] ( K / ^ B e : q.q.q.q.q.q.q.q.q.q.",
"q.q.q.q.q.a S F ' &.$.| ....] ( ^ ] ^ N N 7 q.q.q.q.q.q.q.q.q.",
"q.q.q.q.> i 7 H :.,... . .....} X. .^ p 6 o q.q.q.q.q.q.q.q.q.",
"q.q.q.q.q.o V ] .. .( ..( / >.*.*.1.~ p > q.q.q.q.q.q.q.q.q.q.",
"q.q.q.q.q.d / / ] ( ] ..] / ..&.<.$.| n o q.q.q.q.q.q.q.q.q.q.",
"q.q.q.q.r a d ^ | ..X.<. .( ] }  ...} K 2 q.q.q.q.q.q.q.q.q.q.",
"q.q.q.q.. - B .. .X.1.| G  . ...( L ] ^ b 1 > q.q.q.q.q.q.q.q.",
"q.q.q.q.: m H V / 1... .C ) [ C / K J K A b b N r q.q.q.q.q.q.",
"q.q.q.; n j e s { _ G ( J L } H J K D A a r 8 : q.q.q.q.q.q.q.",
"q.q.q.q.o - s H G m H ` L K / / L J J S L k 0 + q.q.q.q.q.q.q.",
"q.q.q.- , t b v v M K L S J K J K S N S / ( F 7 q.q.q.q.q.q.q.",
"q.q.q.; b D t t M S S S A D D A D J D d a i ; q.q.q.q.q.q.q.q.",
"q.q.o i M 9 @ u v v v A A M A v u s M A N 9 X q.q.q.q.q.q.q.q.",
"q.q.q.q.o o r A b 2 < b e e y 1 b e e > > : q.q.q.q.q.q.q.q.q.",
"q.q.q.q.q.8 d a 6 o y u ; y 1 % i Z n o q.q.q.q.q.q.q.q.q.q.q.",
"q.q.q.q.q.q.q.q.q.e N > < r % 3 @ ; O q.q.q.q.q.q.q.q.q.q.q.q.",
"q.q.q.q.q.q.q.q.q.o O q.# 3 T T * q.q.q.q.q.q.q.q.q.q.q.q.q.q.",
"q.q.q.q.q.q.q.q.q.q.q.@ * T R E Y & q.q.q.q.q.q.q.q.q.q.q.q.q.",
"q.q.q.q.q.q.q.q.q.q.q.q.Y I * U I # q.q.q.q.q.q.q.q.q.q.q.q.q.",
"q.q.q.q.q.q.q.q.q.q.q.q.q.q.q.q.q.q.q.q.q.q.q.q.q.q.q.q.q.q.q.",
"q.q.q.q.q.q.q.q.q.q.q.q.q.q.q.q.q.q.q.q.q.q.q.q.q.q.q.q.q.q.q."
};
