/* XPM */
static char *result[] = {
/* columns rows colors chars-per-pixel */
"31 40 131 2 ",
"   c #172031",
".  c #182635",
"X  c #1A2738",
"o  c #1A2D3B",
"O  c #1A333E",
"+  c #1D3F3F",
"@  c #2D2A36",
"#  c #312C36",
"$  c #203234",
"%  c #24353F",
"&  c #36313B",
"*  c #39323A",
"=  c #40363C",
"-  c #42383D",
";  c #4F3F3F",
":  c #1D3442",
">  c #1C3A44",
",  c #1D3E49",
"<  c #203346",
"1  c #23374C",
"2  c #233D4C",
"3  c #363A41",
"4  c #253F52",
"5  c #4E3F40",
"6  c #1E4444",
"7  c #1E454C",
"8  c #1F4A51",
"9  c #204C46",
"0  c #20464F",
"q  c #29444A",
"w  c #214C4C",
"e  c #2F5741",
"r  c #22544A",
"t  c #244454",
"y  c #214C54",
"u  c #28465A",
"i  c #254B59",
"p  c #284B5E",
"a  c #235355",
"s  c #235D55",
"d  c #23545A",
"f  c #29505E",
"g  c #225A5B",
"h  c #29654F",
"j  c #2F6C4E",
"k  c #376643",
"l  c #31674C",
"z  c #306B4D",
"x  c #256057",
"c  c #2A6051",
"v  c #256957",
"b  c #2A6E53",
"n  c #24635B",
"m  c #276F5A",
"M  c #28685B",
"N  c #2A745C",
"B  c #294E61",
"V  c #275561",
"C  c #2A5562",
"Z  c #245D62",
"A  c #2A5A64",
"S  c #266366",
"D  c #2B6264",
"F  c #266B64",
"G  c #296D67",
"H  c #286369",
"J  c #276C6D",
"K  c #286A6B",
"L  c #277160",
"P  c #2D7265",
"I  c #2C7D66",
"U  c #27726F",
"Y  c #28746D",
"T  c #2A7C6C",
"R  c #277270",
"E  c #514241",
"W  c #594644",
"Q  c #614B46",
"!  c #675047",
"~  c #76594C",
"^  c #795B4B",
"/  c #4B6B44",
"(  c #5B6B45",
")  c #537246",
"_  c #647347",
"`  c #6B7E4A",
"'  c #3D8957",
"]  c #3C8259",
"[  c #3C8D58",
"{  c #2D8363",
"}  c #2D8E66",
"|  c #2C836B",
" . c #2D8C6B",
".. c #368C64",
"X. c #318D69",
"o. c #2F946A",
"O. c #349464",
"+. c #3B9665",
"@. c #379B67",
"#. c #3B9D65",
"$. c #329569",
"%. c #339969",
"&. c #3EA164",
"*. c #57924F",
"=. c #439356",
"-. c #479D59",
";. c #5E9251",
":. c #4EA75E",
">. c #4DAC5E",
",. c #52A656",
"<. c #53AE5B",
"1. c #54B15C",
"2. c #5CB65B",
"3. c #60B65C",
"4. c #6CBD5B",
"5. c #419564",
"6. c #459B62",
"7. c #42A362",
"8. c #48A660",
"9. c #47A961",
"0. c #48A960",
"q. c #77C15C",
"w. c #839F53",
"e. c #87A956",
"r. c #A2B95B",
"t. c #8EC75E",
"y. c #95C65E",
"u. c #A1C75E",
"i. c #B7D663",
"p. c #B8D161",
"a. c None",
/* pixels */
"a.a.a.a.a.a.a.a.a.a.a.a.a.a.a.a.a.a.a.a.a.a.a.a.a.a.a.a.a.a.a.",
"a.a.a.a.a.a.a.a.a.a.a.a.a.a.a.a.a.a.a.a.a.a.a.a.a.a.a.a.a.a.a.",
"a.a.a.a.a.a.a.a.a.a.a.a.a.a.a.a.a.a.a.a.a.a.a.a.a.a.a.a.a.a.a.",
"a.a.a.a.a.a.a.a.a.a.a.a.a.a.a._ a.a.a.a.a.a.a.a.a.a.a.a.a.a.a.",
"a.a.a.a.a.a.a.a.a.a.a.a.a.a.` r.a.a.a.a.a.a.a.a.a.a.a.a.a.a.a.",
"a.a.a.a.a.a.a.a.a.a.a.a.a.a.e.p.( a.a.a.a.a.a.a.a.a.a.a.a.a.a.",
"a.a.a.a.a.a.a.a.a.a.a.a.a./ u.i.e.a.a.a.a.a.a.a.a.a.a.a.a.a.a.",
"a.a.a.a.a.a.a.a.a.a.a.a.a.;.q.y.y.) a.a.a.a.a.a.a.a.a.a.a.a.a.",
"a.a.a.a.a.a.a.a.a.a.a.a.z <.3.4.4.*.a.a.a.a.a.a.a.a.a.a.a.a.a.",
"a.a.a.a.a.a.a.a.a.a.a.r [ =.2.4.1.1.k a.a.a.a.a.a.a.a.a.a.a.a.",
"a.a.a.a.a.a.a.a.a.a.9 N h =.2.2.<.-.=.r a.a.a.a.a.a.a.a.a.a.a.",
"a.a.a.a.a.a.a.a.a.a.a.> N 7.7.7.-.l z b + a.a.a.a.a.a.a.a.a.a.",
"a.a.a.a.a.a.a.a.a.a.a.g X. .@.@.$.O.0 a.a.a.a.a.a.a.a.a.a.a.a.",
"a.a.a.a.a.a.a.a.a.a.g  .@.o.o.o.$.o.L a.a.a.a.a.a.a.a.a.a.a.a.",
"a.a.a.a.a.a.a.a.7 n +.9.@.$.&.%.X.o.X.6 a.a.a.a.a.a.a.a.a.a.a.",
"a.a.a.a.a.a.a.: a ] ,.' O.>.1.1.8.+.7.m 0 o a.a.a.a.a.a.a.a.a.",
"a.a.a.a.a.a.a.a.$ e s | 7.1.1.>.1.8.0.O.w a.a.a.a.a.a.a.a.a.a.",
"a.a.a.a.a.a.a.a.O n X.7.7.&.7.7.5.0.#.$.n a.a.a.a.a.a.a.a.a.a.",
"a.a.a.a.a.a.a.7 F  .$.@.7.<.&.7.O.#.$.{  .g a.a.a.a.a.a.a.a.a.",
"a.a.a.a.a.a.7 g g I | 6.2.>.%.%.@.o.o.N s F 8 a.a.a.a.a.a.a.a.",
"a.a.a.a.a.a.. O n T 5.1.0.&.&.o. . .I F 7 o a.a.a.a.a.a.a.a.a.",
"a.a.a.a.a.a.a.g o.@.7.7.%.%.%.o. .Y  .M r + a.a.a.a.a.a.a.a.a.",
"a.a.a.a.a.y S |  .o.o.$.o.o.o.%.o. . . .i : a.a.a.a.a.a.a.a.a.",
"a.a.a.a.a.o 7 K  .@. .o.$.o.| 6.&.&.$.o.N S a a.a.a.a.a.a.a.a.",
"a.a.a.a.a.< a | 6.&.%.&.7.$.T 7.1.1.7.} v 8 g > a.a.a.a.a.a.a.",
"a.a.a.7 g K | I | $.9.7.@. . .@.7.>.>.{ x g : a.a.a.a.a.a.a.a.",
"a.a.a.a.2 0 0 u I 0.#.$.{ I %.$.$. .7.$.f : a.a.a.a.a.a.a.a.a.",
"a.a.a.< < < f P +...P | G T #. .o.T | o.D 1 a.a.a.a.a.a.a.a.a.",
"a.a.. 1 i C C A C C T | Y Y $.T P T R Y K u < a.a.a.a.a.a.a.a.",
"a.a.7 S F V t C A K T T R T  .| U U J S d A A d > a.a.a.a.a.a.",
"a.a.a., < : t B A H H K K R Y Y R J J U a 8 a y , a.a.a.a.a.a.",
"a.a.a.> y A C C B 4 A K A R S J R S S | | a O   a.a.a.a.a.a.a.",
"a.a.a.a.y Z g i O < C C C S B B K R d F T Y g o a.a.a.a.a.a.a.",
"a.a.a.a.a.a.. X , A t < B 2 i t t Z Z i 7 : a.a.a.a.a.a.a.a.a.",
"a.a.a.a.a.a.a.: d g : a i & 2 H i , 2 d 8 a.a.a.a.a.a.a.a.a.a.",
"a.a.a.a.a.a.a.a.a.a.a.< 3 Q E q 8 > a.a.a.a.a.a.a.a.a.a.a.a.a.",
"a.a.a.a.a.a.a.a.a.a.@ E W ~ ^ ; # a.a.a.a.a.a.a.a.a.a.a.a.a.a.",
"a.a.a.a.a.a.a.a.a.a.= ! E W Q E & a.a.a.a.a.a.a.a.a.a.a.a.a.a.",
"a.a.a.a.a.a.a.a.a.a.a.= * a.a.a.a.a.a.a.a.a.a.a.a.a.a.a.a.a.a.",
"a.a.a.a.a.a.a.a.a.a.a.a.a.a.a.a.a.a.a.a.a.a.a.a.a.a.a.a.a.a.a."
};
