/* XPM */
static char *_59cad4b166e4ea3bc36dee31aba8cc3dSCWYWevBPvyJpQ7[] = {
/* columns rows colors chars-per-pixel */
"40 38 183 2 ",
"   c None",
".  c #15162E",
"X  c #151B2E",
"o  c #1A1D2F",
"O  c #1E1F30",
"+  c #231E2F",
"@  c #221D32",
"#  c #16252F",
"$  c #1B222F",
"%  c #1C2331",
"&  c #1C3734",
"*  c #20202F",
"=  c #262334",
"-  c #2C2435",
";  c #312231",
":  c #332E38",
">  c #3A2C3C",
",  c #382938",
"<  c #28363C",
"1  c #363139",
"2  c #3C343A",
"3  c #3E3738",
"4  c #532C38",
"5  c #42383E",
"6  c #40373B",
"7  c #5B393A",
"8  c #4A2936",
"9  c #75383F",
"0  c #76373F",
"q  c #1D4A34",
"w  c #1F5436",
"e  c #224737",
"r  c #215D39",
"t  c #215837",
"y  c #395237",
"u  c #23653A",
"i  c #236F3C",
"p  c #27763E",
"a  c #4D433E",
"s  c #76513F",
"d  c #62443A",
"f  c #496E3E",
"g  c #4E723F",
"h  c #40723E",
"j  c #422B43",
"k  c #4A2E47",
"l  c #4E2E4A",
"z  c #433644",
"x  c #53324C",
"c  c #5B3652",
"v  c #5F3955",
"b  c #693540",
"n  c #623956",
"m  c #693D5B",
"M  c #663C5A",
"N  c #763F56",
"B  c #763D4D",
"V  c #2C4B4B",
"C  c #2D4648",
"Z  c #335754",
"A  c #2B5949",
"S  c #39635D",
"D  c #3C6861",
"F  c #554943",
"G  c #5C4C4C",
"H  c #5B4545",
"J  c #5E514F",
"K  c #5F5050",
"L  c #5C4257",
"P  c #684B42",
"I  c #754645",
"U  c #65544C",
"Y  c #79504A",
"T  c #7E4256",
"R  c #74405A",
"E  c #7A425A",
"W  c #635250",
"Q  c #6B5854",
"!  c #685756",
"~  c #7E5C58",
"^  c #49625C",
"/  c #62625D",
"(  c #7C655C",
")  c #7B6954",
"_  c #416E66",
"`  c #456460",
"'  c #417267",
"]  c #407B65",
"[  c #417168",
"{  c #833E44",
"}  c #97474B",
"|  c #8D4759",
" . c #844459",
".. c #944A58",
"X. c #9A4C58",
"o. c #9D4D57",
"O. c #895755",
"+. c #944E4E",
"@. c #A04B4E",
"#. c #A04E56",
"$. c #A94F50",
"%. c #A75057",
"&. c #AD5254",
"*. c #B55455",
"=. c #B95D59",
"-. c #856558",
";. c #996659",
":. c #906055",
">. c #88775D",
",. c #937E5F",
"<. c #9D6C4A",
"1. c #BA635C",
"2. c #975D61",
"3. c #866E63",
"4. c #897065",
"5. c #9C7969",
"6. c #BD6C61",
"7. c #A27766",
"8. c #AA7B65",
"9. c #BF7164",
"0. c #C27C6A",
"q. c #C17767",
"w. c #2D8C45",
"e. c #2E9347",
"r. c #329E4A",
"t. c #32974B",
"y. c #3C9450",
"u. c #35A74D",
"i. c #3BA258",
"p. c #37B251",
"a. c #38B251",
"s. c #3F8563",
"d. c #5F8946",
"f. c #50974A",
"g. c #65984B",
"h. c #52AE51",
"j. c #48B653",
"k. c #55B955",
"l. c #6BA34F",
"z. c #70A14F",
"x. c #6DA750",
"c. c #6BB755",
"v. c #76C65B",
"b. c #6DC359",
"n. c #FFEC3F",
"m. c #BD8155",
"M. c #82BC58",
"N. c #968165",
"B. c #A58D6A",
"V. c #AB906F",
"C. c #AF9370",
"Z. c #B49A74",
"A. c #CE8E5B",
"S. c #CE9159",
"D. c #D9945F",
"F. c #DA995E",
"G. c #E2AE59",
"H. c #E7B957",
"J. c #C78667",
"K. c #CBAD79",
"L. c #87CA5D",
"P. c #95D562",
"I. c #EFCB4F",
"U. c #EECC51",
"Y. c #F1CF50",
"T. c #F4D64E",
"R. c #FFED44",
"E. c #F9E14C",
"W. c #FFED5D",
"Q. c #F0D97D",
"!. c #FFF07C",
"~. c #C8B082",
"^. c #D4B685",
"/. c #DBC593",
"(. c #F8E68A",
"). c #FFF180",
"_. c #ECDDA7",
"`. c #FFF3A6",
"'. c #FFF4AA",
"]. c #FFF6BE",
"[. c #F3E6B2",
"{. c #FFF7C6",
"}. c #FFFADA",
/* pixels */
"                                                                                ",
"                                                                                ",
"                                                                                ",
"                                                                                ",
"                                                                                ",
"            D.D.  7.J.J.                                                        ",
"        D.D.D.    5.8.8.7.                                                      ",
"        D.U.Y.D.                                                                ",
"        F.R.G.D.                                                                ",
"        A.H.T.F.D.D.                = Y -                                       ",
"        m.G.!.E.G.D.D.              ; 0.} +                                     ",
"        s D.(.`.W.R.U.D.          X :.9.6.o.= X           .                     ",
"          m.H.n.{.'.R.G.*   X     H J.1.J.| x X X X     g g.X                   ",
"          d A.H.).}.`.U.s   z.x.& P 9.=.2.c b &.T j X X M.h                     ",
"            7 S.E.].}.I.<.  g.P.h.i @.%...} *...M c X X c.u                     ",
"              P Q.(.[.K.,   $ M.v.i.^ @.*.#.m n 4 { #.c e t                     ",
"              F Z._._.^.$     y L.p.] J &.#.#.&.*.X.E m c X                     ",
"              3 ~./.N./.%   X X l.p.] / *.*.*.| R M m m n X                     ",
"              3 B.U >.,.o   7 O.f i.[ < $.X.m v x @ q t w q .                   ",
"                X 1 z %     ;.0.:.>.~ } *.| > % A w.u.a.b.L.f.X                 ",
"                X ! 3.:     ;.0.0.q.1.*.*.z < S s.a.a.a.j.L.P.l.#               ",
"                  ! 5.2     O.q.=.*.*.*.} & V D ' i.w.r u e.k.k.r.#             ",
"                  G 4.1     O I &.*.*.*.} X Z [ [ Z V V X   & q e.i             ",
"                  - 2 e w   - T B ..o.%. .k V [ [ [ [ [ %       X X             ",
"                # L.d.u r.  8 *.*.*.*.*.*. .k C _ [ [ V X                       ",
"                i v.P.g p   ; 7 4 *.*.*.#.E m n z _ ` x -                       ",
"                i a.j.y.X X ; } &.*.*.*.R m m m m L v m x X                     ",
"                X r.u.u X   a F I 0 9 b l v n n v k j c j w p X                 ",
"                  . . :     ) >.N.Z.V.C.B.K G F 2 -.( Q G e.a.u                 ",
"                  X W W     j x , > > > > > G F 2 G G X o t.a.u                 ",
"                    1 5   4 %.%.X.| E m m m c , W U 6 Q o e r X                 ",
"                          + ; 9 { { B n n x k F ( 5 = W ( X                     ",
"                              X X X X X X X X 2 1 X X X F                       ",
"                              X X                     X X                       ",
"                            X X X                     X X                       ",
"                                                                                ",
"                                                                                ",
"                                                                                "
};
