/* XPM */
static char *xpm_[] = {
/* columns rows colors chars-per-pixel */
"40 39 164 2 ",
"   c #02032D",
".  c #0A032C",
"X  c #050B2D",
"o  c #0C0F2D",
"O  c #04102D",
"+  c #0D122D",
"@  c #11142E",
"#  c #161C2E",
"$  c #181E2E",
"%  c #1C232E",
"&  c #1C2730",
"*  c #1D2830",
"=  c #20242F",
"-  c #222B2F",
";  c #252B30",
":  c #2A2D30",
">  c #273131",
",  c #2C3230",
"<  c #2D3A33",
"1  c #323331",
"2  c #333E31",
"3  c #3D3E33",
"4  c #354132",
"5  c #3A4232",
"6  c #3D4A33",
"7  c #314538",
"8  c #344A3A",
"9  c #3C543D",
"0  c #464635",
"q  c #404C34",
"w  c #4C4C36",
"e  c #465535",
"r  c #495935",
"t  c #545338",
"y  c #5B5A3A",
"u  c #516237",
"i  c #556638",
"p  c #5A6C3A",
"a  c #5E723B",
"s  c #66643C",
"d  c #626B3C",
"f  c #6D6B3F",
"g  c #706E3F",
"h  c #63763C",
"j  c #677C3D",
"k  c #425D41",
"l  c #466344",
"z  c #496544",
"x  c #4F7049",
"c  c #53754B",
"v  c #57794D",
"b  c #797542",
"n  c #7E7C44",
"m  c #6D833F",
"M  c #5C8251",
"N  c #6D8542",
"B  c #708640",
"V  c #758C41",
"C  c #7E9744",
"Z  c #75934E",
"A  c #638A55",
"S  c #689057",
"D  c #6B945A",
"F  c #759256",
"G  c #729D5D",
"H  c #759B6E",
"J  c #648F75",
"K  c #659076",
"L  c #6B9374",
"P  c #729672",
"I  c #719870",
"U  c #789873",
"Y  c #76A662",
"T  c #79A763",
"R  c #77A863",
"E  c #7AA863",
"W  c #7FA268",
"Q  c #848146",
"!  c #888547",
"~  c #83834A",
"^  c #8A8748",
"/  c #8F8C49",
"(  c #918D49",
")  c #859446",
"_  c #829C46",
"`  c #96924C",
"'  c #9A964D",
"]  c #9E9A4F",
"[  c #A29E50",
"{  c #87A147",
"}  c #89A347",
"|  c #8BA548",
" . c #8EA94A",
".. c #92AE4B",
"X. c #95B24C",
"o. c #99B64D",
"O. c #9BB94E",
"+. c #8EAE50",
"@. c #85AE5D",
"#. c #8CAE5C",
"$. c #92AF5F",
"%. c #8EB357",
"&. c #8BB159",
"*. c #93B554",
"=. c #98B751",
"-. c #97B853",
";. c #9AB850",
":. c #92B258",
">. c #9FB15F",
",. c #A4A051",
"<. c #A9A353",
"1. c #A5AA51",
"2. c #ADA954",
"3. c #B3AE57",
"4. c #A3B651",
"5. c #A3B951",
"6. c #ABB953",
"7. c #A4B25F",
"8. c #AEB65C",
"9. c #B4B157",
"0. c #B2BA56",
"q. c #B4B65E",
"w. c #BAB559",
"e. c #B9B65C",
"r. c #B6BA58",
"t. c #B7B95A",
"y. c #BBBA59",
"u. c #BDB85A",
"i. c #BCB95A",
"p. c #BEBA5B",
"a. c #BFBA5B",
"s. c #BCBA5A",
"d. c #BDB95C",
"f. c #BEBA5B",
"g. c #899F6E",
"h. c #809B70",
"j. c #83A565",
"k. c #80AB60",
"l. c #83AB60",
"z. c #80AA61",
"x. c #88AB62",
"c. c #8CAC61",
"v. c #8DA16E",
"b. c #94A867",
"n. c #93AE61",
"m. c #98AF60",
"M. c #93A36C",
"N. c #99A66A",
"B. c #9EA968",
"V. c #9EB160",
"C. c #A3AB67",
"Z. c #AAAE64",
"A. c #A0A968",
"S. c #A0B160",
"D. c #AEB162",
"F. c #B5B460",
"G. c #B0B261",
"H. c #C0BA5B",
"J. c #C1BB5B",
"K. c #C1BC5C",
"L. c #C2BD5C",
"P. c #C0BB5B",
"I. c None",
"U. c black",
/* pixels */
"I.I.I.I.# X O @ I.I.I.I.I.I.U.U.# @ z z + # I.I.I.I.I.I.I.I.I.# X X U.U.U.U.U.U.",
"I.I.I.# : 9.9.! # # # # # I.# # # v T T A & # 1 1 # # I.I.# # 5 w.[ $ # U.U.U.U.",
"I.I.I.# ,.a.s.L.; X V V   # X V 1 9 T T E 8 s a.L.( /   I.# t u.H.H...# U.U.U.U.",
"I.I.I.# ` L.s.s.3.C O.O.O.> _ O.O.M T T F y a.a.a.a.a.` & w Q a.H.H.H.+ U.U.U.U.",
"I.I.# # + ^ a.5.5.X.O.O.;.> _ O.O.q.q.q.w.y.L.a.a.a.u.u.: [ H.H.u.f.s.+ I.I.I.I.",
"I.# y n 0    .;.O.O.O.O.O.X.h O.r.6.O.u.J.u.s.s.t.0.w.b 1 1.y.H.2.`   X # I.I.I.",
"I., u.a.w.] X.O.O.O.O.O.O.O.O.O.O.O.O.O.O.5.u.y.O.O.O.^ X.O.o.5./ r X.w.y # I.I.",
"I.1 L.H.H.y.6.O.O.O.O.O.O.O.O.O.O.O.O.O.O.O.5.6.O.O.O.0.;.O.O.O.O.O.O.L.y.  I.I.",
"I.: 9.;.O.} *.@.E E Y :.;.*.*.O.O.O.O.6.5.O.O.O.O.O.O.O.O.O.O.O...| O.O.| o I.I.",
"I.# 4 r r k Y E E E E E E E E &.O.6.t.a.u.5.O.O.O.O.O.&.E -.O.O.X.{ r r * # I.I.",
"I.I.X m m @.E #.&.&.R E R R E c.7.q.a.a.H.H.H.S.Y k.&.@.&.Y :.O.O.O.F # # I.I.I.",
"I.# N O.O.O.O.O.O.O.:.R &.O.&.E k.E #.u.8.l.l.@.;.E k.O.O.&.E O.O.*.R < I.I.I.I.",
"I.# V O.O.O.o.O.O.O.;.:.O.O.O.O.O.O.O.O.O.O.O.;.@.O.O.O.@.@.&.O.O.E E A # @ # I.",
"I.I.. _ X.#.#.#.O.%.#.;.O.6.b.h.K K &.:.J J @.T T @.E E R E E %.@.E G v p 5.p # ",
"I.# ; 1 5 J L L L L L I 6.f.J.u.G.L L L g.F.L T E E E E T E E E E G < p O.O...O ",
"I.; 2.L.[ ( w.q.B.e.e.A.f.f.J.J.J.G.K M.J.J.q.C.J.$.E O.%.-.O.%.E E %.&.o.O...+ ",
"I.: L.u.a.a.t.t.f.f.H.u.u.u.n.E 8.a.F.Z.0.O.f.f.f.J.u.5.O.O.O.O.E E Y c.c.G > I.",
"I., L.6.H.c.E E c.q.q.c.c.c.R E E n.$.6.O.O.5.5.5.6.J.0.O.O.O.@.$.q.q.s s O # I.",
"I.# p O.O.O.O.:.&.@.R E E E E E E E R R E :.-.O.-.:.%.%.O.O.O.O.O.O.O. ., # I.I.",
"I.I.# 2 _ O.O.O.O.O.-.*.&.E E E R T E E E E E E E E k.E O.O.O.O.O.O.O.O.q 4 % # ",
"I.# b ` ) O.;.@.@.@.E E Y E ;.O.%.E Y E R &.%.%.:.8.a.t.O.O.O.O.O.O.O.u C O.V @ ",
"I., u.a.u.5.O.O.O.O.O.O.O.O.O.O.O.@.@.*.O.5.0.y.5.a.a.u.t.O.O.O.O.O.O.O.O.O._ + ",
"I.> ;.6.;.5.O.O.O.O.O.O.O.O.O.O.O.O.O.O.5.a.a.f.s.q.c.7.f.t.t.5.5.O.O.O.X.e # I.",
"I.# i V V O.O.O.O.O.O.O.O.O.O.O.O.O.O.%.T Y E &.R R R R 7.7.7.7.7.S.l.l   # I.I.",
"I.I.I.# _ O.O.O.O.O.O.O.O.O.O.O.O.&.l.l.E -.O.O.@.E E E E E E E R E E S 6 # I.I.",
"I.I.I.# _ O.O.O.O.O.O.O.O.O.O.O.O.O.O.O.O.O.O.O.O.O.:.E E :.*.E E E R -.O.a # I.",
"I.I.+ j O.O.O.O.O.O.&.L J J j.O.#.K K K *.O.O.6.J.y.O.R O.O.O.O.%.O.O.O.O.V # I.",
"I.# m O.O.=.O.o.=.W L D.q.P L P L N.F.e.L *.6.f.J.f.y.V.@.O.O.O.O.X.6 o.X., # I.",
"I.> ;.O.O.J W H J K g.a.s.f.Z.v.N.J.u.J.f.C.r.f.a.a.u.J.O.O.O.O.6.r.[ b   # I.I.",
"I., ;.O.a U K P d.N.U F.L.a.a.a.u.J.f.J.f.u.J.J.a.a.H.J.f.6.O.O.y.t.y.y.d # I.I.",
"I.% C X.< Q D.F.J.u.e.a.a.a.a.a.J.u.f.5.6.y.L.u.V.7.u.J.f.f.0.;.O.O.O.o.o.  I.I.",
"I.# @ o # 0 n L.0.0.t.J.q.E R c.0.y.O.O.O.O.8.S.R R t.J.J.J.0.0.O.O.O.6._ + I.I.",
"I.I.I.# , 5.u.6.O.&.E z.E E E E -.O.O.O.*.E E E E Y o.O.4.O.O.O.o.O.h 5 = I.I.I.",
"I.I.# < +.5.6.0.N E Y Y v E E E #.Z O.%.M T R %.E x h O.O.O. .X.6.r.<.X I.I.I.I.",
"I.I.# 8 E :.*.&.8 Y E D . D E Y 7 A E E 9 T &.O.O._ - X.O.O.V ..O.O.O._ # I.I.I.",
"I.I.I.* D E E E * 8 9 & # & D S < -.*.@.@ 9 &.O.O._ # 5 r r X ..O.O.O._ # I.I.I.",
"I.I.I.# + M M k # $ # # I.# .   ..;.O.O.@ # k V V X # # # # # B O.O._ X # I.I.I.",
"I.I.I.I.# # # # I.I.I.I.I.I.I.I.2 X...p # I.# # # # I.I.U.U.U.# < , % # I.I.I.I.",
"I.I.I.I.I.I.I.I.I.I.I.I.I.I.I.I.# o + # # I.I.I.I.I.I.I.U.U.U.U.I.I.I.I.I.I.I.I."
};
