/* XPM */
static char *_93b6f0d22274668980aaa501e6dae5ajDpzRGpCEJc1503o[] = {
/* columns rows colors chars-per-pixel */
"40 39 215 2 ",
"   c #363E39",
".  c #43363A",
"X  c #3F4D3D",
"o  c #51663F",
"O  c #667A3E",
"+  c #1E3E46",
"@  c #263847",
"#  c #223B4C",
"$  c #1E4247",
"%  c #1E494C",
"&  c #1F4E52",
"*  c #244245",
"=  c #20464E",
"-  c #274B4C",
";  c #364948",
":  c #2D5E49",
">  c #355546",
",  c #234552",
"<  c #284852",
"1  c #274458",
"2  c #274B5B",
"3  c #294C5E",
"4  c #334D54",
"5  c #235355",
"6  c #2A5552",
"7  c #215A53",
"8  c #27535E",
"9  c #2A525D",
"0  c #235A5B",
"q  c #2B5C5C",
"w  c #375B56",
"e  c #296249",
"r  c #3E624E",
"t  c #2B6755",
"y  c #24645C",
"u  c #2A655E",
"i  c #33635B",
"p  c #396858",
"a  c #2B775B",
"s  c #2A4D60",
"d  c #275761",
"f  c #295462",
"g  c #265D64",
"h  c #295C64",
"j  c #256364",
"k  c #296264",
"l  c #266C63",
"z  c #2B6C63",
"x  c #286468",
"c  c #276B6B",
"v  c #286D6D",
"b  c #306E65",
"n  c #396C66",
"m  c #277265",
"M  c #2C7164",
"N  c #277860",
"B  c #2B7B65",
"V  c #27716E",
"C  c #29746B",
"Z  c #297C6C",
"A  c #3D7063",
"S  c #347967",
"D  c #42454A",
"F  c #524F4C",
"G  c #435745",
"H  c #664D43",
"J  c #665945",
"K  c #715647",
"L  c #725649",
"P  c #74594A",
"I  c #7D5C4A",
"U  c #486747",
"Y  c #4C6C4D",
"T  c #586748",
"R  c #477646",
"E  c #4D714D",
"W  c #577849",
"Q  c #4D6A54",
"!  c #406B5A",
"~  c #5A6D52",
"^  c #526F58",
"/  c #567755",
"(  c #666A48",
")  c #636D4C",
"_  c #756D4E",
"`  c #6E7947",
"'  c #627D4B",
"]  c #797949",
"[  c #756C50",
"{  c #657954",
"}  c #737E52",
"|  c #476B60",
" . c #33865B",
".. c #3B8D5C",
"X. c #2B8564",
"o. c #2E8B65",
"O. c #2B846C",
"+. c #2D8B6B",
"@. c #368461",
"#. c #3B8B62",
"$. c #34866C",
"%. c #318F6B",
"&. c #2E9367",
"*. c #2F946A",
"=. c #379065",
"-. c #3D9363",
";. c #3C9D66",
":. c #32956A",
">. c #3A9368",
",. c #359A68",
"<. c #389B68",
"1. c #4E804E",
"2. c #598E49",
"3. c #458C59",
"4. c #5C8354",
"5. c #5B865A",
"6. c #45995E",
"7. c #509458",
"8. c #688448",
"9. c #768E45",
"0. c #788948",
"q. c #799649",
"w. c #7D9449",
"e. c #7D9B4C",
"r. c #658B56",
"t. c #658D56",
"y. c #6B8C51",
"u. c #708351",
"i. c #6C9254",
"p. c #6A9459",
"a. c #6B975B",
"s. c #759856",
"d. c #4CA45C",
"f. c #4FAC5F",
"g. c #53A756",
"h. c #52AE5E",
"j. c #55B25C",
"k. c #5AB55A",
"l. c #77A35D",
"z. c #61B75B",
"x. c #66B95A",
"c. c #76BD5B",
"v. c #7DBE5C",
"b. c #5E8765",
"n. c #439D65",
"m. c #678564",
"M. c #628F76",
"N. c #689374",
"B. c #759772",
"V. c #44A364",
"C. c #4BA561",
"Z. c #4BA961",
"A. c #76A462",
"S. c #78A662",
"D. c #77A863",
"F. c #7AA962",
"G. c #7BA06A",
"H. c #83864C",
"J. c #849C47",
"K. c #849D4A",
"L. c #8E994B",
"P. c #999B4F",
"I. c #888B52",
"U. c #8E9C57",
"Y. c #929753",
"T. c #989A53",
"R. c #87A147",
"E. c #85A24B",
"W. c #8BA64A",
"Q. c #8EAB4C",
"!. c #90AD4A",
"~. c #9CAB4F",
"^. c #94B14C",
"/. c #99B64E",
"(. c #9BB94E",
"). c #89A857",
"_. c #84AD5D",
"`. c #89AE5C",
"'. c #9BA453",
"]. c #8EB356",
"[. c #8BB05A",
"{. c #93B454",
"}. c #99B651",
"|. c #99B850",
" X c #92B258",
".X c #90B958",
"XX c #A6A355",
"oX c #A8AD57",
"OX c #B1AE58",
"+X c #A3B953",
"@X c #ADBA54",
"#X c #A5B25F",
"$X c #ABB55C",
"%X c #B5B357",
"&X c #B2BA56",
"*X c #B5B45A",
"=X c #BAB75C",
"-X c #B6BA58",
";X c #BDBA5A",
":X c #849C6F",
">X c #849C70",
",X c #83A760",
"<X c #80AB61",
"1X c #8DAC61",
"2X c #94AE61",
"3X c #9CB060",
"4X c #ABAF63",
"5X c #C1BA5B",
"6X c #88C15E",
"7X c #90C55D",
"8X c #AFC95E",
"9X c #B0CA5E",
"0X c #A2CC60",
"qX c #AED060",
"wX c #B8D563",
/* pixels */
";X;X;X;X;X;X;X;X;X;XOXH.;X;X;X;X;X;X;X;X-X(.(.(.(.(.(.(.!.8.(.(.(.(.@X;X(.(.(.(.",
"&X&X&X(.(.+X&X&X&X&XL.+XoX(.(.{.].].].].(.(.(.(.(.(.(.(.J.+X!.(.(.(.(.(.(.(.(.(.",
"(.(.(.(.(.(.(.(.(.^.+X9XE.{._.F.D.D.F.F.[.}._._.[.(.(.^.+X9X'.&X(.(.(.(.(.(.(.(.",
"(.(.(.(.(.(.(.(.(.W.8XwXs.l.F.F.F.F.F.F.F.F.F.F.F.[.(.W.8XwXK.=X-X(.(.(.(.(.(.(.",
"}.(.(.(.(.(.(.(./.E.qXwX].t.F.<XF.<XF.F.F.F.F.F.F.2X*X).qXwX].P.;X;X;X*XF.F.[.}.",
"F.{.(.(.].{.(.(.e..X0X7X7X1.{.(.(.(. XF.F.F.`.`.F.F.p..X0X7X7X8.#X#X#X<X`._.D.D.",
"F.F._._.F.F.{./.2.c.c.6Xk.d.q.(.(.(.(.F.F.}.(.(.{.].2.c.c.6Xk.d.i.].].{.(.}. X{.",
"F.F.F.F.F.F.F.i.g.j.z.v.d.d.7.Q.(.(.(.}.}.(.(.(.}.e.g.j.z.v.d.d.7.Q.(.|.F.[.(.(.",
"(.{._._._.).E.7.f.d.k.x.j. . .3.K.}. X X(.(.+X}.m.3.f.d.k.x.j. . .#.i.F.F.F.[.F.",
"(.(.(.(.(.8.....e d.n.Z.C.d.7 p s.G.M.N.`.+X;XH.3...e d.n.Z.C.d.7 Q b.D.D.F.F.F.",
"(.(.(.(.(.^.w.> @.>.;.V.:.;.B m.N.:X4XB.B.;X;X%XP.G @.>.;.V.:.<.B T.>XN.$X3XD.F.",
"F.F.F.}.(.(.w.l ,.*.:.;.*.*.+.^ OX=X;X=X=X;X;X;XT.z ,.*.:.;.*.*.+.^ OX=X;X;X3XF.",
"1X1X1X1X1XU.! >.Z.*.;.,.,.+.;.X.) XX*X;X;X;X;X'.p >.Z.*.;.,.,.+.;.X.) XX*X;X;X;X",
"5X5X;XXX} A >.h.6.<.Z.h.j.n.C.;.a p H.$X#XU.{ b >.h.6.<.Z.h.j.n.C.;.a p u.@X;X5X",
"+X+X+X` w t g.3.o.Z.k.k.h.j.V.Z.;.! ).F.F.E w t g.3.o.Z.k.k.h.j.V.Z.;.E ^.(.+X+X",
"(.(.(.(.W.W t B ;.j.V.f.n.C.f.;.:.B y.F.F.F.p.R t B ;.j.V.f.n.C.f.;.:.B q.F.F.F.",
"(.(.(.(.~.Q O.;.C.>.C.<.Z.:.;.:.X.+.S s.{.[.p.i O.;.C.>.Z.<.Z.:.;.:.X.+.S 5.,X1X",
"(.@X@XL.^ O.+.*.>.j.k.<.;.;.*.+.X.7 y i t.t.p O.+.*.>.j.k.<.;.;.*.+.X.7 y ! T.5X",
"(.+X} n c l O.$.h.k.C.V.:.*.+.X.y y W E.W b c l O.$.h.k.C.V.:.*.+.X.y y 8.~.;X;X",
"(.(.9.U $ m $.C.h.V.,.;.*.+.Z +.o.0 : e.9.U $ m $.C.h.V.,.;.*.+.Z +.o.0 : P.;X=X",
"}.(.^.' m *.;.V.V.*.:.*.,.:.*.O.*.M 4 e.^.' m *.;.V.V.*.:.*.,.:.*.O.*.M 4 Y.2XS.",
"S.U i m +.+.*.*.+.*.*.+.n.,.V.,.:.X.l $ q m +.+.*.*.+.*.*.+.n.,.V.,.*.X.C k 5.A.",
"S.p.Y - c %.V.*.<.<.,.Z n.h.j.f.&.X.0 6 > - c %.V.*.<.<.,.Z n.j.j.f.&.X.0 q p t.",
"A.4.w q %.V.,.,.Z.C.,.+.:.h.Z.j.n.a N 6 4 q %.V.,.,.Z.C.,.+.:.j.Z.j.n.a N u 9._.",
"r j m O.B m :.Z.;.;.+.*.*.;.:.V.V.z = j m O.B m :.Z.;.;.+.*.*.;.:.V.V.M < 0./.(.",
"e.; % = 2 B C.;.+.X.C ;.:.*.O.O.:.+., * % = 2 B C.;.+.X.C ;.:.*.O.O.:.+.3 ] &X(.",
"G # # 8 z -.#.M +.Z V :.=.z +.C C 7 # # # 8 z -.#.M +.Z V :.=.z +.C C Z x 1 I.oX",
"; 2 g h k h 3 C +.O.V +.*.C C C c 5 # 2 g h k f 3 C +.O.V +.*.C C C c j g h d | ",
"c v c 2 3 h c C Z v v Z Z O.v v 0 0 c v c 2 3 h c C Z v v Z Z O.V v v v 5 0 n r ",
"{ ~ ; , f h x x c x v V v V V g V u y 5 # , f h x x c x v V v V V g V O.O.t T ] ",
"E.' 5 g h s 3 8 c x x c f x V c 0 Z N 7 5 g h s 3 8 c x x c f x V v 0 Z +.Z b I.",
"K.^ j j g i # 2 g 2 g 8 3 2 g v j 0 & 0 j j g u + 2 g 2 g 8 3 2 g v j 0 0 6 4.*X",
";X%XXXI.] ] q f 1 # 3 @ 9 d # , 8 c j ` U.u.E E 0 f 1 # 3 @ 9 d # , 8 c j / A.$X",
"@X@X;X;XY.w j q * j 9 . D j j k o Y 4.l.D.F.4.q j q * j 9 . D j j j G Y 4.l.F._.",
"(.(.(.;X;X'.w.O   F P I H X T w.}.F.F.F.F.F.S.p.4.E   F P I H ; r 4.S.{.{.F.F.F.",
"(.(.(.(.(./.R.` H I L L K J 9.l.F.F.F.F.F.F.F.A.p.~ H I L L K J r.A. X(.(.(.[.F.",
"(.(.(.(.(.Q.R.w.] J ( _ ( / r.p.F.F.}.(.|._.F.l.s.y._ J T [ ) 8.y.p. X(.(.(.(.(.",
"[.(.(.(.(.(./.R.K.J.J.J.E.e.).F.F._.(.(.(.]._././.E.e.i.t.t.s.E.^._._.}.(.(.(.(.",
"F.(.(.(.(.(.(.(././.@X%X(.(.(.}.}.}.(.(.(.|.(.(.(.(./.{.{.^./.(.(.(.}.(.(.(.(.(."
};
