/* XPM */
static char *result[] = {
/* columns rows colors chars-per-pixel */
"40 38 187 2 ",
"   c #14162E",
".  c #151B2E",
"X  c #1A1D2F",
"o  c #201E31",
"O  c #16232F",
"+  c #1C202F",
"@  c #1B2231",
"#  c #1C3934",
"$  c #20202F",
"%  c #2B2434",
"&  c #232333",
"*  c #312331",
"=  c #33243A",
"-  c #332E3B",
";  c #3A2B3C",
":  c #3D2835",
">  c #253431",
",  c #363139",
"<  c #3B333A",
"1  c #3C3A37",
"2  c #42293C",
"3  c #443B3C",
"4  c #493538",
"5  c #5E3039",
"6  c #542C37",
"7  c #6C353D",
"8  c #74373F",
"9  c #76383F",
"0  c #1C4433",
"q  c #1D4C35",
"w  c #1F5336",
"e  c #374F36",
"r  c #225C38",
"t  c #28593A",
"y  c #2A5437",
"u  c #256D3C",
"i  c #23633A",
"p  c #306F3D",
"a  c #27763E",
"s  c #32773F",
"d  c #40493A",
"f  c #4E733F",
"g  c #283D41",
"h  c #452B44",
"j  c #4A2E46",
"k  c #472B45",
"l  c #512E40",
"z  c #4C3149",
"x  c #473C41",
"c  c #53334D",
"v  c #5C3248",
"b  c #5B3652",
"n  c #5F3854",
"m  c #683742",
"M  c #763B49",
"N  c #633A57",
"B  c #693D5B",
"V  c #673B58",
"C  c #733E56",
"Z  c #2B4A4A",
"A  c #2F504F",
"S  c #355352",
"D  c #297D40",
"F  c #3A645E",
"G  c #39695D",
"H  c #3E6B64",
"J  c #3E6660",
"K  c #4D4243",
"L  c #424949",
"P  c #524545",
"I  c #554843",
"U  c #594B4B",
"Y  c #594C42",
"T  c #5D4F57",
"R  c #405556",
"E  c #455244",
"W  c #6A4C4A",
"Q  c #724145",
"!  c #63524E",
"~  c #675949",
"^  c #7C5541",
"/  c #79415A",
"(  c #7A4258",
")  c #645351",
"_  c #685653",
"`  c #6A5957",
"'  c #705D59",
"]  c #517440",
"[  c #70604D",
"{  c #78635B",
"}  c #406F67",
"|  c #407466",
" . c #407D65",
".. c #417168",
"X. c #656962",
"o. c #813E44",
"O. c #99484B",
"+. c #82445A",
"@. c #8A4659",
"#. c #8A4553",
"$. c #9B4C58",
"%. c #9B4C58",
"&. c #8E5F54",
"*. c #8D4347",
"=. c #A24E56",
"-. c #A04D58",
";. c #AB5155",
":. c #A3575B",
">. c #B45455",
",. c #B75857",
"<. c #B65D59",
"1. c #966648",
"2. c #826C5C",
"3. c #986659",
"4. c #937E5F",
"5. c #8D6E53",
"6. c #AA744F",
"7. c #BA615B",
"8. c #B77D53",
"9. c #8A7164",
"0. c #9E7466",
"q. c #987C6C",
"w. c #866E63",
"e. c #AF6E60",
"r. c #B46D63",
"t. c #BC6C61",
"y. c #BE7365",
"u. c #B57665",
"i. c #C07666",
"p. c #C37D6A",
"a. c #2C8743",
"s. c #2F9247",
"d. c #319B49",
"f. c #359C50",
"g. c #3B8C45",
"h. c #34A34C",
"j. c #36AB4F",
"k. c #38AD53",
"l. c #39B151",
"z. c #37B251",
"x. c #3E8462",
"c. c #5F8C47",
"v. c #69974B",
"b. c #54AB50",
"n. c #59BB55",
"m. c #54AD51",
"M. c #61A54F",
"N. c #63BE57",
"B. c #7CB455",
"V. c #68A850",
"C. c #409060",
"Z. c #77C65B",
"A. c #918062",
"S. c #A68C6B",
"D. c #B59B73",
"F. c #C88859",
"G. c #D9945F",
"H. c #D9985E",
"J. c #DEA35C",
"K. c #E0A75B",
"L. c #E2AF57",
"P. c #E6B658",
"I. c #C4826D",
"U. c #C9A274",
"Y. c #85C65C",
"T. c #8FD160",
"R. c #95D562",
"E. c #F5D94D",
"W. c #EECA52",
"Q. c #ECC653",
"!. c #F0CE50",
"~. c #FEEB46",
"^. c #FCE647",
"/. c #FFF06D",
"(. c #C8B082",
"). c #D4B685",
"_. c #DBC593",
"`. c #E7C780",
"'. c #FDED80",
"]. c #FFF28F",
"[. c #F0E09E",
"{. c #ECDDA7",
"}. c #FFF3A4",
"|. c #FFF7C4",
" X c #F7EFD1",
".X c #FFF8D1",
"XX c None",
/* pixels */
"XXXXXXXXXXXXXXXXXXXXXXXXXXXXXXXXXXXXXXXXXXXXXXXXXXXXXXXXXXXXXXXXXXXXXXXXXXXXXXXX",
"XXXXXXXXXX0.XXXXXXXXXXXXXXXXXXXXXXXXXXXXXXXXXXXXXXXXXXXXXXXXXXXXXXXXXXXXXXXXXXXX",
"XXXXXXXX0.0.XXXXXXXXXXXXXXXXXXXXXXXXXXXXXXXXXXXXXXXXXXXXXXXXXXXXXXXXXXXXXXXXXXXX",
"XXXXXXXX0.XXXXXXXXXXXXXXXXXXXXXXXXXXXXXXXXXXXXXXXXXXXXXXXXXXXXXXXXXXXXXXXXXXXXXX",
"XXXXXXXXXX0.XXXXXXXXG.G.G.XXXXXXXXXXXXXXXXXXXXXXXXXXXXXXXXXXXXXXXXXXXXXXXXXXXXXX",
"XXXXXXXXXXXXXXXXG.G.G.!.J.G.XXXXXXXXXXXXXXXXXXXXXXXXXXXXXXXXXXXXXXXXXXXXXXXXXXXX",
"XXXXXXXXXXXXXXXXXXXXK.~.E.G.XXXXXXXXXXXXXXXXXXXXXXXXXXXXXXXXXXXXXXXXXXXXXXXXXXXX",
"XXXXXXXXXXXXXXXXG.G.!.P.K.G.XXXXXXXXXXXXXXXXXXXXXXXXXXXXXXXXXXXXXXXXXXXXXXXXXXXX",
"XXXXXXXXXXXXXXG.K.!.P.G.G.G.XXXXXXXXXXXXXXXXXXXXXXXXXXXXXXXXXXXXXXXXXXXXXXXXXXXX",
"XXXXXXXXXXXXF.K.^.~.J.G.XXG.XXXXXXXX+ 2 XXXXXXXXXXXXXXXXXXXXXXXXXXXXXXXXXXXXXXXX",
"XXXXXXXXXXXX1.Q.~.'.J.G.4 XXXXXXXXXX* u.7 X XXXXXXXXXXXXXXXXXXXXXXXXXXXXXXXXXXXX",
"XXXXXXXXXXXX1.W.}.|.!.G.1.XXXXXXXXXXW p.i.m . XXXXXXXXXXXXXXXXXXXXXXXXXXXXXXXXXX",
"XXXXXXXXXXXX^ J.]..X/.P.8.XXXXXXXX4 u.y.t.:.z X XXXXXXXXXX    XXXXXXXXXXXXXXXXXX",
"XXXXXXXXXXXX. F.E.|.|.W.6.XX0 0 X W p.y.r.B h M m o XXXXe B.v.XXXXXXXXXXXXXXXXXX",
"XXXXXXXXXXXXXX6.Q..X.XL.^ v.B.Y.D e 7.7.+.M #.=.( N X . M.V.> XXXXXXXXXXXXXXXXXX",
"XXXXXXXXXXXXXX1.`. X[.U.. e V.Y.B.f.W =.;.>.=.+.j : o.l s u XXXXXXXXXXXXXXXXXXXX",
"XXXXXXXXXXXXXXI D.{.{.).@ XX. ] T.k. .Q >.;.@.#.O.$.=./ k . XXXXXXXXXXXXXXXXXXXX",
"XXXXXXXXXXXXXX1 (._.A._.$ XXXX  B.l. .X.>.>.>.>.$.;.C B N   XXXXXXXXXXXXXXXXXXXX",
"XXXXXXXXXXXXXX1 S.~ 4.4.X XX$ 4 c.k...L ;.;.;.$.C j k h h   XXXXXXXXXXXXXXXXXXXX",
"XXXXXXXXXXXXXXXX  , x $ XXXX3.y.1 C.} m >.$.b = & r s.f.b.b.r XXXXXXXXXXXXXXXXXX",
"XXXXXXXXXXXXXXXX. ` w.- XXXX3.I.I.t.,.,.>.v . Z x.l.l.l.N.T.Y.t XXXXXXXXXXXXXXXX",
"XXXXXXXXXXXXXXXXXX` q.< XXXX3.y.i.I.p.t.O.g S .. .l.l.s.s.n.Y.B.  XXXXXXXXXXXXXX",
"XXXXXXXXXXXXXXXXXXU 9., XXXX4 7.i.<.,.,.O.. Z J ..G # @ O # a.N.y XXXXXXXXXXXXXX",
"XXXXXXXXXXXXXXXXXX% < y w XX& c M $.=.;.( % A ....H H H O XXXXs.s.XXXXXXXXXXXXXX",
"XXXXXXXXXXXXXXXXO Y.c.i d.XX2 ;.;.>.>.>.-./ g S ....} J o XXXXr a XXXXXXXXXXXXXX",
"XXXXXXXXXXXXXXXXa Z.R.f a XX* 5 6 >.>.>.>.o.B j S H } g   XXXXXXXXXXXXXXXXXXXXXX",
"XXXXXXXXXXXXXXXXu z.m.g.. X * o.>.>.>.;./ B T B N R T B k X XXXXXXXXXXXXXXXXXXXX",
"XXXXXXXXXXXXXXXX. d.h.i X d P Y 8 M M v N N n b b h z c = D q XXXXXXXXXXXXXXXXXX",
"XXXXXXXXXXXXXXXXXX    - o W 2.u.S.D.S.D.T ! K ! x 9.! { E l.h.. XXXXXXXXXXXXXXXX",
"XXXXXXXXXXXXXXXXXX. ) _   g c g : ; = ; = K P ! , ) 3 X 0 l.j.. XXXXXXXXXXXXXXXX",
"XXXXXXXXXXXXXXXXXXXX; 3 : =.;.-.@.@.B B / n c % { , _ x @ t 0 XXXXXXXXXXXXXXXXXX",
"XXXXXXXXXXXXXXXXXXXXXXXXXX* 7 o.o.M N V N z h U ' % < { U XXXXXXXXXXXXXXXXXXXXXX",
"XXXXXXXXXXXXXXXXXXXXXXXXXXXXXX. . . . . . . XX@ K   . . Y XXXXXXXXXXXXXXXXXXXXXX",
"XXXXXXXXXXXXXXXXXXXXXXXXXXXXXXX . XXXXXXXXXXXXXXXXXX. . XXXXXXXXXXXXXXXXXXXXXXXX",
"XXXXXXXXXXXXXXXXXXXXXXXXXXXX. . XXXXXXXXXXXXXXXXXXXX. . . XXXXXXXXXXXXXXXXXXXXXX",
"XXXXXXXXXXXXXXXXXXXXXXXXXXXXXXXXXXXXXXXXXXXXXXXXXXXXXXXXXXXXXXXXXXXXXXXXXXXXXXXX",
"XXXXXXXXXXXXXXXXXXXXXXXXXXXXXXXXXXXXXXXXXXXXXXXXXXXXXXXXXXXXXXXXXXXXXXXXXXXXXXXX",
"XXXXXXXXXXXXXXXXXXXXXXXXXXXXXXXXXXXXXXXXXXXXXXXXXXXXXXXXXXXXXXXXXXXXXXXXXXXXXXXX"
};
