/* XPM */
static char *result[] = {
/* columns rows colors chars-per-pixel */
"40 38 188 2 ",
"   c #000D2B",
".  c #08182D",
"X  c #09162D",
"o  c #151B2E",
"O  c #191D2F",
"+  c #1D1D30",
"@  c #241E2F",
"#  c #281E2F",
"$  c #221F32",
"%  c #18262F",
"&  c #192A31",
"*  c #193431",
"=  c #1A3B32",
"-  c #20202F",
";  c #242233",
":  c #2C2435",
">  c #2C2A35",
",  c #332E37",
"<  c #322539",
"1  c #3B273E",
"2  c #372A3A",
"3  c #3C2D3C",
"4  c #3A2433",
"5  c #243738",
"6  c #3C363A",
"7  c #5B2F39",
"8  c #512F39",
"9  c #433A3C",
"0  c #553C39",
"q  c #62313A",
"w  c #75373F",
"e  c #76383F",
"r  c #1E4F35",
"t  c #1F5436",
"y  c #294936",
"u  c #205937",
"i  c #205B38",
"p  c #3E5A39",
"a  c #22633A",
"s  c #246B3B",
"d  c #2E693C",
"f  c #27773E",
"g  c #37763F",
"h  c #48403C",
"j  c #69493C",
"k  c #4B6C3D",
"l  c #432B43",
"z  c #492D46",
"x  c #4C2F48",
"c  c #483E41",
"v  c #4D3049",
"b  c #4B3B48",
"n  c #54334D",
"m  c #5A3348",
"M  c #5C3652",
"N  c #5F3854",
"B  c #743842",
"V  c #7C3D44",
"C  c #633A57",
"Z  c #663C59",
"A  c #6A3D5B",
"S  c #6C3B52",
"D  c #713F5B",
"F  c #6A394D",
"G  c #2C4749",
"H  c #2F504F",
"J  c #355C58",
"K  c #325553",
"L  c #33484B",
"P  c #297C40",
"I  c #30724E",
"U  c #3D6B63",
"Y  c #4D4144",
"T  c #524546",
"R  c #564947",
"E  c #5C4E50",
"W  c #4D545A",
"Q  c #63524D",
"!  c #655548",
"~  c #78504A",
"^  c #764356",
"/  c #645352",
"(  c #6E5C59",
")  c #695755",
"_  c #765955",
"`  c #6B4945",
"'  c #467C41",
"]  c #49615B",
"[  c #79635C",
"{  c #766455",
"}  c #416F67",
"|  c #407267",
" . c #417168",
".. c #813E44",
"X. c #823F48",
"o. c #874146",
"O. c #8C444A",
"+. c #9E4B4F",
"@. c #875A48",
"#. c #834459",
"$. c #8B4759",
"%. c #924857",
"&. c #9B4C58",
"*. c #8A5851",
"=. c #965E54",
"-. c #A34C4E",
";. c #A24E55",
":. c #AC5155",
">. c #A65057",
",. c #B55555",
"<. c #B85D59",
"1. c #916347",
"2. c #92665A",
"3. c #88745B",
"4. c #94775B",
"5. c #A6675B",
"6. c #BA635C",
"7. c #BB685F",
"8. c #8A7163",
"9. c #977868",
"0. c #A96F67",
"q. c #BC6B60",
"w. c #B76D63",
"e. c #AD7262",
"r. c #BF7767",
"t. c #2B8342",
"y. c #2C8944",
"u. c #319C49",
"i. c #3B9A4A",
"p. c #398F58",
"a. c #3C995D",
"s. c #358643",
"d. c #33A24C",
"f. c #37B152",
"g. c #38B251",
"h. c #38AC54",
"j. c #3E8F60",
"k. c #5C8445",
"l. c #628D48",
"z. c #699A4C",
"x. c #5AA64F",
"c. c #44B552",
"v. c #56BA55",
"b. c #62A24E",
"n. c #70A14F",
"m. c #68AA51",
"M. c #79B154",
"N. c #73C35A",
"B. c #7BC75B",
"V. c #9B8069",
"C. c #B79E75",
"Z. c #A58C69",
"A. c #BAA87F",
"S. c #C08555",
"D. c #CF9758",
"F. c #D9945F",
"G. c #DB9A5E",
"H. c #DFA55C",
"J. c #E2AB5B",
"K. c #E5B558",
"L. c #E7BF58",
"P. c #C2806C",
"I. c #C1A478",
"U. c #CBAD7D",
"Y. c #84CC5E",
"T. c #88C95D",
"R. c #93D462",
"E. c #EFCC4E",
"W. c #F4D74D",
"Q. c #EECA52",
"!. c #ECC454",
"~. c #F0CD51",
"^. c #FEEC44",
"/. c #FAE449",
"(. c #FCE855",
"). c #F7DF69",
"_. c #F7E36E",
"`. c #C7AE81",
"'. c #C9B689",
"]. c #D5BE8E",
"[. c #FFF297",
"{. c #FAE999",
"}. c #EAD8A4",
"|. c #EEE0AA",
" X c #FEF3AF",
".X c #FCF3C2",
"XX c #FFFBE3",
"oX c None",
/* pixels */
"oXoXoXoXoXoXoXoXoXoXoXoXoXoXoXoXoXoXoXoXoXoXoXoXoXoXoXoXoXoXoXoXoXoXoXoXoXoXoXoX",
"oXoXoXoXoXoXoXoXoXoXoXoXoXoXoXoXoXoXoXoXoXoXoXoXoXoXoXoXoXoXoXoXoXoXoXoXoXoXoXoX",
"oXoXoXoXoXoXoXoXoXoXoXoX9.oXoXoXoXoXoXoXoXoXoXoXoXoXoXoXoXoXoXoXoXoXoXoXoXoXoXoX",
"oXoXoXoXoXoXF.F.oXoXoXoXoXoXoXoXoXoXoXoXoXoXoXoXoXoXoXoXoXoXoXoXoXoXoXoXoXoXoXoX",
"oXoXoXoXoXF.W.!.oXoXoXoXoXoXoXoXoXoXoXoXoXoXoXoXoXoXoXoXoXoXoXoXoXoXoXoXoXoXoXoX",
"oXoXoXoXoXoXoXJ.oXoXoXoXoXoXoXoXoXoXoXoXoXoXoXoXoXoXoXoXoXoXoXoXoXoXoXoXoXoXoXoX",
"oXoXoXoXoXF.oXoXoXF.F.F.F.F.oXoXoXoXoXoXoXoXoXoXoXoXoXoXoXoXoXoXoXoXoXoXoXoXoXoX",
"oXoXoXoXoXF.F.F.F.J.!.W.Q.G.F.oXoXoXoXoXoXoXoXoXoXoXoXoXoXoXoXoXoXoXoXoXoXoXoXoX",
"oXoXoXoXoXoXF.F.H.~./.^.^.Q.F.F.oXoXoXoXoXoXoXoXoXoXoXoXoXoXoXoXoXoXoXoXoXoXoXoX",
"oXoXoXoXoXoXoXoXF.F.G.K.^.^.G.F.oXoXoXo oXoXoXoXoXoXoXoXoXoXoXoXoXoXoXoXoXoXoXoX",
"oXoXoXoXoXoXoXoXoXF.K.W.K.^.F.F.oXoXoX0 *.@ oXoXoXoXoXoXoXoXoXoXoXoXoXoXoXoXoXoX",
"oXoXoXoXoXoXoXoXoXoXF./.^.^.G.oXoXoXoX` 7.5.# o oXoXoXoXoXoXoXoXoXoXoXoXoXoXoXoX",
"oXoXoXoXoXoXoXoXoXj H.(.[./.S.7 oXoX$ e.7.P.^ < o oXoXoXoXoXl.oXoXoXoXoXoXoXoXoX",
"oXoXoXoXoXoXoXoXoX@.K.[.XXQ.1.' o o *.q.r.0.Z 3 4 $ o oXoXo z.o oXoXoXoXoXoXoXoX",
"oXoXoXoXoXoXoXoX0 D._.XX{.D.$ M.x.r ~ 7.w.A m o.$.C z o o k.b.oXoXoXoXoXoXoXoXoX",
"oXoXoXoXoXoXoXoX@._. X X!.j oXn.R.M.P -.#.;.:.$.A N x $ O M.s.oXoXoXoXoXoXoXoXoX",
"oXoXoXoXoXoXoXoX3.].|.|.C.X oXo M.Y.a.] -.:.D A S V O.D N y * oXoXoXoXoXoXoXoXoX",
"oXoXoXoXoXoXoXoX6 '.}.'.`.  oXoXp T.f.U _ ,.:.:.:.X.A Z A n o oXoXoXoXoXoXoXoXoX",
"oXoXoXoXoXoXoXoX{ U.4.3.A.  oXo o m.h.U _ ,.;.$.D A N n N n O oXoXoXoXoXoXoXoXoX",
"oXoXoXoXoXoXoXoXo 6 o ! . oXoX*.=.P j.U v >.X.A M 1 o I P P t O oXoXoXoXoXoXoXoX",
"oXoXoXoXoXoXoXoXoX% / ( O oX. e.P.4.2.*.,.,.S $ 5 I d.f.h.B.B.d oXoXoXoXoXoXoXoX",
"oXoXoXoXoXoXoXoXoX> [ 9.O oX. 5.6.<.<.,.,.+.G G } a.f.f.f.g.Y.T.y oXoXoXoXoXoXoX",
"oXoXoXoXoXoXoXoXoX> ( 9.O oXo =.<.,.,.,.,.V % G U  .p.s * u i.N.x.& oXoXoXoXoXoX",
"oXoXoXoXoXoXoXoXoXo Y ) o oXoX; B ;.,.,.,.V o J  . .J J H oXoXs u.u.a oXoXoXoXoX",
"oXoXoXoXoXoXoXoXoX5 l.> y.P oXl %.%.&.;.;.$.x H }  . . .U o oXoX* = oXoXoXoXoXoX",
"oXoXoXoXoXoXoXoXoXg R.T.t y.oXq X.X.,.,.,.,.D x L U  .U 5 O oXoXoXoXoXoXoXoXoXoX",
"oXoXoXoXoXoXoXoXoXt.v.N.' % o % q -.,.,.,.$.A A Z n U W N < oXoXoXoXoXoXoXoXoXoX",
"oXoXoXoXoXoXoXoXoXa f.h.s % > h ! e w w w z M C N N v 1 z M + o oXoXoXoXoXoXoXoX",
"oXoXoXoXoXoXoXoXoXoXu u O oX9 3.Z.V.I.9.A.C.E Q Y Q 6 8./ { b P = oXoXoXoXoXoXoX",
"oXoXoXoXoXoXoXoXoXoXo R c oX: n z 4 3 2 3 3 < T T Q , / c O o u.y oXoXoXoXoXoXoX",
"oXoXoXoXoXoXoXoXoXoXo / T o X.>.>.$.$.^ A A A C M ; [ 9 / Y t y.* oXoXoXoXoXoXoX",
"oXoXoXoXoXoXoXoXoXoXoXoXoXoX7 : V o.V N C C C x l { ( ; 6 [ R % oXoXoXoXoXoXoXoX",
"oXoXoXoXoXoXoXoXoXoXoXoXoXoXoXoXo o o o o o o o o Y o o o , c oXoXoXoXoXoXoXoXoX",
"oXoXoXoXoXoXoXoXoXoXoXoXoXoXoXoXO o oXoXoXoXoXoXoXoXoXo % oXoXoXoXoXoXoXoXoXoXoX",
"oXoXoXoXoXoXoXoXoXoXoXoXoXoXoXo o oXoXoXoXoXoXoXoXoXoXO o o oXoXoXoXoXoXoXoXoXoX",
"oXoXoXoXoXoXoXoXoXoXoXoXoXoXoXoXoXoXoXoXoXoXoXoXoXoXoXoXoXoXoXoXoXoXoXoXoXoXoXoX",
"oXoXoXoXoXoXoXoXoXoXoXoXoXoXoXoXoXoXoXoXoXoXoXoXoXoXoXoXoXoXoXoXoXoXoXoXoXoXoXoX",
"oXoXoXoXoXoXoXoXoXoXoXoXoXoXoXoXoXoXoXoXoXoXoXoXoXoXoXoXoXoXoXoXoXoXoXoXoXoXoXoX"
};
