/* XPM */
static char *result[] = {
/* columns rows colors chars-per-pixel */
"40 38 181 2 ",
"   c #07192D",
".  c #0C1A2D",
"X  c #07142C",
"o  c #15142E",
"O  c #151B2E",
"+  c #1A1D2F",
"@  c #1B1E30",
"#  c #251F32",
"$  c #1B2D34",
"%  c #1A3331",
"&  c #183D31",
"*  c #172A2F",
"=  c #27232F",
"-  c #2A2134",
";  c #2C2B34",
":  c #262334",
">  c #342539",
",  c #39273D",
"<  c #342A39",
"1  c #3B293E",
"2  c #392734",
"3  c #203736",
"4  c #3C353B",
"5  c #3F3838",
"6  c #442738",
"7  c #502D3F",
"8  c #43393D",
"9  c #553B3B",
"0  c #67393D",
"q  c #76383F",
"w  c #1C4333",
"e  c #1D4D34",
"r  c #1F5436",
"t  c #2A4233",
"y  c #314835",
"u  c #215C38",
"i  c #3C5738",
"p  c #28643A",
"a  c #3C6C3D",
"s  c #26763E",
"d  c #2A783F",
"f  c #4E443E",
"g  c #48683C",
"h  c #343742",
"j  c #472D45",
"k  c #493646",
"l  c #54334D",
"z  c #593145",
"x  c #5D3753",
"c  c #5F3855",
"v  c #663542",
"b  c #723B43",
"n  c #603955",
"m  c #653B59",
"M  c #693D5B",
"N  c #6B3C55",
"B  c #723E56",
"V  c #2D4C4C",
"C  c #2F514F",
"Z  c #345A56",
"A  c #365D58",
"S  c #297D41",
"D  c #39625C",
"F  c #3B6A62",
"G  c #4D4247",
"H  c #534646",
"J  c #594A47",
"K  c #534449",
"L  c #5A4B49",
"P  c #564B54",
"I  c #684A47",
"U  c #67574A",
"Y  c #77415A",
"T  c #79415A",
"R  c #655453",
"E  c #6C5953",
"W  c #6C5856",
"Q  c #735E56",
"!  c #517440",
"~  c #507D42",
"^  c #72624E",
"/  c #786457",
"(  c #406F67",
")  c #407267",
"_  c #417168",
"`  c #833F44",
"'  c #8D4347",
"]  c #944649",
"[  c #96484B",
"{  c #855B43",
"}  c #8D4654",
"|  c #8B4759",
" . c #874558",
".. c #944956",
"X. c #9E4D57",
"o. c #9A4C58",
"O. c #845950",
"+. c #9F5051",
"@. c #A44D4F",
"#. c #A64F53",
"$. c #A54F55",
"%. c #A65156",
"&. c #AD5155",
"*. c #AA5E5D",
"=. c #B55555",
"-. c #92625E",
";. c #8A765B",
":. c #8A795E",
">. c #95795B",
",. c #AC764F",
"<. c #A96D5F",
"1. c #BA645C",
"2. c #BC695F",
"3. c #B17851",
"4. c #836B61",
"5. c #9E7466",
"6. c #977F64",
"7. c #8B7265",
"8. c #BD6C61",
"9. c #A97161",
"0. c #B87766",
"q. c #A66663",
"w. c #C07666",
"e. c #C37D6B",
"r. c #2D8A46",
"t. c #31884C",
"y. c #339748",
"u. c #3B994C",
"i. c #3D975D",
"p. c #36AA4F",
"a. c #33A14B",
"s. c #39AC53",
"d. c #38B251",
"f. c #37B050",
"g. c #3F8463",
"h. c #498945",
"j. c #648F49",
"k. c #40AC4F",
"l. c #46B653",
"z. c #73A550",
"x. c #62BE57",
"c. c #6CB855",
"v. c #7EBD58",
"b. c #67AA51",
"n. c #72C35A",
"m. c #928366",
"M. c #A98E6E",
"N. c #B49970",
"B. c #B8A178",
"V. c #D9945F",
"C. c #DD9E5D",
"Z. c #C68E56",
"A. c #DEA45C",
"S. c #E3AD5A",
"D. c #E6B458",
"F. c #C6846E",
"G. c #D8A362",
"H. c #C0A377",
"J. c #8CCC5F",
"K. c #82CB5D",
"L. c #93D461",
"P. c #F4D64E",
"I. c #EDC654",
"U. c #F1CF50",
"Y. c #FEEC43",
"T. c #FAE349",
"R. c #FFEE4B",
"E. c #F1D27C",
"W. c #FAE976",
"Q. c #D3B887",
"!. c #D8C695",
"~. c #E1CC98",
"^. c #FFF295",
"/. c #E7D6A2",
"(. c #EFE1AB",
"). c #FEF2A5",
"_. c #FBEEB3",
"`. c #FFF5B5",
"'. c #FFF9D8",
"]. c #FFFCEC",
"[. c None",
/* pixels */
"[.[.[.[.[.[.[.[.[.[.[.[.[.[.[.[.[.[.[.[.[.[.[.[.[.[.[.[.[.[.[.[.[.[.[.[.[.[.[.[.",
"[.[.[.[.[.[.[.[.[.[.[.[.[.[.[.[.[.[.[.[.[.[.[.[.[.[.[.[.[.[.[.[.[.[.[.[.[.[.[.[.",
"[.[.[.[.[.[.[.[.[.[.[.[.[.[.[.[.[.[.[.[.[.[.[.[.[.[.[.[.[.[.[.[.[.[.[.[.[.[.[.[.",
"[.[.[.[.[.[.[.[.[.[.[.5.5.[.[.[.[.[.[.[.[.[.[.[.[.[.[.[.[.[.[.[.[.[.[.[.[.[.[.[.",
"[.[.[.[.[.S.I.V.V.[.[.5.5.[.[.[.[.[.[.[.[.[.[.[.[.[.[.[.[.[.[.[.[.[.[.[.[.[.[.[.",
"[.[.[.[.[.U.U.V.[.[.[.[.[.[.[.[.[.[.[.[.[.[.[.[.[.[.[.[.[.[.[.[.[.[.[.[.[.[.[.[.",
"[.[.[.[.[.U.S.[.[.[.[.[.[.[.[.[.[.[.[.[.[.[.[.[.[.[.[.[.[.[.[.[.[.[.[.[.[.[.[.[.",
"[.[.[.[.[.[.C.V.V.V.V.[.[.[.[.[.[.[.[.[.[.[.[.[.[.[.[.[.[.[.[.[.[.[.[.[.[.[.[.[.",
"[.[.[.[.V.V.V.S.D.V.V.V.V.[.[.[.[.[.[.[.[.[.[.[.[.[.[.[.[.[.[.[.[.[.[.[.[.[.[.[.",
"[.[.[.[.[.V.V.V.I.Y.E.G.V.V.[.[.[.[.[.O [.[.[.[.[.[.[.[.[.[.[.[.[.[.[.[.[.[.[.[.",
"[.[.[.[.[.[.V.V.V.U.^._.S.V.[.[.[.[.[.O.0 O [.[.[.[.[.[.[.[.[.[.[.[.[.[.[.[.[.[.",
"[.[.[.[.[.[.[.[.V.C.Y.R.T.V.[.[.[.[.* 9.=.0 O [.[.[.[.[.[.[.[.[.[.[.[.[.[.[.[.[.",
"[.[.[.[.[.[.[.[.,.C.Y.).Y.A.[.[.[.[.z F.8.8.l + [.[.[.[.[.o O [.[.[.[.[.[.[.[.[.",
"[.[.[.[.[.[.[.[.{ D.R.].R.Z.= y [.  0.2.e.q.c > 2 @ [.[.t v.t [.[.[.[.[.[.[.[.[.",
"[.[.[.[.[.[.[.  3.T.`.'.I.^ f J.h.X 9.=.*.c v $.$.x - O j.b.O [.[.[.[.[.[.[.[.[.",
"[.[.[.[.[.[.[.9 G.W.`.).Z.= i K.K.a.I =.| &.=...M l 6 : ~ y.[.[.[.[.[.[.[.[.[.[.",
"[.[.[.[.[.[.[.X B.~././.^ [.[.! J.d.g.I =.%.M M v ] &.Y j e [.[.[.[.[.[.[.[.[.[.",
"[.[.[.[.[.[.[.O ^ /.!.Q.m.[.[.O z.n.s.D %.&.&.&.=.X.Y M M , [.[.[.[.[.[.[.[.[.[.",
"[.[.[.[.[.[.[.  N.H.U B.:.[.[.. y n.i.( X.=.=.o.M m n c c , O [.[.[.[.[.[.[.[.[.",
"[.[.[.[.[.[.[.[.5 + 5 G . [.2 9.H h._ C ' &.B x j - & s s d % [.[.[.[.[.[.[.[.[.",
"[.[.[.[.[.[.[.[.O 8 W J [.[.9 F.<.>.o.[ =.X.j + V t.d.d.l.L.n.p [.[.[.[.[.[.[.[.",
"[.[.[.[.[.[.[.[.[.G 7./ [.[.9 e.w.0.w.=.=.b V Z F s.d.s.d.x.J.J.a [.[.[.[.[.[.[.",
"[.[.[.[.[.[.[.[.[.G / / [.[.2 0.w.=.=.=.=.- $ Z _ g.t.e % d u.k.d.s [.[.[.[.[.[.",
"[.[.[.[.[.[.[.[.[.: P K o [.O z ` #.=.=.&., $ _ _ _ V D 3 [.[.o p r.o [.[.[.[.[.",
"[.[.[.[.[.[.[.[.O g g % a.[.O I ....o.&.o.M h D _ _ F _ Z [.[.[.[.O [.[.[.[.[.[.",
"[.[.[.[.[.[.[.[.O c.L.j.r.p O ' b @.=.=.=.%.m 1 A _ F A * [.[.[.[.[.[.[.[.[.[.[.",
"[.[.[.[.[.[.[.[.O s.n.c.% O O + ` =.=.=.&.Y M M c P F P l > [.[.[.[.[.[.[.[.[.[.",
"[.[.[.[.[.[.[.[.O y.d.p.+ O O 6 q ] @.@.} n M M M M l x M j @ o [.[.[.[.[.[.[.[.",
"[.[.[.[.[.[.[.[.[.w r w + [.X m.M.;.;./ ;.;.k < , , R H W K & S @ [.[.[.[.[.[.[.",
"[.[.[.[.[.[.[.[.[.O ; R + [.O < , J :./ ;.;.G 4.E U E 4.< K 3 d.e [.[.[.[.[.[.[.",
"[.[.[.[.[.[.[.[.[.[.< / + [.2 } } N n x c x c j , 8 L ; J O u s.w [.[.[.[.[.[.[.",
"[.[.[.[.[.[.[.[.[.[.[.[.[.+ [ &.&.&.@.} M M m l 4 R J L R O * % [.[.[.[.[.[.[.[.",
"[.[.[.[.[.[.[.[.[.[.[.[.[.[.[.  . . . < h , , = / k . ^ L O [.[.[.[.[.[.[.[.[.[.",
"[.[.[.[.[.[.[.[.[.[.[.[.[.[.[.[.O O [.[.[.[.[.+ [.[.O O O [.[.[.[.[.[.[.[.[.[.[.",
"[.[.[.[.[.[.[.[.[.[.[.[.[.[.[.O O O [.[.[.[.[.[.[.[.[.O O O [.[.[.[.[.[.[.[.[.[.",
"[.[.[.[.[.[.[.[.[.[.[.[.[.[.[.[.[.[.[.[.[.[.[.[.[.[.[.[.[.[.[.[.[.[.[.[.[.[.[.[.",
"[.[.[.[.[.[.[.[.[.[.[.[.[.[.[.[.[.[.[.[.[.[.[.[.[.[.[.[.[.[.[.[.[.[.[.[.[.[.[.[.",
"[.[.[.[.[.[.[.[.[.[.[.[.[.[.[.[.[.[.[.[.[.[.[.[.[.[.[.[.[.[.[.[.[.[.[.[.[.[.[.[."
};
