/* XPM */
static char *result[] = {
/* columns rows colors chars-per-pixel */
"40 38 186 2 ",
"   c #0D192D",
".  c #05162D",
"X  c #15162E",
"o  c #151B2E",
"O  c #1A1D2F",
"+  c #261F2F",
"@  c #221F32",
"#  c #291F33",
"$  c #16252F",
"%  c #1F212F",
"&  c #1E2030",
"*  c #1D2D37",
"=  c #1A3733",
"-  c #252331",
";  c #2C2233",
":  c #2E2438",
">  c #342B39",
",  c #3B2B3C",
"<  c #362B36",
"1  c #283536",
"2  c #3C353D",
"3  c #363039",
"4  c #432837",
"5  c #443B3F",
"6  c #48343A",
"7  c #533A3C",
"8  c #5B3239",
"9  c #6C353E",
"0  c #63323B",
"q  c #75373F",
"w  c #1C4C35",
"e  c #1E5637",
"r  c #224438",
"t  c #334835",
"y  c #215B38",
"u  c #385137",
"i  c #23653A",
"p  c #2A673B",
"a  c #3D623A",
"s  c #27733E",
"d  c #28793F",
"f  c #50463F",
"g  c #74503E",
"h  c #452A44",
"j  c #4B2E47",
"k  c #4E2F49",
"l  c #4D314A",
"z  c #483D42",
"x  c #55334E",
"c  c #5D3447",
"v  c #5D3752",
"b  c #5F3854",
"n  c #6E3440",
"m  c #793B43",
"M  c #623956",
"N  c #6A3B55",
"B  c #693D5B",
"V  c #673D5A",
"C  c #763F56",
"Z  c #2A4748",
"A  c #284745",
"S  c #38454B",
"D  c #345A56",
"F  c #296F41",
"G  c #39645D",
"H  c #3C6943",
"J  c #3C6861",
"K  c #3E7067",
"L  c #4D4246",
"P  c #434244",
"I  c #524445",
"U  c #594B46",
"Y  c #5D4D4A",
"T  c #5D5145",
"R  c #584C54",
"E  c #4A5758",
"W  c #7E4245",
"Q  c #64544B",
"!  c #7B425A",
"~  c #685652",
"^  c #725D55",
"/  c #735F59",
"(  c #446451",
")  c #7C665E",
"_  c #76625A",
"`  c #406E66",
"'  c #417167",
"]  c #417168",
"[  c #823E44",
"{  c #8A4249",
"}  c #934649",
"|  c #855B43",
" . c #9A514F",
".. c #8C4654",
"X. c #824459",
"o. c #8C4759",
"O. c #8E4859",
"+. c #954958",
"@. c #994C58",
"#. c #9F4D50",
"$. c #88545F",
"%. c #935851",
"&. c #A44D4F",
"*. c #A24E57",
"=. c #A84F50",
"-. c #AB5155",
";. c #A75957",
":. c #B55555",
">. c #8F6055",
",. c #8B775B",
"<. c #937D5E",
"1. c #9A675A",
"2. c #A07549",
"3. c #BA625B",
"4. c #B8655D",
"5. c #806960",
"6. c #8C7363",
"7. c #937B64",
"8. c #9E7466",
"9. c #A97A65",
"0. c #BC7968",
"q. c #BB7565",
"w. c #C27B69",
"e. c #2C8944",
"r. c #358A4A",
"t. c #2E9247",
"y. c #329949",
"u. c #3C995C",
"i. c #33A34C",
"p. c #36AC4F",
"a. c #3CAB52",
"s. c #3BA358",
"d. c #38B251",
"f. c #3E8862",
"g. c #3E9060",
"h. c #5A8144",
"j. c #419D4A",
"k. c #6D9D4D",
"l. c #42AD50",
"z. c #4BB653",
"x. c #59B754",
"c. c #6FA04E",
"v. c #71A24F",
"b. c #6DAC52",
"n. c #63BF57",
"m. c #7CB255",
"M. c #79AD53",
"N. c #77C25A",
"B. c #BE8155",
"V. c #A68A45",
"C. c #998869",
"Z. c #A38B69",
"A. c #BE9E74",
"S. c #B48E6B",
"D. c #C48757",
"F. c #D28E5D",
"G. c #D9945F",
"H. c #DDA45A",
"J. c #E1AA5A",
"K. c #E4B159",
"L. c #C78A62",
"P. c #C4826D",
"I. c #CE8E61",
"U. c #C2A578",
"Y. c #C0AA7F",
"T. c #8CCE5F",
"R. c #84CA5D",
"E. c #91D361",
"W. c #F3D54C",
"Q. c #F7DC4B",
"!. c #EBC354",
"~. c #F5D751",
"^. c #FCE647",
"/. c #FFEE5D",
"(. c #F6DD76",
"). c #DEC896",
"_. c #E1CB97",
"`. c #F1DF99",
"'. c #FCEB90",
"]. c #F5E689",
"[. c #F0E2AC",
"{. c #FFF7C7",
"}. c #FFF9D4",
"|. c #F8EEC5",
" X c #FFFBE3",
".X c None",
/* pixels */
".X.X.X.X.X.X.X.X.X.X.X.X.X.X.X.X.X.X.X.X.X.X.X.X.X.X.X.X.X.X.X.X.X.X.X.X.X.X.X.X",
".X.X.X.X.X.X.X.X.X.X.X.X.X.X.X.X.X.X.X.X.X.X.X.X.X.X.X.X.X.X.X.X.X.X.X.X.X.X.X.X",
".X.X.X.X.X.X9..X.X.X.X.X.X.X.X.X.X.X.X.X.X.X.X.X.X.X.X.X.X.X.X.X.X.X.X.X.X.X.X.X",
".X.X.X.X.XB.I..X.X.X.X.X.X.X.X.X.X.X.X.X.X.X.X.X.X.X.X.X.X.X.X.X.X.X.X.X.X.X.X.X",
".X.X.X.X.XL.G..X.X.X.XG..X.X.X.X.X.X.X.X.X.X.X.X.X.X.X.X.X.X.X.X.X.X.X.X.X.X.X.X",
".X.X.X.X.XL..X.X.XG.G.G.G.G..X.X.X.X.X.X.X.X.X.X.X.X.X.X.X.X.X.X.X.X.X.X.X.X.X.X",
".X.X.X.X.X8..XG.G.G.G.J.~.G.G..X.X.X.X.X.X.X.X.X.X.X.X.X.X.X.X.X.X.X.X.X.X.X.X.X",
".X.X.X.X.X9..XG..X.XG.G.!.^.H.G..X.X.X.X.X.X.X.X.X.X.X.X.X.X.X.X.X.X.X.X.X.X.X.X",
".X.X.X.X.X.X.X.X.X.X.XG.H.!.K.G..X.X.X.X.X.X.X.X.X.X.X.X.X.X.X.X.X.X.X.X.X.X.X.X",
".X.X.X.X.X.X.X.X.X.X.XG.W.!.G.G..X.X.X, . .X.X.X.X.X.X.X.X.X.X.X.X.X.X.X.X.X.X.X",
".X.X.X.X.X.X.X.X.X.X.XG.^.^.G.B..X.X.X1. .@ .X.X.X.X.X.X.X.X.X.X.X.X.X.X.X.X.X.X",
".X.X.X.X.X.X.X.X.X.X| K./.^.D.o .X.X% q.3. .+ X .X.X.X.X.X.X.X.X.X.X.X.X.X.X.X.X",
".X.X.X.X.X.X.X.X.XW F.^.{.W.| .X.X  >.w.q.q.N @ o .X.X.X.X.X.X.X.X.X.X.X.X.X.X.X",
".X.X.X.X.X.X.X.X3 B.!.}. XH.; w $   0.:.w.$.x 9 m : o .Xo o o .X.X.X.X.X.X.X.X.X",
".X.X.X.X.X.X.X.X| H.'.}.(.2.k.R.b.e %.:.+.! { -.O.B , o d j.m.u .X.X.X.X.X.X.X.X",
".X.X.X.X.X.X.X. A.`.{.].V.* c.c.E.z.( &.*.:.*.! v 4 n n r t.u 1 .X.X.X.X.X.X.X.X",
".X.X.X.X.X.X.X. C._.[._.,..X.XO c.x.g.D =.@.X.X.} :.*.C v @ .X.X.X.X.X.X.X.X.X.X",
".X.X.X.X.X.X.X  C._.S.Y.C..X.Xo h.N.u.' ;.:.:.:.@.X.B B V , .X.X.X.X.X.X.X.X.X.X",
".X.X.X.X.X.X.Xo ,.,.I Z.T .Xo 7 t x.f.G { :.@.! V x h h h # o .X.X.X.X.X.X.X.X.X",
".X.X.X.X.X.X.X.X  $ z 3 .X.X6 P.{ r.' P =.-.N j : $ e.i.i.y.y .X.X.X.X.X.X.X.X.X",
".X.X.X.X.X.X.X.X.XL ) ~ .X.X7 P.P.q.3.:.:...: * J p.d.d.a.N.R.p .X.X.X.X.X.X.X.X",
".X.X.X.X.X.X.X.X.XL 6._ .X.X7 w.3.3.4.:.:.6 Z G ] s.d.y.t.l.T.N.= .X.X.X.X.X.X.X",
".X.X.X.X.X.X.X.X.X5 _ ^ .X.X& %.4.:.:.:.:.; 1 D ] ] A * o e l.T.a .X.X.X.X.X.X.X",
".X.X.X.X.X.X.X.X.XO 2 1 i .Xo l c ..*.-.@.k * K ] ] J ] Z .Xw t.p.$ .X.X.X.X.X.X",
".X.X.X.X.X.X.X.Xo k.M.t i.i   } -.-.:.:.:.X.l Z K ] ] K A .X.X$ t.$ .X.X.X.X.X.X",
".X.X.X.X.X.X.X.Xo x.T.m.s w o 0 ; &.:.:.:.*.V x S J K S # .X.X.Xo .X.X.X.X.X.X.X",
".X.X.X.X.X.X.X.Xo p.z.z.o o o 9 =.:.:.:.+.B V V B R E V b o .X.X.X.X.X.X.X.X.X.X",
".X.X.X.X.X.X.X.X.Xd i.e.O O U Q 8 q n n h b b b b x h k k o F X .X.X.X.X.X.X.X.X",
".X.X.X.X.X.X.X.X.Xo X > o % 6.Z.7.U.7.U.Z.R ~ L U Y 6.Y / H d.i .X.X.X.X.X.X.X.X",
".X.X.X.X.X.X.X.X.XO 2 5.O @ x h > , > , , : Y L U z ~ > & F d.i .X.X.X.X.X.X.X.X",
".X.X.X.X.X.X.X.X.X.X- z o [ -.-.o.o.C B B B b v 2 ) O / > w e o .X.X.X.X.X.X.X.X",
".X.X.X.X.X.X.X.X.X.X.X.Xo ; 4 [ [ [ V M M b l h 5 ) L , ~ ^ .X.X.X.X.X.X.X.X.X.X",
".X.X.X.X.X.X.X.X.X.X.X.X.X.X.Xo o O o o o o o o o I _ o o I .X.X.X.X.X.X.X.X.X.X",
".X.X.X.X.X.X.X.X.X.X.X.X.X.X.Xo o .X.X.X.X.X.X.X.X.Xo o o .X.X.X.X.X.X.X.X.X.X.X",
".X.X.X.X.X.X.X.X.X.X.X.X.X.Xo O o .X.X.X.X.X.X.X.X.X.Xo o .X.X.X.X.X.X.X.X.X.X.X",
".X.X.X.X.X.X.X.X.X.X.X.X.X.X.X.X.X.X.X.X.X.X.X.X.X.X.X.X.X.X.X.X.X.X.X.X.X.X.X.X",
".X.X.X.X.X.X.X.X.X.X.X.X.X.X.X.X.X.X.X.X.X.X.X.X.X.X.X.X.X.X.X.X.X.X.X.X.X.X.X.X",
".X.X.X.X.X.X.X.X.X.X.X.X.X.X.X.X.X.X.X.X.X.X.X.X.X.X.X.X.X.X.X.X.X.X.X.X.X.X.X.X"
};
