/* XPM */
static char *xpm_[] = {
/* columns rows colors chars-per-pixel */
"40 38 185 2 ",
"   c #0D1B2D",
".  c #05182D",
"X  c #14162D",
"o  c #151B2E",
"O  c #1A1D2F",
"+  c #1E1E31",
"@  c #16202E",
"#  c #1A222F",
"$  c #1A2331",
"%  c #1B3732",
"&  c #2A2434",
"*  c #282733",
"=  c #36263B",
"-  c #342D3C",
";  c #3D2A3E",
":  c #382936",
">  c #273832",
",  c #3B3339",
"<  c #373837",
"1  c #422839",
"2  c #4C3B3D",
"3  c #443437",
"4  c #512B36",
"5  c #6B343D",
"6  c #1D4A34",
"7  c #1F5436",
"8  c #284A3B",
"9  c #314D35",
"0  c #215C38",
"q  c #3A5337",
"w  c #246C3C",
"e  c #20643A",
"r  c #3D683C",
"t  c #27773F",
"y  c #31773F",
"u  c #40493A",
"i  c #68483B",
"p  c #4E713F",
"a  c #3E2A40",
"s  c #283D41",
"d  c #452A44",
"f  c #4A2E46",
"g  c #472B46",
"h  c #4D3149",
"j  c #483C42",
"k  c #57334C",
"l  c #5D3753",
"z  c #5F3854",
"x  c #6B3943",
"c  c #763A41",
"v  c #7B3B43",
"b  c #733B4B",
"n  c #633A57",
"m  c #653B58",
"M  c #693D5B",
"N  c #693C57",
"B  c #723E56",
"V  c #2B4A4A",
"C  c #2F504F",
"Z  c #355352",
"A  c #336E41",
"S  c #297D40",
"D  c #3A645E",
"F  c #39695D",
"G  c #3E6B64",
"H  c #3E6660",
"J  c #494345",
"K  c #544842",
"L  c #574949",
"P  c #5C4C4C",
"I  c #554747",
"U  c #5D5044",
"Y  c #51525A",
"T  c #6D4B49",
"R  c #724245",
"E  c #64534D",
"W  c #7E4358",
"Q  c #675554",
"!  c #6C5A54",
"~  c #695753",
"^  c #715F52",
"/  c #715E5A",
"(  c #567C42",
")  c #74634F",
"_  c #796458",
"`  c #406F67",
"'  c #407466",
"]  c #407D65",
"[  c #417168",
"{  c #656962",
"}  c #843F44",
"|  c #924549",
" . c #9C494C",
".. c #805842",
"X. c #82445A",
"o. c #8B4759",
"O. c #8A4655",
"+. c #994B58",
"@. c #964A58",
"#. c #8E5F54",
"$. c #A54D4F",
"%. c #A54F57",
"&. c #A84F52",
"*. c #AC5155",
"=. c #A65057",
"-. c #B55455",
";. c #B75D59",
":. c #936548",
">. c #986659",
",. c #8E7A5C",
"<. c #927D5E",
"1. c #A6714E",
"2. c #B8655D",
"3. c #B67C53",
"4. c #9E7466",
"5. c #957A6A",
"6. c #826B62",
"7. c #BB6E62",
"8. c #BD7264",
"9. c #B57966",
"0. c #C07666",
"q. c #C27D6A",
"w. c #2E8E46",
"e. c #308643",
"r. c #2F9347",
"t. c #2F9048",
"y. c #309748",
"u. c #329E4A",
"i. c #359C50",
"p. c #37AD4F",
"a. c #33A24C",
"s. c #37AE50",
"d. c #38B251",
"f. c #37B050",
"g. c #3E8462",
"h. c #559048",
"j. c #639149",
"k. c #638E48",
"l. c #4DAF57",
"z. c #54AB50",
"x. c #47B354",
"c. c #59BB55",
"v. c #5AA34E",
"b. c #73A550",
"n. c #62BE57",
"m. c #409060",
"M. c #75C45A",
"N. c #7DC95C",
"B. c #83BB58",
"V. c #9B8169",
"C. c #B0956F",
"Z. c #B1A079",
"A. c #C48657",
"S. c #D9945F",
"D. c #DB9A5E",
"F. c #DEA45D",
"G. c #E0A75B",
"H. c #E0A95B",
"J. c #E7B857",
"K. c #C4826D",
"L. c #CBAD7E",
"P. c #8DCC5F",
"I. c #84CA5D",
"U. c #92D361",
"Y. c #F8DE4D",
"T. c #EFCA51",
"R. c #ECC354",
"E. c #F0CE51",
"W. c #F1D050",
"Q. c #FDE945",
"!. c #FDE84A",
"~. c #FFEE52",
"^. c #ECD072",
"/. c #FFED65",
"(. c #FFEF68",
"). c #CBB688",
"_. c #D6BC8B",
"`. c #EAD8A3",
"'. c #EFE1AB",
"]. c #FFF4AD",
"[. c #FFF5B3",
"{. c #FBF2C1",
"}. c #FFFADD",
"|. c #FFFAE0",
" X c None",
/* pixels */
" X X X X X X X X X X X X X X X X X X X X X X X X X X X X X X X X X X X X X X X X",
" X X X X X X X X X X X X X X X X X X X X X X X X X X X X X X X X X X X X X X X X",
" X X X X X X X X X X X X X X X X X X X X X X X X X X X X X X X X X X X X X X X X",
" X X X X X X X X X X X X X X X X X X X X X X X X X X X X X X X X X X X X X X X X",
" X X X X X XS.S.S. X X X X X X X X X X X X X X X X X X X X X X X X X X X X X X X",
" X X X XS.D.G.S. X X4.4.4. X X X X X X X X X X X X X X X X X X X X X X X X X X X",
" X X X XS.W.R. X X X X X X X X X X X X X X X X X X X X X X X X X X X X X X X X X",
" X X XS.S.!.E.S. X X X X X X X X X X X X X X X X X X X X X X X X X X X X X X X X",
" X X XS.S.G.T.S.S.S. X X X X X X X X X X X X X X X X X X X X X X X X X X X X X X",
" X X X XS.S.S.F.G.G.S.S. X X X X X X+ ,  X X X X X X X X X X X X X X X X X X X X",
" X X X X XS.S.G.!.Q.Y.J.S. X X X X X& 9.R o  X X X X X X X X X X X X X X X X X X",
" X X X X X X3 A.T./.|.!.S. X X X X XT K.2.c o  X X X X X X X X X X X X X X X X X",
" X X X X X X X..J.~.[./.A. Xo  X X3 9.q.2.2.f o  X X X X> ( X  X X X X X X X X X",
" X X X X X X Xi J.(.}.Q.A.  ( r # T K.2.8.X.1 } c +  Xo b.h. X X X X X X X X X X",
" X X X X X X X:.Y.].}.T.3.. b.N.S q 2.-.%.v $.-.X.n + o I.e  X X X X X X X X X X",
" X X X X X X X1.^.{.[.F.:. Xq P.n.i.T -.*.-.*.B f ; v ; y w  X X X X X X X X X X",
" X X X X X X XU _.`.`.).O  Xo k.U.l.' R *.@.W o.$.-.=.M f o  X X X X X X X X X X",
" X X X X X X X* Z.`._._.#  X XX B.n.] { -.-.-.-.*.o.M M n o  X X X X X X X X X X",
" X X X X X X XK ).V.) ).#  X* 2 j.x.[ J =.*.@.W m g d d d X  X X X X X X X X X X",
" X X X X X X Xo 3 o U *  X X#.8.9 g.H x *.@.l a * 7 t.a.z.v.0  X X X X X X X X X",
" X X X X X X X X@ P / *  X X>.K.q.8.-.-.-.k o V g.d.d.d.c.U.I.r  X X X X X X X X",
" X X X X X X X Xo ! 5.,  X X>.q.0.0.0.;.$.s Z G ] d.d.y.y.c.N.M.t  X X X X X X X",
" X X X X X X X X XQ 5.,  X X1 9.q.7.-.-.} X V G [ F % $ @ % S w.p.0  X X X X X X",
" X X X X X X X X Xj ! *  X X& k b +.%.*.} a C G [ G G G $  X XX 6 6  X X X X X X",
" X X X X X X X Xo j.> t w. X: &.-.-.*.-.=.N - D [ [ G G @  X X X X X X X X X X X",
" X X X X X X X Xe P.P.9 y. X1 | c -.-.-.-.X.z h Z ` G a o  X X X X X X X X X X X",
" X X X X X X X Xw x.M.h.% o o 4 | -.-.-.X.M M M m Y Y m k +  X X X X X X X X X X",
" X X X X X X X X7 d.d.S o  Xo 5 v &.$.&.B M M M M m n n n = 7 o  X X X X X X X X",
" X X X X X X X X X0 7 @  X XK V.C.^ ,.! ,.I 1 - = J E I L 8 f.S  X X X X X X X X",
" X X X X X X X X Xo j I  X XO = , _ <.) 5.j _ ! _ Q _ 2 L A d.u.X  X X X X X X X",
" X X X X X X X X Xo I E  X Xx O.O.l l n l l f a - U - I + 8 y.w  X X X X X X X X",
" X X X X X X X X X X X X XO } | &.&.$.M M M m h P / o ~ Q o  X X X X X X X X X X",
" X X X X X X X X X X X X X X Xo       ; ; = o J E , o , _  X X X X X X X X X X X",
" X X X X X X X X X X X X X X X Xo O  X X X X Xo  X Xo o o  X X X X X X X X X X X",
" X X X X X X X X X X X X X X Xo o  X X X X X X X X X Xo o  X X X X X X X X X X X",
" X X X X X X X X X X X X X X Xo o  X X X X X X X X X XO o  X X X X X X X X X X X",
" X X X X X X X X X X X X X X X X X X X X X X X X X X X X X X X X X X X X X X X X",
" X X X X X X X X X X X X X X X X X X X X X X X X X X X X X X X X X X X X X X X X"
};
