/* XPM */
static char *result[] = {
/* columns rows colors chars-per-pixel */
"40 38 184 2 ",
"   c #04152D",
".  c #0C192D",
"X  c #09172D",
"o  c #15152E",
"O  c #151B2E",
"+  c #191D2F",
"@  c #1F1E31",
"#  c #281E32",
"$  c #16212E",
"%  c #1E2030",
"&  c #1A2A33",
"*  c #1A3C32",
"=  c #1C3336",
"-  c #2C2334",
";  c #292835",
":  c #33253A",
">  c #342C39",
",  c #3B2B3D",
"<  c #332834",
"1  c #273C33",
"2  c #28353C",
"3  c #3C353D",
"4  c #442C3F",
"5  c #4A2D37",
"6  c #562D39",
"7  c #433339",
"8  c #43393D",
"9  c #4E3A37",
"0  c #56383C",
"q  c #68343C",
"w  c #76383F",
"e  c #75373F",
"r  c #1E4E35",
"t  c #1D5637",
"y  c #334D36",
"u  c #215737",
"i  c #215D39",
"p  c #3E5A39",
"a  c #355637",
"s  c #23623B",
"d  c #256B3C",
"f  c #366F3D",
"g  c #28773F",
"h  c #48403C",
"j  c #50463F",
"k  c #6F403E",
"l  c #704E3D",
"z  c #263F42",
"x  c #442B44",
"c  c #4D2D45",
"v  c #502F43",
"b  c #493A46",
"n  c #52324C",
"m  c #59344B",
"M  c #5C3752",
"N  c #5F3854",
"B  c #533E51",
"V  c #7C3C42",
"C  c #623956",
"Z  c #673C5A",
"A  c #693D5B",
"S  c #693A52",
"D  c #773F56",
"F  c #61364A",
"G  c #294647",
"H  c #2F514F",
"J  c #335955",
"K  c #287741",
"L  c #38645D",
"P  c #3C6943",
"I  c #3D6B63",
"U  c #3B6660",
"Y  c #3D7961",
"T  c #4D4145",
"R  c #5D4D4B",
"E  c #574945",
"W  c #5D5145",
"Q  c #415C5A",
"!  c #7A494A",
"~  c #67554C",
"^  c #67415C",
"/  c #764058",
"(  c #645451",
")  c #725D55",
"_  c #735F59",
"`  c #7B5742",
"'  c #7C665D",
"]  c #77635D",
"[  c #417168",
"{  c #407567",
"}  c #823E44",
"|  c #9D4B4D",
" . c #93474D",
".. c #864559",
"X. c #8B4759",
"o. c #8C4856",
"O. c #9E4C55",
"+. c #924958",
"@. c #844649",
"#. c #A14C4E",
"$. c #A34E56",
"%. c #A65254",
"&. c #AA5156",
"*. c #B55555",
"=. c #916447",
"-. c #976257",
";. c #89745C",
":. c #867959",
">. c #937D5E",
",. c #AB764E",
"<. c #BB655D",
"1. c #BC695F",
"2. c #B5635B",
"3. c #A46459",
"4. c #826B61",
"5. c #806660",
"6. c #8B7164",
"7. c #967E64",
"8. c #AF7463",
"9. c #BB7565",
"0. c #C27C6A",
"q. c #2C8743",
"w. c #2D8D45",
"e. c #32994B",
"r. c #309748",
"t. c #3C995D",
"y. c #33A34C",
"u. c #39AC4F",
"i. c #38B251",
"p. c #39AB55",
"a. c #3E8F60",
"s. c #5E8B47",
"d. c #5C8445",
"f. c #409C4A",
"g. c #6B9B4C",
"h. c #4AA550",
"j. c #49B553",
"k. c #58B955",
"l. c #47A84E",
"z. c #6EAF53",
"x. c #76AC53",
"c. c #63BF57",
"v. c #69B354",
"b. c #7CB155",
"n. c #6FC359",
"m. c #7CC75C",
"M. c #998569",
"N. c #A68D69",
"B. c #AC9772",
"V. c #C18457",
"C. c #C78859",
"Z. c #C58658",
"A. c #D9945F",
"S. c #DC9D5D",
"D. c #DFA85B",
"F. c #E0A75B",
"G. c #E2AD5A",
"H. c #E3B059",
"J. c #C6836E",
"K. c #DBBA6F",
"L. c #C1A478",
"P. c #C0AA7F",
"I. c #85C35B",
"U. c #8AD05F",
"Y. c #91CF60",
"T. c #91D361",
"R. c #F0CD4E",
"E. c #EFCB51",
"W. c #ECC554",
"Q. c #F0CD50",
"!. c #FFED43",
"~. c #FAE249",
"^. c #FCE647",
"/. c #FCE756",
"(. c #FFEF6D",
"). c #FFF079",
"_. c #DEC896",
"`. c #E1CB97",
"'. c #E4D19A",
"]. c #F5E8AA",
"[. c #FFF4A6",
"{. c #FFFADD",
"}. c #FFFCEB",
"|. c None",
/* pixels */
"|.|.|.|.|.|.|.|.|.|.|.|.|.|.|.|.|.|.|.|.|.|.|.|.|.|.|.|.|.|.|.|.|.|.|.|.|.|.|.|.",
"|.|.|.|.|.|.|.|.|.|.|.|.|.|.|.|.|.|.|.|.|.|.|.|.|.|.|.|.|.|.|.|.|.|.|.|.|.|.|.|.",
"|.|.|.|.|.|.|.|.|.|.|.|.|.|.|.|.|.|.|.|.|.|.|.|.|.|.|.|.|.|.|.|.|.|.|.|.|.|.|.|.",
"|.|.|.|.|.|.|.|.|.|.|.|.|.|.|.|.|.|.|.|.|.|.|.|.|.|.|.|.|.|.|.|.|.|.|.|.|.|.|.|.",
"|.|.|.|.|.|.|.|.|.|.|.|.A.A.|.|.|.|.|.|.|.|.|.|.|.|.|.|.|.|.|.|.|.|.|.|.|.|.|.|.",
"|.|.|.|.|.|.|.|.|.|.|.|.|.A.A.|.|.|.|.|.|.|.|.|.|.|.|.|.|.|.|.|.|.|.|.|.|.|.|.|.",
"|.|.|.|.|.|.|.|.|.|.|.|.F.~.A.|.|.|.|.|.|.|.|.|.|.|.|.|.|.|.|.|.|.|.|.|.|.|.|.|.",
"|.|.|.|.|.|.|.|.A.A.F.A.D.G.A.|.|.|.|.|.|.|.|.|.|.|.|.|.|.|.|.|.|.|.|.|.|.|.|.|.",
"|.|.|.|.|.|.,.A.F.~.E.A.|.A.|.|.|.|.|.|.|.|.|.|.|.|.|.|.|.|.|.|.|.|.|.|.|.|.|.|.",
"|.|.|.|.|.|.C.S.^.!.G.A.A.|.|.|.|.|.|.! 5 |.|.|.|.|.|.|.|.|.|.|.|.|.|.|.|.|.|.|.",
"|.|.|.|.|.|.C.W.)./.A.V.|.|.|.|.|.|.O -.*.6 O |.|.|.|.|.|.|.|.|.|.|.|.|.|.|.|.|.",
"|.|.|.|.|.|.,.R.{./.F.V.|.|.|.|.|.|.7 9.*.2.6 + |.|.|.|.|.o O |.|.|.|.|.|.|.|.|.",
"|.|.|.|.|.|.=.R.(.).W.A.=.|.O o |.X 8.<.<.9.D @ O O |.|.1 x.1 |.|.|.|.|.|.|.|.|.",
"|.|.|.|.|.|.l D.!.}./.S.V.|.p I.f X 9.*.1.o.v | &.F @ O d.z.O |.|.|.|.|.|.|.|.|.",
"|.|.|.|.|.|.|.,.~.}.[.Q.Z.  p Y.m.w.k *.$.O.*.*.o.M , O s.e.O |.|.|.|.|.|.|.|.|.",
"|.|.|.|.|.|.|.9 K.].].'.` |.O s.T.i.Y ! *.*.&./ 4 V #./ 4 s |.|.|.|.|.|.|.|.|.|.",
"|.|.|.|.|.|.|.  7._.]._.:.|.|.O b.c.t.L %.*.O.$.*.&...A Z : |.|.|.|.|.|.|.|.|.|.",
"|.|.|.|.|.|.|.. M._.B.P.M.|.|.O p n.t.I %.*.*.&.+./ A A Z , |.|.|.|.|.|.|.|.|.|.",
"|.|.|.|.|.|.|.O >.:.j N.W |.; -.9 h.Y J } &.+.Z M : & u u t $ |.|.|.|.|.|.|.|.|.",
"|.|.|.|.|.|.|.|.. % b 3 |.|.0 J.3.:.' ! *.$.m ; G K y.i.j.U.v.r |.|.|.|.|.|.|.|.",
"|.|.|.|.|.|.|.|.|.T ' ( |.|.0 J.0.1.*.*.*.@.2 G [ p.i.i.i.n.T.I.a |.|.|.|.|.|.|.",
"|.|.|.|.|.|.|.|.|.T 6.] |.|.7 9.1.<.*.*.*.- G J [ a.e.d s q.l.k.u.d |.|.|.|.|.|.",
"|.|.|.|.|.|.|.|.|.3 ] ) |.|.O 0 | *.*.*.*.# 2 I [ [ z H & |.& * K e.o |.|.|.|.|.",
"|.|.|.|.|.|.|.|.|.O 3 > s |.O S / o.O.%.+.C 2 U [ [ [ [ H |.|.|.|.o |.|.|.|.|.|.",
"|.|.|.|.|.|.|.|.O g.x.y y.s X | *.*.*.*.*.O.N ; U [ I I & |.|.|.|.|.|.|.|.|.|.|.",
"|.|.|.|.|.|.|.|.O k.T.b.g * $ q # #.*.*.*.X.^ Z n Q I B x + |.|.|.|.|.|.|.|.|.|.",
"|.|.|.|.|.|.|.|.O u.j.j.O + O q #.*.*.*.X.A A A A ^ B A Z - |.|.|.|.|.|.|.|.|.|.",
"|.|.|.|.|.|.|.|.|.g y.w.O |.< E ~ w e V c N C M N n x n n # q.* |.|.|.|.|.|.|.|.",
"|.|.|.|.|.|.|.|.|.O o > + |.8 ;.N.M.L.7.L.( ( T E R 6.W _ P p.w.o |.|.|.|.|.|.|.",
"|.|.|.|.|.|.|.|.|.O 3 5.@ |.- n x , , , , : R T R 8 ( < @ K i.r.o |.|.|.|.|.|.|.",
"|.|.|.|.|.|.|.|.|.|.; b |.+  .&.$.X.o.A A A N n 3 ' O ] > & i * |.|.|.|.|.|.|.|.",
"|.|.|.|.|.|.|.|.|.|.|.|.|.O < 6 } } } S C C b x ' R O b ' b |.|.|.|.|.|.|.|.|.|.",
"|.|.|.|.|.|.|.|.|.|.|.|.|.|.|.|.O O + O O O O ; 8 O O O 8 |.|.|.|.|.|.|.|.|.|.|.",
"|.|.|.|.|.|.|.|.|.|.|.|.|.|.|.|.O + |.|.|.|.|.|.|.|.|.O + |.|.|.|.|.|.|.|.|.|.|.",
"|.|.|.|.|.|.|.|.|.|.|.|.|.|.|.O O |.|.|.|.|.|.|.|.|.|.O O |.|.|.|.|.|.|.|.|.|.|.",
"|.|.|.|.|.|.|.|.|.|.|.|.|.|.|.|.|.|.|.|.|.|.|.|.|.|.|.|.|.|.|.|.|.|.|.|.|.|.|.|.",
"|.|.|.|.|.|.|.|.|.|.|.|.|.|.|.|.|.|.|.|.|.|.|.|.|.|.|.|.|.|.|.|.|.|.|.|.|.|.|.|.",
"|.|.|.|.|.|.|.|.|.|.|.|.|.|.|.|.|.|.|.|.|.|.|.|.|.|.|.|.|.|.|.|.|.|.|.|.|.|.|.|."
};
