/* XPM */
static char *xpm_[] = {
/* columns rows colors chars-per-pixel */
"40 40 120 2 ",
"   c #151C2E",
".  c #161C2E",
"X  c #171C2E",
"o  c #171D2E",
"O  c #171D2F",
"+  c #1F202F",
"@  c #26252F",
"#  c #272C2E",
"$  c #2E322F",
"%  c #31352F",
"&  c #33382F",
"*  c #3B3F2F",
"=  c #252030",
"-  c #2C2631",
";  c #322932",
":  c #3E3332",
">  c #473536",
",  c #4B3E33",
"<  c #533D39",
"1  c #3D412F",
"2  c #574735",
"3  c #594936",
"4  c #4D5030",
"5  c #4D5130",
"6  c #575632",
"7  c #6B533D",
"8  c #655A39",
"9  c #755F3C",
"0  c #646533",
"q  c #716837",
"w  c #75653A",
"e  c #757A34",
"r  c #6B4D40",
"t  c #725540",
"y  c #745541",
"u  c #636743",
"i  c #87773D",
"p  c #845E49",
"a  c #856A40",
"s  c #876C40",
"d  c #8C644C",
"f  c #947743",
"g  c #987B44",
"h  c #A17254",
"j  c #A17D50",
"k  c #AB7B56",
"l  c #AB7A57",
"z  c #AC7B58",
"x  c #AD7C58",
"c  c #AE7D58",
"v  c #848835",
"b  c #A4A43D",
"n  c #BAC03C",
"m  c #C3C93E",
"M  c #CBD13F",
"N  c #AF8A4D",
"B  c #B5914C",
"V  c #B9964D",
"C  c #B09B4D",
"Z  c #B08457",
"A  c #BA8F56",
"S  c #B5A346",
"D  c #B2A842",
"F  c #BDAB4E",
"G  c #A5AA51",
"H  c #A6AA54",
"J  c #9A8C65",
"K  c #C19556",
"L  c #C29A55",
"P  c #C69D55",
"I  c #C89E55",
"U  c #C6BF45",
"Y  c #CFBC4C",
"T  c #CCA553",
"R  c #CBA154",
"E  c #CDA354",
"W  c #CEA454",
"Q  c #CEA554",
"!  c #D1AD53",
"~  c #D2B352",
"^  c #D4CE46",
"/  c #D5C04F",
"(  c #D8C44F",
")  c #D9C84E",
"_  c #DCCF4C",
"`  c #D2D443",
"'  c #D5D842",
"]  c #DEDF46",
"[  c #DAD64A",
"{  c #DCD04C",
"}  c #DFD949",
"|  c #CFC453",
" . c #D0C551",
".. c #E1DD49",
"X. c #E2DF49",
"o. c #E2E447",
"O. c #E4E547",
"+. c #E7EA45",
"@. c #E7EB45",
"#. c #E4E846",
"$. c #E6E946",
"%. c #E8EE44",
"&. c #E9F044",
"*. c #E5E674",
"=. c #BABE81",
"-. c #A6A7A4",
";. c #C3A697",
":. c #BFC190",
">. c #C7CA9F",
",. c #EBEE80",
"<. c #EEF38C",
"1. c #E1E59C",
"2. c #D5D7B0",
"3. c #F3F7B5",
"4. c #C0C0C1",
"5. c #F3F3CF",
"6. c #F9FAE0",
"7. c #FDFCFC",
"8. c white",
"9. c None",
/* pixels */
"9.9.9.9.9.9.9.9.9.9.9.9.9.9.9.9.9.9.9.9.9.9.9.9.9.9.9.9.9.9.9.9.9.9.9.9.9.9.9.9.",
"9.9.9.9.9.9.9.9.9.9.9.9.9.9.9.9.9.9.9.9.9.9.9.9.9.9.9.9.9.9.9.9.9.9.9.9.9.9.9.9.",
"9.9.9.9.9.9.9.9.9.9.9.9.9.9.9.9.9.9.9.9.9.9.9.9.9.9.9.9.9.9.9.9.9.9.9.9.9.9.9.9.",
"9.9.9.9.9.9.9.9.9.9.9.9.9.9.9.9.9.9.9.9.9.9.9.9.9.9.9.9.9.9.9.9.9.9.9.9.9.9.9.9.",
"9.9.9.9.9.9.9.9.9.9.9.9.9.9.9.9.9.9.9.9.9.9.9.9.9.9.9.9.9.9.9.9.9.9.9.9.9.9.9.9.",
"9.9.9.9.9.9.9.9.9.9.9.9.9.9.9.9.9.9.9.9.9.9.9.9.9.9.9.9.9.9.9.9.9.9.9.9.9.9.9.9.",
"9.9.9.9.9.9.9.9.9.9.9.9.9.9.9.9.9.9.9.9.9.9.9.9.9.9.9.9.9.9.9.9.9.9.9.9.9.9.9.9.",
"9.9.9.9.9.9.9.9.9.9.9.9.9.9.9.9.9.9.9.9.9.9.9.9.9.9.9.9.9.9.9.9.9.9.9.9.9.9.9.9.",
"9.9.9.9.9.9.9.9.9.9.9.9.9.9.9.9.9.9.9.9.9.9.9.9.9.9.9.9.9.9.9.9.9.9.9.9.9.9.9.9.",
"9.9.9.9.9.9.9.9.9.9.9.9.9.9.9.9.9.9.9.9.9.9.9.9.9.9.9.9.9.9.9.9.9.9.9.9.9.9.9.9.",
"9.9.9.9.9.9.9.9.9.9.9.9.9.9.9.9.9.9.9.9.9.9.9.9.9.9.9.9.9.9.9.9.9.9.9.9.9.9.9.9.",
"9.9.9.9.9.9.9.9.9.9.9.9.9.9.9.9.9.9.9.9.9.9.9.9.9.9.9.9.9.9.9.9.9.9.9.9.9.9.9.9.",
"9.9.9.9.9.9.9.9.9.9.9.9.9.9.9.9.9.9.9.9.9.9.9.9.9.9.9.9.9.9.9.9.9.9.9.9.9.9.9.9.",
"9.9.9.9.9.9.9.9.9.9.9.9.9.9.9.9.9.9.9.9.9.9.9.9.9.9.9.9.9.9.9.9.9.9.9.9.9.9.9.9.",
"9.9.9.9.9.9.9.9.9.9.9.9.9.9.9.9.9.9.9.9.9.9.9.9.9.9.9.9.9.9.9.9.9.9.9.9.9.9.9.9.",
"9.9.9.9.9.9.9.9.9.9.9.9.9.9.9.9.9.9.9.9.9.9.9.9.9.9.9.9.9.9.9.9.9.9.9.9.9.9.9.9.",
"9.9.9.9.9.9.9.9.9.9.9.9.9.9.9.9.9.9.9.9.9.9.9.9.# e * 9.9.9.9.9.9.9.9.9.9.9.9.9.",
"9.9.9.9.9.9.9.9.9.9.9.9.9.9.9.9.9.9.9.9.9.9.9.9.% } ' q 9.9.9.9.9.9.9.9.9.9.9.9.",
"9.9.9.9.9.9.9.9.9.9.9.9.9.9.9.9.9.9.9.9.9.9.9.. 4.J Y f 9.9.9.9.9.9.9.9.9.9.9.9.",
"9.9.9.9.9.9.9.9.9.9.9.9.9.9.9.9.9.9.9.9.& G >.G -.2.6 9.9.9.9.9.9.9.9.9.9.9.9.9.",
"9.9.9.9.9.9.9.9.9.9.9.9.9.9.9.9.9.9.9.$ n 3.8.6.^ 0 4 9.9.9.9.9.9.9.9.9.9.9.9.9.",
"9.9.9.9.9.9.9.9.9.9.9.9.9.9.9.9.9.9.= b m :.;.5.@.V O 9.9.9.9.9.9.9.9.9.9.9.9.9.",
"9.9.9.9.9.9.9.9.9.9.9.9.9.9.9.9.u =.| N 3 S F ] @.T 2 9.9.9.9.9.9.9.9.9.9.9.9.9.",
"9.9.9.9.9.9.9.9.9.9.9.9.9.9.9.1 1.8.*.U 4 i ` %.{ I 7 9.9.9.9.9.9.9.9.9.9.9.9.9.",
"9.9.9.9.9.9.9.9.9.9.9.9.9.9.9.w ,.<. .C v D g L A l < 9.9.9.9.9.9.9.9.9.9.9.9.9.",
"9.9.9.9.9.9.9.9.9.9.9.9.9.9.9.s ..%.@.Z j 8 M / x r O 9.9.9.9.9.9.9.9.9.9.9.9.9.",
"9.9.9.9.9.9.9.9.9.9.9.9.9.9.9.w ~ @.o.[ &.&.&.) x h O 9.9.9.9.9.9.9.9.9.9.9.9.9.",
"9.9.9.9.9.9.9.9.9.9.9.9.9.9.9.= B ! ( ..O.O.{ P x d . 9.9.9.9.9.9.9.9.9.9.9.9.9.",
"9.9.9.9.9.9.9.9.9.9.9.9.9.9.9.9., N R W W E K l p - 9.9.9.9.9.9.9.9.9.9.9.9.9.9.",
"9.9.9.9.9.9.9.9.9.9.9.9.9.9.9.9.9.+ : t a y > ; O 9.9.9.9.9.9.9.9.9.9.9.9.9.9.9.",
"9.9.9.9.9.9.9.9.9.9.9.9.9.9.9.9.9.9.9.9.9.9.9.9.9.9.9.9.9.9.9.9.9.9.9.9.9.9.9.9.",
"9.9.9.9.9.9.9.9.9.9.9.9.9.9.9.9.9.9.9.9.9.9.9.9.9.9.9.9.9.9.9.9.9.9.9.9.9.9.9.9.",
"9.9.9.9.9.9.9.9.9.9.9.9.9.9.9.9.9.9.9.9.9.9.9.9.9.9.9.9.9.9.9.9.9.9.9.9.9.9.9.9.",
"9.9.9.9.9.9.9.9.9.9.9.9.9.9.9.9.9.9.9.9.9.9.9.9.9.9.9.9.9.9.9.9.9.9.9.9.9.9.9.9.",
"9.9.9.9.9.9.9.9.9.9.9.9.9.9.9.9.9.9.9.9.9.9.9.9.9.9.9.9.9.9.9.9.9.9.9.9.9.9.9.9.",
"9.9.9.9.9.9.9.9.9.9.9.9.9.9.9.9.9.9.9.9.9.9.9.9.9.9.9.9.9.9.9.9.9.9.9.9.9.9.9.9.",
"9.9.9.9.9.9.9.9.9.9.9.9.9.9.9.9.9.9.9.9.9.9.9.9.9.9.9.9.9.9.9.9.9.9.9.9.9.9.9.9.",
"9.9.9.9.9.9.9.9.9.9.9.9.9.9.9.9.9.9.9.9.9.9.9.9.9.9.9.9.9.9.9.9.9.9.9.9.9.9.9.9.",
"9.9.9.9.9.9.9.9.9.9.9.9.9.9.9.9.9.9.9.9.9.9.9.9.9.9.9.9.9.9.9.9.9.9.9.9.9.9.9.9.",
"9.9.9.9.9.9.9.9.9.9.9.9.9.9.9.9.9.9.9.9.9.9.9.9.9.9.9.9.9.9.9.9.9.9.9.9.9.9.9.9."
};
