/* XPM */
static char *xpm_[] = {
/* columns rows colors chars-per-pixel */
"40 39 85 1 ",
"  c #759B6E",
". c #7A9F6B",
"X c #638F76",
"o c #669175",
"O c #6B9374",
"+ c #6C9870",
"@ c #729672",
"# c #789772",
"$ c #7B9971",
"% c #77A764",
"& c #78A764",
"* c #77A863",
"= c #7AA963",
"- c #7DA169",
"; c #9BB94E",
": c #84AD5D",
"> c #8CAE5C",
", c #8FB357",
"< c #8BB159",
"1 c #94B554",
"2 c #98B751",
"3 c #99B850",
"4 c #92B159",
"5 c #A4B951",
"6 c #ACB954",
"7 c #A4B25F",
"8 c #ACB55D",
"9 c #B1BA56",
"0 c #B4BA56",
"q c #B5BA57",
"w c #B6BA57",
"e c #B2B65D",
"r c #B4B75C",
"t c #B6B55F",
"y c #B9B75E",
"u c #B6BA58",
"i c #B9BA59",
"p c #BABA58",
"a c #BEB95B",
"s c #BFBA5B",
"d c #BAB95C",
"f c #BBB85D",
"g c #BDB95C",
"h c #BCB85D",
"j c #819C6F",
"k c #849C6F",
"l c #899F6E",
"z c #8A9F6E",
"x c #809B70",
"c c #849C70",
"v c #81A466",
"b c #87A566",
"n c #80AB60",
"m c #80A962",
"M c #87A862",
"N c #86AB62",
"B c #89AA61",
"V c #89AB62",
"C c #8DAC61",
"Z c #8EAD61",
"A c #92AE61",
"S c #94AE61",
"D c #98AF60",
"F c #95A46B",
"G c #94A36C",
"H c #9AA769",
"J c #9EA868",
"K c #9FA968",
"L c #9DB060",
"P c #A0AA67",
"I c #A1AA67",
"U c #ABAF63",
"Y c #A8AE65",
"T c #ABAF64",
"R c #ACB063",
"E c #AEB162",
"W c #B1B261",
"Q c #B3B360",
"! c #B2B361",
"~ c #B0B262",
"^ c #B5B560",
"/ c #C0BB5A",
"( c #C0BA5B",
") c #C1BA5B",
"_ c #C1BB5B",
/* pixels */
"ss(siisssss)siiiiiii9;;;;;;;;;;;;;9i;;;;",
"999;;59999996;;1,,,1;;;;;;;;;;;;;;;;;;;;",
";;;;;;;;;;;;;2:=*%%=,2::<;;;;599;;;;;;;;",
";;;;;;;;;;;;:==%===%====&<;5iissi;;;;;;;",
"2;;;;;;;222==%===:===&===Artsi_ssssu==,1",
"=2;;,1;;,:%%=:3;;;1==n:>=**=Ye_s87Y=:N%%",
"==::==1;11,111;;;;;n=2;;,1141165,,,1;211",
"=======n:;2;;;;;;;;22;;;232;1;;32;33n<;3",
";1:nn>;;;;;;1441;141;;;5j#oO@1;+o.:==%,=",
";;;;;;;;;;;>XoXoB.Xo:5u_s!FOo #oFk+=**==",
";;;;;;;;;>.OYYU@XkU@$psssssROooPsyj+8L*=",
"n==2;;;  @Pt(_(yyssyd_sssissEoJsssddssS=",
"ZZZZZ7Jkss(ssiee)ssssssr=*Ys(ERu;5sss___",
"_((((i9996is7S%=Y8s87Y7==**L789;;;6696p(",
"556555;;;;55111==N4%==*==*=*==::;;;;;;55",
";;;;;5;;;;;;;;2233:&==**==*==*====,;2===",
";;;;6sss5;;;;;;;;;211<*=::&=====*==%=*NZ",
";696ss__s66;;;1<,>&%*&*:;;3===**=<<<<4^s",
"55i(sw55sssw;;2411111113;;;=*=<12;6u;6ss",
";;;;w;;;5ssi9;;;;;;;;;;;;;;;31;;5ss)sisd",
"1;;;;;;;;;;;;;;;;;;;;;;;;;;;;;;188e8ee>=",
"=,<>,;;;;;;;;;;;;;;;;;;;;;;;;;1=*%:<%&&*",
"%====:::=:::3;;;;;;;;;;;;;;;::===22;1%*=",
"===%:===:;2;;;;;;;;;;;;;;;;;333;;;;;;22:",
"::::;;;;;;;;;;;;;;;;>4>4;;;44>>3;;;;565;",
";;;;;;;;;;;;;;;;;;>vXXXoN;>OoXXv;;;6ssu;",
";5iwi6;;;;;;;;;;;>OO~~lXo OOU~~#-;6ssssi",
"sssss6;;;BOOOx; OOo~))sy$@O!(((dEbusssss",
"s_(i92:3BX$zoooolxXPssss(UUss(ssssss)sss",
"66632 X.o.^(JoXH)^P@hsssss(s((((ss)sssss",
";;;;1oJEOG((s~~hss(^sssssssssw555)ssyB8)",
"56(l$F((s(iisss(ii((ssSn=Ssii;;;;6id=&=u",
"ssss((sss6;;9ss9;2,784==%&,36;;;11n*=%=8",
"66ws((_65;;;5ss53:**===&=n3;;;;,%&==*==:",
";;;ss95;;;;;;5w53=========nn:;<=&=*11%==",
";;;;;;;;;;;322;=====n&&=&========&,3;;<=",
";;;;;;;;;;,::%%===2;;=*::n*====::%,;;;;;",
">;;;;;;;;;;;2,,=*:;;;1:;;34=**:;;::2;;;;",
"=;;;;;;;;;6i;;;322;;;;;;;;;3213;;;23;;;;"
};
