/* XPM */
static char *_c9d8fc666ad42a5d315de0b5fb110ddz2yxvhzXvvhxrjf1[] = {
/* columns rows colors chars-per-pixel */
"116 132 23 1 ",
"  c black",
". c #D9945F",
"X c #9E7466",
"o c #BB8462",
"O c #161C2E",
"+ c #986C4E",
"@ c #1E4136",
"# c None",
"$ c #D9945F",
"% c #9E7466",
"& c #FFED44",
"* c #161C2E",
"= c #C5836E",
"- c #B65555",
"; c white",
": c #693D5B",
"> c #95D562",
", c #38B251",
"< c #D5B583",
"1 c #417168",
"2 c #EFE1AB",
"3 c #685757",
"4 c #977B6B",
/* pixels */
"                                                                                                                    ",
"                                                                                                                    ",
"                                                                                                                    ",
"                                                                                                                    ",
"                                                                                                                    ",
"                                                                                                                    ",
"                                                                                                                    ",
"                                                                                                                    ",
"                                                                                                                    ",
"                                                                                                                    ",
"                                                                                                                    ",
"                                                                                                                    ",
"                                                                                                                    ",
"                                                                                                                    ",
"                                                                                                                    ",
"                                                                                                                    ",
"                                                                                                                    ",
"                                                                                                                    ",
"                                                                                                                    ",
"                                                                                                                    ",
"                                                                                                                    ",
"                                                                                                                    ",
"                                                                                                                    ",
"                                                                                                                    ",
"                          .....$$.XX%%%%ooX                                                                         ",
"                        ...$$$$$..X%%$$$$%ooX                                                                       ",
"                       ..$$$$$$$.XX%%$$$$$$%XX                                                                      ",
"                      ..$$$$$$$..X%%%%%%%%%%%X                                                                      ",
"                      .$$$$$$$$. XXXXXXX%%%%%%                                                                      ",
"                      .$$$$&&$$.       XXXX%%%                                                                      ",
"                      $$$$&&&$$..         XXX%                                                                      ",
"                      $$$&&&&$$$.           XX                                                                      ",
"                      $$$&&&$$$$...                                                                                 ",
"                      $$$&&&$$$$$$....                  O****OO                                                     ",
"                      *$$&&$&$$$$$$$$..                 O*****OOO                                                   ",
"                      *$$$$$&&$$$$$$$$..                O**=****OOO                                                 ",
"                      *$$$$&&&&$$$$$$$$..               O**==-****OO                                                ",
"                      *$$$$&&&&&$$$$$$$$..             OO**==--****OOO                                              ",
"                      **$$$&&;&&&&$$$$$$$..            O***==---*****OO                                             ",
"                      **$$$$&;;&&&&&&&$$$$+O          OO**===----*****OO         OOOOOOO                            ",
"                      O**$$$&&;&&&&&&&&$$$*O OOOO    OO***==--===-*****OO       OO*****O                            ",
"                      O**$$$&&&&&;&&&&&&$$*O O**OOO  O***===--===:::****OOOO   OO******O                            ",
"                      OO**$$$&&&&;;;&&&&$$*OOO****OOOO**===--===-:::*******OO OO***>>**O                            ",
"                       OO*$$$$&&&&;;&&&&&$**OO******O***===--===:::*********OOO***>>,**O                            ",
"                        O**$$$$&&&;;&;&&&$**OO**>>******==---==::::**---:*****O***>>**OO                            ",
"                        OO**$$$$&&&;;;&&&$$*OO**>>>,****==----:::***----:::******>>,**O                             ",
"                         OO**$$$&&&&;;;&&$$*OO**>>>>,****-----::**-----:::::*****>>,**O                             ",
"                          O***$$$&&&;;;&&$$*OOO*>>>>,,,**----::-------::::::*****>,,**O                             ",
"                          OO***$$&&&;&;&&$$*O O**>>>>,,,**--::------:::::*********,,**O                             ",
"                           OO***$&&&&&;<<$**O O***>>>,,,11*-------:::::*****--::***,*OO                             ",
"                              **<22222222***O O***>>>,,,111*-----:::::***-----:::****O                              ",
"                              **<<<<2222<<**O OO***>>>,,,11**--:::::::-------:::::***O                              ",
"                              **<*<22222<<**O  OO***>>,,,111*--------------::::::::**O                              ",
"                              ****22222<<<**O  OO***>>,,,1111------------::::::::::**OO                             ",
"                              ***<22<<*<<2**O OO*****>,,,1111---------:::::::::::::***O                             ",
"                              **<<<<<***22**O O******>,,,111*--------::::::::::::::***OO                            ",
"                              **<<<<***<<<**OOO******>,,1111**----::::::::*************OO                           ",
"                              ***<****<<****OO***==***,,111***--::::::::****************OO                          ",
"                              *************OOO**===-**,1111**-----:::********,,,,,,,,****OO                         ",
"                              O***********OO O**===-**,111**-----::********,,,,,,,>>>,,***OO                        ",
"                              OO****3333**O  O**======----------::*****11,,,,,,,,,>>>>>,***OO                       ",
"                               OO**33333**O  O**========--------:*****111,,,,,,,,,,>>>>>,***OO                      ",
"                                O**33444**O  O**==========------*****1111,,,,,,,,,,,>>>>>>***OO                     ",
"                                O**33444**O  O**==-------------**11111111,,,,,,,,,,,,,>>>>,***OO                    ",
"                                OO*33444**O  O**===------------*****111111,,,,*****,,,,,,,,,,**O                    ",
"                                 O*33444**O  O***====----------*******111111**********,,,,,,,***                    ",
"                                 O*33344**O  O****-------------****11111111********O******,,,,**                    ",
"                                 O**3344**OO OO*****-----------*****1111111**111***OOO******,,**                    ",
"                                 O**3333***OO O**::***:-------::****1111111111111**O OOO********                    ",
"                                OO**********O O**::::::::::-:::::**11111111111111**O   OOOO*****                    ",
"                               OO********,,*@OO**:-------------:::***111111111111**O      OOOOOO                    ",
"                               O***>>****,,,*OO**---------------:::***1111111111***O                                ",
"                               O***>>>>***,,*OO**----------------:::***11111111***OO                                ",
"                               O**,>>>>>**,,*OO**--***-----------:::::***11111*****OO                               ",
"                               O**,,>>>>**,**OO*******---------:::::::::**1111*::***O                               ",
"                               O**,,,>>>>************---------::::::::::::111:::::**OO                              ",
"                               O**,,,,,,,**********-----------:::::::::::::**:::::***O                              ",
"                               O**,,,,,,,********------------::::::::::::::::::::::*****OO                          ",
"                               OO**,,,,,,****O*******--------::::::::::::::::::::::******OO                         ",
"                                O**,,,,,***OOO*****************:::::::::::*****::****,,***O                         ",
"                                OO*********O O**<44<<********************************,,,***                         ",
"                                 OO********O O**<44<<44<<<44<<<333********4444*4433*,,,,,**                         ",
"                                  O*****3**O O*******44<<<44<<<333443344**4444**433*,,,,,**                         ",
"                                  O***333**O O********************443344**4334******,,,,,**                         ",
"                                  O***344**OOO**::::***********************33*******,,,,,**                         ",
"                                  O***344**OO**:::::::::::::::::::******************1,,,***                         ",
"                                  OO******OO***------:::::::::::::::::**444***44**********O                         ",
"                                   OO****OO **------------:::::::::::***334***433********OO                         ",
"                                            ******--------:::::::::::**3333***3334***O                              ",
"                                            **************:::::::*****4443******444**O                              ",
"                                            OOOOO*********************44*********44*OO                              ",
"                                               OOOO*****#*********##******#*********O                               ",
"                                           OOOOO###****#############****#####*****OOOOO                             ",
"                                         OOO#######***########################****####OOO                           ",
"                                        OO########****########################****######OO                          ",
"                                        O#########****########################***########O                          ",
"                                        ########*****#########################*****#######                          ",
"                                        ########*****#########################*****#######                          ",
"                                        O################################################O                          ",
"                                        OO##############################################OO                          ",
"                                         OOO##########################################OOO                           ",
"                                           OOOOO##################################OOOOO                             ",
"                                               OOOOOOO######################OOOOOOO                                 ",
"                                                                                                                    ",
"                                                                                                                    ",
"                                                                                                                    ",
"                                                                                                                    ",
"                                                                                                                    ",
"                                                                                                                    ",
"                                                                                                                    ",
"                                                                                                                    ",
"                                                                                                                    ",
"                                                                                                                    ",
"                                                                                                                    ",
"                                                                                                                    ",
"                                                                                                                    ",
"                                                                                                                    ",
"                                                                                                                    ",
"                                                                                                                    ",
"                                                                                                                    ",
"                                                                                                                    ",
"                                                                                                                    ",
"                                                                                                                    ",
"                                                                                                                    ",
"                                                                                                                    ",
"                                                                                                                    ",
"                                                                                                                    ",
"                                                                                                                    ",
"                                                                                                                    ",
"                                                                                                                    ",
"                                                                                                                    ",
"                                                                                                                    "
};
